<svg xmlns="http://www.w3.org/2000/svg" xmlns:xlink="http://www.w3.org/1999/xlink" contentStyleType="text/css" data-diagram-type="DESCRIPTION" height="952px" preserveAspectRatio="none" style="width:1858px;height:952px;background:#F8F9FA;" version="1.1" viewBox="0 0 1858 952" width="1858px" zoomAndPan="magnify"><defs/><g><rect fill="#F8F9FA" height="952" style="stroke:none;stroke-width:1;" width="1858" x="0" y="0"/><!--cluster customer_infra--><g class="cluster" data-entity="customer_infra" data-source-line="126" data-uid="ent0002" id="cluster_customer_infra"><path d="M273.3715,52.6298 C288.2733,29.5073 309.4026,25.8029 325.2793,51.5953 C343.6418,29.2284 364.9926,26.9522 380.3926,54.8441 C391.9966,27.2274 418.0136,24.9353 432.5288,52.072 C450.2453,24.4401 467.5374,20.5375 489.1381,48.0871 C505.7452,28.3832 526.4792,29.6542 539.2791,52.5666 C555.0186,31.6085 576.1038,33.5046 589.3044,55.5221 C604.1528,25.7467 633.9532,29.2265 650.5795,53.5067 C665.705,29.8867 684.9713,31.9376 698.4163,55.2206 C714.811,28.1925 734.7676,18.405 757.8205,48.2683 C777.6257,26.9011 794.3246,32.4152 807.4683,55.6787 C820.4431,30.8221 847.3185,22.077 864.0101,51.8304 C876.8489,29.2507 898.2811,26.3883 911.2587,51.6935 C927.363,23.1238 951.1176,26.1991 966.774,52.1496 C987.0423,23.3088 1007.4558,29.199 1024,55.981 C1026.079,55.9792 1026.3309,57.4521 1025.5834,58.9552 C1037.1019,61.6695 1038.6785,70.4946 1030.942,78.4906 C1039.971,81.4264 1040.4097,90.311 1033.9377,95.9123 C1041.5802,101.8887 1040.8572,108.8855 1032.7383,113.8054 C1040.5019,129.2373 1034.7051,139.4705 1017,138.981 C1020.4279,137.6163 1023.5929,138.9266 1022.972,143.2397 C1008.6941,167.8693 981.33,171.5234 967.0004,143.2944 C953.5196,171.6874 933.44,172.2913 915.2616,147.8989 C893.8353,175.1278 875.3604,175.5704 857.5911,144.2942 C845.8951,172.9799 825.0153,176.9232 805.7352,151.5722 C786.7201,176.9536 768.2117,177.2482 751.9425,148.8268 C738.8779,174.9514 719.049,174.1997 700.3406,155.2942 C682.0056,180.3803 662.571,172.6824 649.3291,149.8701 C632.6356,179.5366 612.0551,174.6298 592.6415,152.8684 C576.9498,179.0036 555.6725,173.1745 542.4394,150.3475 C525.7251,180.8406 501.9372,181.7651 482.8713,152.6995 C463.915,176.3449 447.1969,174.4502 434.9222,146.4912 C415.9112,175.3016 394.2007,169.9231 376.405,145.1637 C362.5925,168.1404 342.7988,166.6377 327.5988,146.7434 C298.1104,175.3599 273.9265,167.3037 258,131.981 C259.1336,131.2665 260.1962,131.8813 260.2962,133.1674 C250.2125,128.7584 249.4221,121.8305 256.4859,114.0109 C245.3241,112.2179 243.8239,106.9763 249.5008,97.8881 C239.4042,88.637 241.356,80.3483 254.4229,76.4041 C245.2796,62.8399 249.2919,52.96 265,48.981 C269.6396,45.904 272.3997,47.2918 273.3715,52.6298" fill="#4A90E2" style="stroke:#181818;stroke-width:1;"/><text fill="#2C3E50" font-family="sans-serif" font-size="11" font-style="italic" lengthAdjust="spacing" textLength="57.4492" x="612.2754" y="64.1914">&#171;customer&#187;</text><text fill="#2C3E50" font-family="sans-serif" font-size="11" font-weight="bold" lengthAdjust="spacing" textLength="130.8774" x="575.5613" y="76.9961">Customer Infrastructure</text></g><!--cluster External Integrations--><g class="cluster" data-entity="External Integrations" data-source-line="133" data-uid="ent0007" id="cluster_External Integrations"><path d="M1074.1433,44.5245 C1091.8317,20.8996 1118.736,19.927 1133.0658,48.3283 C1145.181,16.0455 1168.0594,17.6094 1187.942,40.6194 C1200.5388,15.6568 1225.5304,19.2461 1238.4468,40.2683 C1254.8174,15.5646 1280.411,17.9044 1290.7528,46.2164 C1308.0177,19.4941 1325.6364,17.0144 1347.5586,40.9988 C1361.3722,16.4408 1379.7017,11.863 1398.4423,35.8326 C1414.133,6 1434.4643,6.2714 1452.3246,33.7944 C1469.57,7.0376 1497.3699,8.3694 1508.1813,39.9543 C1524.6442,19.6402 1545.8495,19.8245 1559.9148,42.8183 C1576.7082,13.5651 1602.1467,14.6162 1618.3364,43.4256 C1636.7653,18.9183 1659.8921,16.7845 1675.8951,46.0235 C1690.9318,26.2769 1705.2109,19.6025 1722.2989,43.8603 C1742.0301,20.0545 1769.0671,24.6292 1781.8761,51.9299 C1799.8698,24.1457 1818.0232,21.6548 1837,50.981 C1837.2457,50.8558 1837.3999,51.0088 1837.3718,51.2551 C1848.031,55.7302 1848.9647,66.1604 1840.005,73.0102 C1851.1703,80.6369 1851.0619,88.9683 1841.5119,97.8516 C1851.8564,104.3565 1849.1194,112.7048 1840.3113,118.0725 C1850.8276,130.423 1845.0459,141.804 1830,143.981 C1833.1176,139.9939 1836.6927,140.1546 1839.7018,144.1135 C1827.1393,176.6134 1802.6023,174.8406 1781.1847,153.7898 C1762.8587,174.4764 1740.2682,174.1622 1729.7664,145.618 C1714.5785,176.0439 1692.4696,178.0454 1669.9872,153.559 C1654.0849,174.6775 1632.7386,170.9564 1621.5436,148.3445 C1602.7433,173.4167 1585.8992,178.7296 1565.6672,149.8267 C1551.1946,178.0769 1533.6447,177.8282 1513.7861,155.3331 C1497.0416,184.2284 1472.8012,183.4156 1455.3971,156.0171 C1440.9609,184.3444 1415.4762,179.5038 1401.465,155.5784 C1385.5072,178.3663 1362.1916,177.7098 1348.8919,152.6573 C1331.0829,176.3536 1306.9916,175.7248 1293.9205,147.6286 C1277.3579,171.6546 1254.9722,175.6078 1237.5344,148.5955 C1225.2935,170.0395 1204.0315,177.9452 1187.876,152.7648 C1167.5462,180.5752 1146.8515,184.4977 1125.6598,153.6794 C1100.7067,180.4301 1072.6875,170.292 1064,136.981 C1065.438,135.9981 1066.8494,135.9802 1067.2245,138.0894 C1056.3793,134.2664 1051.9528,128.5215 1059.8831,117.8785 C1050.2134,112.2466 1048.7077,103.2953 1058.2391,96.2068 C1050.3963,87.689 1052.6477,78.8057 1063.6332,75.0997 C1050.2409,60.9433 1054.5325,51.0686 1071,43.981 C1072.2571,42.6625 1073.3773,43.0028 1074.1433,44.5245" fill="#50C878" style="stroke:#181818;stroke-width:1;"/><text fill="#2C3E50" font-family="sans-serif" font-size="11" font-style="italic" lengthAdjust="spacing" textLength="51.2617" x="1424.8691" y="59.1914">&#171;external&#187;</text><text fill="#2C3E50" font-family="sans-serif" font-size="11" font-weight="bold" lengthAdjust="spacing" textLength="113.3086" x="1393.8457" y="71.9961">External Integrations</text></g><!--cluster Cloudflare--><g class="cluster" data-entity="Cloudflare" data-source-line="141" data-uid="ent0013" id="cluster_Cloudflare"><rect fill="#FF6B35" height="374" rx="5" ry="5" style="stroke:#181818;stroke-width:1;" width="886" x="190" y="213.981"/><text fill="#2C3E50" font-family="sans-serif" font-size="11" font-style="italic" lengthAdjust="spacing" textLength="60.5" x="602.75" y="226.1914">&#171;cloudflare&#187;</text><text fill="#2C3E50" font-family="sans-serif" font-size="11" font-weight="bold" lengthAdjust="spacing" textLength="55.6392" x="605.1804" y="238.9961">Cloudflare</text></g><!--cluster cf_waf--><g class="cluster" data-entity="cf_waf" data-source-line="150" data-uid="ent0021" id="cluster_cf_waf"><path d="M357.6753,276.4206 C369.4233,258.9739 382.7198,258.6763 393.6865,277.2027 C403.5494,261.628 416.2009,262.952 426.6302,276.5634 C433.8771,257.3512 447.5452,257.5349 459.9008,271.4293 C470.9844,258.3951 486.4247,257.9316 493.1348,276.0891 C502.9638,258.5925 517.7923,260.1849 527.771,275.9331 C537.1929,257.3854 555.1336,256.697 565.3218,275.1556 C572.6395,260.9232 588.7976,257.4508 598.364,272.6293 C611.6202,257.1237 622.2855,259.9633 632.0542,276.3173 C640.1363,257.0343 654.4862,255.8437 665.8247,273.3263 C677.1568,255.5882 687.3574,255.4218 698.9623,273.0709 C709.8094,256.45 724.9705,260.2829 733.3265,275.7396 C742.9992,261.8548 753.1975,256.7382 765.4156,273.0331 C776.1219,259.1384 789.1901,255.7419 799.8085,273.1298 C815.8574,255.6553 827.5066,260.1935 838,278.981 C841.1026,279.2967 841.5414,281.6323 839.8791,283.8044 C855.0665,293.3299 854.0902,305.5392 840.1433,315.309 C861.7516,325.1123 857.8039,342.1041 841.9526,353.674 C859.6003,361.135 864.2657,374.0512 848.7939,388.0949 C865.43,400.3447 863.0717,412.313 846.8691,422.7382 C864.1271,433.9352 856.972,449.7366 842.2375,456.5514 C857.3985,475.3501 855.5403,488.4972 831,495.981 C832.6431,494.2348 834.6327,494.673 835.5666,496.8141 C826.3259,516.5218 808.8702,514.4491 797.5679,499.0452 C791.1573,513.8575 778.1361,512.5776 769.1696,501.8918 C759.7259,519.5896 745.1642,520.4068 734.1442,503.4867 C723.4301,519.5952 708.7426,522.1649 698.3531,503.1558 C686.4278,519.8962 675.0453,514.9082 665.2689,500.8476 C655.4504,516.7932 641.1966,516.731 631.3768,500.849 C626.3071,520.1101 609.8317,523.9015 597.8051,507.3752 C588.8359,521.2795 573.0221,523.5738 565.1938,506.1863 C555.48,523.0286 539.8503,520.8869 531.9092,504.4152 C518.7229,523.0405 506.8897,523.9832 494.2554,503.8785 C479.9921,520.6864 468.8817,519.1783 458.3782,500.1178 C452.1049,513.0541 437.7689,517.9216 428.9452,502.7924 C417.4262,517.4426 404.2886,520.4452 393.2215,502.3 C373.525,518.5798 355.7743,515.605 349,488.981 C351.2199,488.5039 352.5227,489.6993 351.9568,491.9742 C336.2116,480.0054 335.2625,467.7712 350.9168,454.9212 C336.2336,443.4896 332.3595,433.341 350.4464,421.4488 C334.892,413.5374 334.9045,397.4641 348.7087,388.0263 C333.7846,377.9831 332.6286,365.8364 348.1551,355.2785 C330.2829,342.7366 328.2244,327.0562 348.8606,315.192 C332.498,300.5247 330.6505,279.7565 356,271.981 C358.3512,272.7582 359.2536,274.1606 357.6753,276.4206" fill="#BF360C" style="stroke:#181818;stroke-width:1;"/><text fill="#2C3E50" font-family="sans-serif" font-size="11" font-style="italic" lengthAdjust="spacing" textLength="28.3755" x="579.3123" y="287.1914">&#171;waf&#187;</text><text fill="#2C3E50" font-family="sans-serif" font-size="11" font-weight="bold" lengthAdjust="spacing" textLength="81.877" x="552.5615" y="299.9961">Cloudflare WAF</text></g><!--cluster cloudflare_workers--><g class="cluster" data-entity="cloudflare_workers" data-source-line="151" data-uid="ent0022" id="cluster_cloudflare_workers"><rect fill="#DD2C00" height="132" rx="5" ry="5" style="stroke:#181818;stroke-width:1;" width="417" x="381" y="331.981"/><text fill="#2C3E50" font-family="sans-serif" font-size="11" font-style="italic" lengthAdjust="spacing" textLength="50.3486" x="564.3257" y="344.1914">&#171;workers&#187;</text><text fill="#2C3E50" font-family="sans-serif" font-size="11" font-weight="bold" lengthAdjust="spacing" textLength="103.0015" x="537.9993" y="356.9961">Cloudflare Workers</text></g><!--cluster AWS Infrastructure--><g class="cluster" data-entity="AWS Infrastructure" data-source-line="174" data-uid="ent0038" id="cluster_AWS Infrastructure"><rect fill="#E74C3C" height="293" rx="5" ry="5" style="stroke:#181818;stroke-width:1;" width="492" x="110" y="653.481"/><text fill="#2C3E50" font-family="sans-serif" font-size="11" font-style="italic" lengthAdjust="spacing" textLength="29.7183" x="341.1409" y="665.6914">&#171;aws&#187;</text><text fill="#2C3E50" font-family="sans-serif" font-size="11" font-weight="bold" lengthAdjust="spacing" textLength="102.1152" x="304.9424" y="678.4961">AWS Infrastructure</text></g><!--cluster MongoDB Cloud--><g class="cluster" data-entity="MongoDB Cloud" data-source-line="180" data-uid="ent0043" id="cluster_MongoDB Cloud"><rect fill="#8E44AD" height="115" rx="5" ry="5" style="stroke:#181818;stroke-width:1;" width="128" x="436" y="807.481"/><text fill="#2C3E50" font-family="sans-serif" font-size="11" font-style="italic" lengthAdjust="spacing" textLength="58.3301" x="470.835" y="819.6914">&#171;mongodb&#187;</text><text fill="#2C3E50" font-family="sans-serif" font-size="11" font-weight="bold" lengthAdjust="spacing" textLength="84.353" x="457.8235" y="832.4961">MongoDB Cloud</text></g><!--cluster edgedb--><g class="cluster" data-entity="edgedb" data-source-line="193" data-uid="ent0050" id="cluster_edgedb"><path d="M6,563.981 C6,553.981 43.5,553.981 43.5,553.981 C43.5,553.981 81,553.981 81,563.981 L81,680.981 C81,690.981 43.5,690.981 43.5,690.981 C43.5,690.981 6,690.981 6,680.981 L6,563.981" fill="#27AE60" style="stroke:#181818;stroke-width:1;"/><path d="M6,563.981 C6,573.981 43.5,573.981 43.5,573.981 C43.5,573.981 81,573.981 81,563.981" fill="none" style="stroke:#181818;stroke-width:1;"/><text fill="#2C3E50" font-family="sans-serif" font-size="11" font-style="italic" lengthAdjust="spacing" textLength="47.5181" x="19.741" y="586.1914">&#171;edgedb&#187;</text><text fill="#2C3E50" font-family="sans-serif" font-size="11" font-weight="bold" lengthAdjust="spacing" textLength="40.0737" x="23.4631" y="598.9961">EdgeDB</text></g><!--entity customer_cloud_sdks--><g class="entity" data-entity="customer_cloud_sdks" data-source-line="127" data-uid="ent0003" id="entity_customer_cloud_sdks"><rect fill="#6BB6FF" height="41.6094" rx="5" ry="5" style="stroke:#181818;stroke-width:0.5;" width="170.9023" x="270.5" y="88.981"/><rect fill="#6BB6FF" height="41.6094" rx="5" ry="5" style="stroke:#181818;stroke-width:0.5;" width="170.9023" x="266.5" y="84.981"/><text fill="#2C3E50" font-family="sans-serif" font-size="11" font-style="italic" lengthAdjust="spacing" textLength="27.5752" x="338.1636" y="103.1914">&#171;sdk&#187;</text><text fill="#2C3E50" font-family="sans-serif" font-size="11" lengthAdjust="spacing" textLength="154.9023" x="274.5" y="115.9961">DevCycle Cloud Bucketing SDKs</text></g><!--entity customer_local_sdks--><g class="entity" data-entity="customer_local_sdks" data-source-line="128" data-uid="ent0004" id="entity_customer_local_sdks"><rect fill="#6BB6FF" height="41.6094" rx="5" ry="5" style="stroke:#181818;stroke-width:0.5;" width="167.6797" x="671" y="88.981"/><rect fill="#6BB6FF" height="41.6094" rx="5" ry="5" style="stroke:#181818;stroke-width:0.5;" width="167.6797" x="667" y="84.981"/><text fill="#2C3E50" font-family="sans-serif" font-size="11" font-style="italic" lengthAdjust="spacing" textLength="27.5752" x="737.0522" y="103.1914">&#171;sdk&#187;</text><text fill="#2C3E50" font-family="sans-serif" font-size="11" lengthAdjust="spacing" textLength="151.6797" x="675" y="115.9961">DevCycle Local Bucketing SDKs</text></g><!--entity customer_mobile_web_sdks--><g class="entity" data-entity="customer_mobile_web_sdks" data-source-line="129" data-uid="ent0005" id="entity_customer_mobile_web_sdks"><rect fill="#6BB6FF" height="41.6094" rx="5" ry="5" style="stroke:#181818;stroke-width:0.5;" width="150.9004" x="480.5" y="88.981"/><rect fill="#6BB6FF" height="41.6094" rx="5" ry="5" style="stroke:#181818;stroke-width:0.5;" width="150.9004" x="476.5" y="84.981"/><text fill="#2C3E50" font-family="sans-serif" font-size="11" font-style="italic" lengthAdjust="spacing" textLength="27.5752" x="538.1626" y="103.1914">&#171;sdk&#187;</text><text fill="#2C3E50" font-family="sans-serif" font-size="11" lengthAdjust="spacing" textLength="134.9004" x="484.5" y="115.9961">DevCycle Mobile/Web SDKs</text></g><!--entity management_api_clients--><g class="entity" data-entity="management_api_clients" data-source-line="130" data-uid="ent0006" id="entity_management_api_clients"><rect fill="#6BB6FF" height="41.6094" rx="5" ry="5" style="stroke:#181818;stroke-width:0.5;" width="137.1074" x="878.5" y="88.981"/><rect fill="#6BB6FF" height="41.6094" rx="5" ry="5" style="stroke:#181818;stroke-width:0.5;" width="137.1074" x="874.5" y="84.981"/><text fill="#2C3E50" font-family="sans-serif" font-size="11" font-style="italic" lengthAdjust="spacing" textLength="27.5752" x="929.2661" y="103.1914">&#171;sdk&#187;</text><text fill="#2C3E50" font-family="sans-serif" font-size="11" lengthAdjust="spacing" textLength="121.1074" x="882.5" y="115.9961">Management API Clients</text></g><!--entity github_actions--><g class="entity" data-entity="github_actions" data-source-line="134" data-uid="ent0008" id="entity_github_actions"><polygon fill="#7ED321" points="1498,89.981,1508,79.981,1611.7988,79.981,1611.7988,125.5903,1601.7988,135.5903,1498,135.5903,1498,89.981" style="stroke:#181818;stroke-width:0.5;"/><line style="stroke:#181818;stroke-width:0.5;" x1="1601.7988" x2="1611.7988" y1="89.981" y2="79.981"/><line style="stroke:#181818;stroke-width:0.5;" x1="1498" x2="1601.7988" y1="89.981" y2="89.981"/><line style="stroke:#181818;stroke-width:0.5;" x1="1601.7988" x2="1601.7988" y1="89.981" y2="135.5903"/><text fill="#2C3E50" font-family="sans-serif" font-size="11" font-style="italic" lengthAdjust="spacing" textLength="64.9741" x="1517.4124" y="110.1914">&#171;integration&#187;</text><text fill="#2C3E50" font-family="sans-serif" font-size="11" lengthAdjust="spacing" textLength="73.7988" x="1513" y="122.9961">GitHub Actions</text></g><!--entity gitlab_ci--><g class="entity" data-entity="gitlab_ci" data-source-line="135" data-uid="ent0009" id="entity_gitlab_ci"><polygon fill="#7ED321" points="1355.5,89.981,1365.5,79.981,1462.4741,79.981,1462.4741,125.5903,1452.4741,135.5903,1355.5,135.5903,1355.5,89.981" style="stroke:#181818;stroke-width:0.5;"/><line style="stroke:#181818;stroke-width:0.5;" x1="1452.4741" x2="1462.4741" y1="89.981" y2="79.981"/><line style="stroke:#181818;stroke-width:0.5;" x1="1355.5" x2="1452.4741" y1="89.981" y2="89.981"/><line style="stroke:#181818;stroke-width:0.5;" x1="1452.4741" x2="1452.4741" y1="89.981" y2="135.5903"/><text fill="#2C3E50" font-family="sans-serif" font-size="11" font-style="italic" lengthAdjust="spacing" textLength="64.9741" x="1371.5" y="110.1914">&#171;integration&#187;</text><text fill="#2C3E50" font-family="sans-serif" font-size="11" lengthAdjust="spacing" textLength="63.3306" x="1372.3218" y="122.9961">GitLab CI/CD</text></g><!--entity bitbucket_pipelines--><g class="entity" data-entity="bitbucket_pipelines" data-source-line="136" data-uid="ent0010" id="entity_bitbucket_pipelines"><polygon fill="#7ED321" points="1647.5,89.981,1657.5,79.981,1828.4321,79.981,1828.4321,125.5903,1818.4321,135.5903,1647.5,135.5903,1647.5,89.981" style="stroke:#181818;stroke-width:0.5;"/><line style="stroke:#181818;stroke-width:0.5;" x1="1818.4321" x2="1828.4321" y1="89.981" y2="79.981"/><line style="stroke:#181818;stroke-width:0.5;" x1="1647.5" x2="1818.4321" y1="89.981" y2="89.981"/><line style="stroke:#181818;stroke-width:0.5;" x1="1818.4321" x2="1818.4321" y1="89.981" y2="135.5903"/><text fill="#2C3E50" font-family="sans-serif" font-size="11" font-style="italic" lengthAdjust="spacing" textLength="64.9741" x="1700.479" y="110.1914">&#171;integration&#187;</text><text fill="#2C3E50" font-family="sans-serif" font-size="11" lengthAdjust="spacing" textLength="140.9321" x="1662.5" y="122.9961">Atlassian Bitbucket Pipelines</text></g><!--entity jira--><g class="entity" data-entity="jira" data-source-line="137" data-uid="ent0011" id="entity_jira"><polygon fill="#7ED321" points="1213.5,89.981,1223.5,79.981,1320.4741,79.981,1320.4741,125.5903,1310.4741,135.5903,1213.5,135.5903,1213.5,89.981" style="stroke:#181818;stroke-width:0.5;"/><line style="stroke:#181818;stroke-width:0.5;" x1="1310.4741" x2="1320.4741" y1="89.981" y2="79.981"/><line style="stroke:#181818;stroke-width:0.5;" x1="1213.5" x2="1310.4741" y1="89.981" y2="89.981"/><line style="stroke:#181818;stroke-width:0.5;" x1="1310.4741" x2="1310.4741" y1="89.981" y2="135.5903"/><text fill="#2C3E50" font-family="sans-serif" font-size="11" font-style="italic" lengthAdjust="spacing" textLength="64.9741" x="1229.5" y="110.1914">&#171;integration&#187;</text><text fill="#2C3E50" font-family="sans-serif" font-size="11" lengthAdjust="spacing" textLength="66.9292" x="1228.5225" y="122.9961">Atlassian JIRA</text></g><!--entity slack--><g class="entity" data-entity="slack" data-source-line="138" data-uid="ent0012" id="entity_slack"><polygon fill="#7ED321" points="1071.5,89.981,1081.5,79.981,1178.4741,79.981,1178.4741,125.5903,1168.4741,135.5903,1071.5,135.5903,1071.5,89.981" style="stroke:#181818;stroke-width:0.5;"/><line style="stroke:#181818;stroke-width:0.5;" x1="1168.4741" x2="1178.4741" y1="89.981" y2="79.981"/><line style="stroke:#181818;stroke-width:0.5;" x1="1071.5" x2="1168.4741" y1="89.981" y2="89.981"/><line style="stroke:#181818;stroke-width:0.5;" x1="1168.4741" x2="1168.4741" y1="89.981" y2="135.5903"/><text fill="#2C3E50" font-family="sans-serif" font-size="11" font-style="italic" lengthAdjust="spacing" textLength="64.9741" x="1087.5" y="110.1914">&#171;integration&#187;</text><text fill="#2C3E50" font-family="sans-serif" font-size="11" lengthAdjust="spacing" textLength="24.9434" x="1107.5154" y="122.9961">Slack</text></g><g class="entity" data-entity="event_api_in" data-source-line="142" data-uid="ent0014" id="entity_event_api_in"><text fill="#2C3E50" font-family="sans-serif" font-size="11" lengthAdjust="spacing" textLength="51.7397" x="702.1301" y="193.3867">Events API</text><rect fill="#F1F1F1" height="12" style="stroke:#181818;stroke-width:1.5;" width="12" x="722" y="207.981"/></g><g class="entity" data-entity="sdk_api_in" data-source-line="143" data-uid="ent0015" id="entity_sdk_api_in"><text fill="#2C3E50" font-family="sans-serif" font-size="11" lengthAdjust="spacing" textLength="39.2144" x="573.3928" y="193.3867">SDK API</text><rect fill="#F1F1F1" height="12" style="stroke:#181818;stroke-width:1.5;" width="12" x="587" y="207.981"/></g><g class="entity" data-entity="cloud_bucketing_api_in" data-source-line="144" data-uid="ent0016" id="entity_cloud_bucketing_api_in"><text fill="#2C3E50" font-family="sans-serif" font-size="11" lengthAdjust="spacing" textLength="99.7144" x="456.1428" y="193.3867">Cloud Bucketing API</text><rect fill="#F1F1F1" height="12" style="stroke:#181818;stroke-width:1.5;" width="12" x="500" y="207.981"/></g><g class="entity" data-entity="config_cdn_in" data-source-line="145" data-uid="ent0017" id="entity_config_cdn_in"><text fill="#2C3E50" font-family="sans-serif" font-size="11" lengthAdjust="spacing" textLength="56.6597" x="844.1702" y="193.3867">Config CDN</text><rect fill="#F1F1F1" height="12" style="stroke:#181818;stroke-width:1.5;" width="12" x="866.5" y="207.981"/></g><g class="entity" data-entity="management_api_cf_in" data-source-line="146" data-uid="ent0018" id="entity_management_api_cf_in"><text fill="#2C3E50" font-family="sans-serif" font-size="11" lengthAdjust="spacing" textLength="84.8687" x="1015.5657" y="193.3867">Management API</text><rect fill="#F1F1F1" height="12" style="stroke:#181818;stroke-width:1.5;" width="12" x="1052" y="207.981"/></g><g class="entity" data-entity="events_firehose_out" data-source-line="147" data-uid="ent0019" id="entity_events_firehose_out"><text fill="#2C3E50" font-family="sans-serif" font-size="11" lengthAdjust="spacing" textLength="77.188" x="151.406" y="570.1914">Events Firehose</text><rect fill="#F1F1F1" height="12" style="stroke:#181818;stroke-width:1.5;" width="12" x="184" y="547.981"/></g><g class="entity" data-entity="management_api_cf_out" data-source-line="148" data-uid="ent0020" id="entity_management_api_cf_out"><text fill="#2C3E50" font-family="sans-serif" font-size="11" lengthAdjust="spacing" textLength="84.8687" x="240.5657" y="570.1914">Management API</text><rect fill="#F1F1F1" height="12" style="stroke:#181818;stroke-width:1.5;" width="12" x="277" y="547.981"/></g><!--entity config_cdn--><g class="entity" data-entity="config_cdn" data-source-line="158" data-uid="ent0026" id="entity_config_cdn"><path d="M873,394.481 C873,384.481 927.1611,384.481 927.1611,384.481 C927.1611,384.481 981.3223,384.481 981.3223,394.481 L981.3223,429.0903 C981.3223,439.0903 927.1611,439.0903 927.1611,439.0903 C927.1611,439.0903 873,439.0903 873,429.0903 L873,394.481" fill="#FFA000" style="stroke:#181818;stroke-width:0.5;"/><path d="M873,394.481 C873,404.481 927.1611,404.481 927.1611,404.481 C927.1611,404.481 981.3223,404.481 981.3223,394.481" fill="none" style="stroke:#181818;stroke-width:0.5;"/><text fill="#2C3E50" font-family="sans-serif" font-size="11" font-style="italic" lengthAdjust="spacing" textLength="47.561" x="903.3806" y="418.6914">&#171;storage&#187;</text><text fill="#2C3E50" font-family="sans-serif" font-size="11" lengthAdjust="spacing" textLength="88.3223" x="883" y="431.4961">Config R2 Buckets</text></g><!--entity events_firehose--><g class="entity" data-entity="events_firehose" data-source-line="159" data-uid="ent0027" id="entity_events_firehose"><path d="M498.5,535.981 L585.688,535.981 C590.688,535.981 590.688,553.7857 590.688,553.7857 C590.688,553.7857 590.688,571.5903 585.688,571.5903 L498.5,571.5903 C493.5,571.5903 493.5,553.7857 493.5,553.7857 C493.5,553.7857 493.5,535.981 498.5,535.981" fill="#FF8F00" style="stroke:#181818;stroke-width:0.5;"/><path d="M585.688,535.981 C580.688,535.981 580.688,553.7857 580.688,553.7857 C580.688,571.5903 585.688,571.5903 585.688,571.5903" fill="none" style="stroke:#181818;stroke-width:0.5;"/><text fill="#2C3E50" font-family="sans-serif" font-size="11" font-style="italic" lengthAdjust="spacing" textLength="42.9204" x="515.6338" y="551.1914">&#171;events&#187;</text><text fill="#2C3E50" font-family="sans-serif" font-size="11" lengthAdjust="spacing" textLength="77.188" x="498.5" y="563.9961">Events Firehose</text></g><!--entity bucketing_api--><g class="entity" data-entity="bucketing_api" data-source-line="152" data-uid="ent0023" id="entity_bucketing_api"><rect fill="#FF5722" height="55.6094" rx="5" ry="5" style="stroke:#181818;stroke-width:0.5;" width="108.1055" x="424" y="383.981"/><path d="M460.0352,383.981 L460.0352,388.981 L453.0352,395.981 L424,395.981" fill="none" style="stroke:#181818;stroke-width:0.5;"/><text fill="#2C3E50" font-family="sans-serif" font-size="11" font-style="italic" lengthAdjust="spacing" textLength="25.8403" x="460.1326" y="414.1914">&#171;api&#187;</text><text fill="#2C3E50" font-family="sans-serif" font-size="11" lengthAdjust="spacing" textLength="68.1055" x="439" y="426.9961">Bucketing API</text></g><!--entity event_api--><g class="entity" data-entity="event_api" data-source-line="153" data-uid="ent0024" id="entity_event_api"><rect fill="#FF5722" height="55.6094" rx="5" ry="5" style="stroke:#181818;stroke-width:0.5;" width="91.7397" x="682" y="383.981"/><path d="M712.5799,383.981 L712.5799,388.981 L705.5799,395.981 L682,395.981" fill="none" style="stroke:#181818;stroke-width:0.5;"/><text fill="#2C3E50" font-family="sans-serif" font-size="11" font-style="italic" lengthAdjust="spacing" textLength="25.8403" x="709.9497" y="414.1914">&#171;api&#187;</text><text fill="#2C3E50" font-family="sans-serif" font-size="11" lengthAdjust="spacing" textLength="51.7397" x="697" y="426.9961">Events API</text></g><!--entity sdk_api--><g class="entity" data-entity="sdk_api" data-source-line="154" data-uid="ent0025" id="entity_sdk_api"><rect fill="#FF5722" height="55.6094" rx="5" ry="5" style="stroke:#181818;stroke-width:0.5;" width="79.2144" x="567.5" y="383.981"/><path d="M593.9048,383.981 L593.9048,388.981 L586.9048,395.981 L567.5,395.981" fill="none" style="stroke:#181818;stroke-width:0.5;"/><text fill="#2C3E50" font-family="sans-serif" font-size="11" font-style="italic" lengthAdjust="spacing" textLength="25.8403" x="589.187" y="414.1914">&#171;api&#187;</text><text fill="#2C3E50" font-family="sans-serif" font-size="11" lengthAdjust="spacing" textLength="39.2144" x="582.5" y="426.9961">SDK API</text></g><g class="entity" data-entity="events_firehose_in" data-source-line="175" data-uid="ent0039" id="entity_events_firehose_in"><text fill="#2C3E50" font-family="sans-serif" font-size="11" lengthAdjust="spacing" textLength="77.188" x="151.406" y="632.8867">Events Firehose</text><rect fill="#F1F1F1" height="12" style="stroke:#181818;stroke-width:1.5;" width="12" x="184" y="647.481"/></g><g class="entity" data-entity="management_api_in" data-source-line="176" data-uid="ent0040" id="entity_management_api_in"><text fill="#2C3E50" font-family="sans-serif" font-size="11" lengthAdjust="spacing" textLength="84.8687" x="267.5657" y="632.8867">Management API</text><rect fill="#F1F1F1" height="12" style="stroke:#181818;stroke-width:1.5;" width="12" x="304" y="647.481"/></g><!--entity events_firehose_aws--><g class="entity" data-entity="events_firehose_aws" data-source-line="177" data-uid="ent0041" id="entity_events_firehose_aws"><path d="M131.5,744.981 L220.9116,744.981 C225.9116,744.981 225.9116,762.7857 225.9116,762.7857 C225.9116,762.7857 225.9116,780.5903 220.9116,780.5903 L131.5,780.5903 C126.5,780.5903 126.5,762.7857 126.5,762.7857 C126.5,762.7857 126.5,744.981 131.5,744.981" fill="#E67E22" style="stroke:#181818;stroke-width:0.5;"/><path d="M220.9116,744.981 C215.9116,744.981 215.9116,762.7857 215.9116,762.7857 C215.9116,780.5903 220.9116,780.5903 220.9116,780.5903" fill="none" style="stroke:#181818;stroke-width:0.5;"/><text fill="#2C3E50" font-family="sans-serif" font-size="11" font-style="italic" lengthAdjust="spacing" textLength="44.1504" x="149.1306" y="760.1914">&#171;kinesis&#187;</text><text fill="#2C3E50" font-family="sans-serif" font-size="11" lengthAdjust="spacing" textLength="79.4116" x="131.5" y="772.9961">Kinesis Firehose</text></g><!--entity mgmt_api--><g class="entity" data-entity="mgmt_api" data-source-line="178" data-uid="ent0042" id="entity_mgmt_api"><polygon fill="#F39C12" points="414,744.981,424,734.981,586.2417,734.981,586.2417,780.5903,576.2417,790.5903,414,790.5903,414,744.981" style="stroke:#181818;stroke-width:0.5;"/><line style="stroke:#181818;stroke-width:0.5;" x1="576.2417" x2="586.2417" y1="744.981" y2="734.981"/><line style="stroke:#181818;stroke-width:0.5;" x1="414" x2="576.2417" y1="744.981" y2="744.981"/><line style="stroke:#181818;stroke-width:0.5;" x1="576.2417" x2="576.2417" y1="744.981" y2="790.5903"/><text fill="#2C3E50" font-family="sans-serif" font-size="11" font-style="italic" lengthAdjust="spacing" textLength="76.2534" x="456.9941" y="765.1914">&#171;management&#187;</text><text fill="#2C3E50" font-family="sans-serif" font-size="11" lengthAdjust="spacing" textLength="132.2417" x="429" y="777.9961">DevCycle Management API</text></g><!--entity snowflake--><g class="entity" data-entity="snowflake" data-source-line="184" data-uid="ent0045" id="entity_snowflake"><polygon fill="#3498DB" points="126.5,860.981,136.5,850.981,301.5239,850.981,301.5239,896.5903,291.5239,906.5903,126.5,906.5903,126.5,860.981" style="stroke:#181818;stroke-width:0.5;"/><line style="stroke:#181818;stroke-width:0.5;" x1="291.5239" x2="301.5239" y1="860.981" y2="850.981"/><line style="stroke:#181818;stroke-width:0.5;" x1="126.5" x2="291.5239" y1="860.981" y2="860.981"/><line style="stroke:#181818;stroke-width:0.5;" x1="291.5239" x2="291.5239" y1="860.981" y2="906.5903"/><text fill="#2C3E50" font-family="sans-serif" font-size="11" font-style="italic" lengthAdjust="spacing" textLength="60.355" x="178.8345" y="881.1914">&#171;snowflake&#187;</text><text fill="#2C3E50" font-family="sans-serif" font-size="11" lengthAdjust="spacing" textLength="135.0239" x="141.5" y="893.9961">Snowflake Data Warehouse</text></g><!--entity mongodb_db--><g class="entity" data-entity="mongodb_db" data-source-line="181" data-uid="ent0044" id="entity_mongodb_db"><path d="M452,861.481 C452,851.481 499.8608,851.481 499.8608,851.481 C499.8608,851.481 547.7217,851.481 547.7217,861.481 L547.7217,896.0903 C547.7217,906.0903 499.8608,906.0903 499.8608,906.0903 C499.8608,906.0903 452,906.0903 452,896.0903 L452,861.481" fill="#9B59B6" style="stroke:#181818;stroke-width:0.5;"/><path d="M452,861.481 C452,871.481 499.8608,871.481 499.8608,871.481 C499.8608,871.481 547.7217,871.481 547.7217,861.481" fill="none" style="stroke:#181818;stroke-width:0.5;"/><text fill="#2C3E50" font-family="sans-serif" font-size="11" font-style="italic" lengthAdjust="spacing" textLength="45.4395" x="477.1411" y="885.6914">&#171;mongo&#187;</text><text fill="#2C3E50" font-family="sans-serif" font-size="11" lengthAdjust="spacing" textLength="75.7217" x="462" y="898.4961">MongoDB Atlas</text></g><g class="entity" data-entity="edgedb_in" data-source-line="194" data-uid="ent0051" id="entity_edgedb_in"><text fill="#2C3E50" font-family="sans-serif" font-size="11" lengthAdjust="spacing" textLength="78.7402" x="23.6299" y="533.3867">Update/Queries</text><rect fill="#F1F1F1" height="12" style="stroke:#181818;stroke-width:1.5;" width="12" x="57" y="547.981"/></g><!--link config_cdn_in to config_cdn--><g class="link" data-entity-1="config_cdn_in" data-entity-2="config_cdn" data-source-line="162" data-uid="lnk28" id="link_config_cdn_in_config_cdn"><path d="M874.44,220.221 C880.83,243.421 905.2272,331.9363 918.0972,378.6763" fill="none" id="config_cdn_in-to-config_cdn" style="stroke:#2C3E50;stroke-width:2;"/><polygon fill="#2C3E50" points="919.69,384.461,921.1572,374.722,918.3626,379.6404,913.4443,376.8458,919.69,384.461" style="stroke:#2C3E50;stroke-width:2;"/></g><!--link event_api_in to event_api--><g class="link" data-entity-1="event_api_in" data-entity-2="event_api" data-source-line="163" data-uid="lnk29" id="link_event_api_in_event_api"><path d="M728,220.221 C728,243.301 728,330.731 728,377.721" fill="none" id="event_api_in-to-event_api" style="stroke:#2C3E50;stroke-width:2;"/><polygon fill="#2C3E50" points="728,383.721,732,374.721,728,378.721,724,374.721,728,383.721" style="stroke:#2C3E50;stroke-width:2;"/></g><!--link sdk_api_in to sdk_api--><g class="link" data-entity-1="sdk_api_in" data-entity-2="sdk_api" data-source-line="164" data-uid="lnk30" id="link_sdk_api_in_sdk_api"><path d="M593.37,220.221 C595.02,243.301 601.2733,330.7462 604.6233,377.7362" fill="none" id="sdk_api_in-to-sdk_api" style="stroke:#2C3E50;stroke-width:2;"/><polygon fill="#2C3E50" points="605.05,383.721,608.3999,374.4593,604.6944,378.7336,600.4201,375.0282,605.05,383.721" style="stroke:#2C3E50;stroke-width:2;"/></g><!--link cloud_bucketing_api_in to bucketing_api--><g class="link" data-entity-1="cloud_bucketing_api_in" data-entity-2="bucketing_api" data-source-line="165" data-uid="lnk31" id="link_cloud_bucketing_api_in_bucketing_api"><path d="M505.25,220.221 C501.95,243.301 489.4594,330.7914 482.7394,377.7814" fill="none" id="cloud_bucketing_api_in-to-bucketing_api" style="stroke:#2C3E50;stroke-width:2;"/><polygon fill="#2C3E50" points="481.89,383.721,487.1238,375.3779,482.5978,378.7713,479.2044,374.2453,481.89,383.721" style="stroke:#2C3E50;stroke-width:2;"/></g><!--link management_api_cf_in to cf_waf--><g class="link" data-entity-1="management_api_cf_in" data-entity-2="cf_waf" data-source-line="166" data-uid="lnk32" id="link_management_api_cf_in_cf_waf"><path d="M1051.82,215.761 C1032.14,218.221 969.18,226.051 917,231.981 C900.35,233.871 853.35,227.651 842,239.981 C835.665,246.8635 830.8284,254.6413 827.2175,262.9899 C827.1046,263.2508 829.3239,257.9835 829.2134,258.2455" fill="none" id="management_api_cf_in-to-cf_waf" style="stroke:#2C3E50;stroke-width:2;"/><polygon fill="#2C3E50" points="826.8825,263.7742,834.0647,257.035,828.8249,259.1669,826.693,253.9272,826.8825,263.7742" style="stroke:#2C3E50;stroke-width:2;"/></g><!--link cf_waf to management_api_cf_out--><g class="link" data-entity-1="cf_waf" data-entity-2="management_api_cf_out" data-source-line="167" data-uid="lnk33" id="link_cf_waf_management_api_cf_out"><path d="M807.0586,504.1582 C806.9333,504.3147 806.8075,504.4707 806.6812,504.6263 C806.4286,504.9374 806.174,505.2467 805.9174,505.5541 C805.4041,506.169 804.8828,506.7763 804.3532,507.3755 C800.1167,512.1697 795.3538,516.451 790,519.981 C767.87,534.571 337.84,518.751 313,527.981 C302.32,531.951 296.6952,536.9592 291.3652,543.0392" fill="none" id="cf_waf-to-management_api_cf_out" style="stroke:#2C3E50;stroke-width:2;"/><polygon fill="#2C3E50" points="287.41,547.551,296.3507,543.4201,290.706,543.7912,290.335,538.1465,287.41,547.551" style="stroke:#2C3E50;stroke-width:2;"/></g><!--link sdk_api to events_firehose--><g class="link" data-entity-1="sdk_api" data-entity-2="events_firehose" data-source-line="168" data-uid="lnk34" id="link_sdk_api_events_firehose"><path d="M594.31,440.311 C581.16,468.631 563.5368,506.599 552.4768,530.419" fill="none" id="sdk_api-to-events_firehose" style="stroke:#2C3E50;stroke-width:2;"/><polygon fill="#2C3E50" points="549.95,535.861,557.3682,529.3825,552.0557,531.326,550.1122,526.0135,549.95,535.861" style="stroke:#2C3E50;stroke-width:2;"/></g><!--link bucketing_api to events_firehose--><g class="link" data-entity-1="bucketing_api" data-entity-2="events_firehose" data-source-line="169" data-uid="lnk35" id="link_bucketing_api_events_firehose"><path d="M490.49,440.311 C503.44,468.631 520.7953,506.5842 531.6853,530.4042" fill="none" id="bucketing_api-to-events_firehose" style="stroke:#2C3E50;stroke-width:2;"/><polygon fill="#2C3E50" points="534.18,535.861,534.0758,526.0127,532.1011,531.3137,526.8001,529.339,534.18,535.861" style="stroke:#2C3E50;stroke-width:2;"/></g><!--link event_api to events_firehose--><g class="link" data-entity-1="event_api" data-entity-2="events_firehose" data-source-line="170" data-uid="lnk36" id="link_event_api_events_firehose"><path d="M718.47,440.351 C708.57,464.781 690.75,499.731 664,519.981 C642.92,535.941 620.5577,543.1328 596.5477,547.3928" fill="none" id="event_api-to-events_firehose" style="stroke:#2C3E50;stroke-width:2;"/><polygon fill="#2C3E50" points="590.64,548.441,600.2004,550.8072,595.5631,547.5675,598.8028,542.9302,590.64,548.441" style="stroke:#2C3E50;stroke-width:2;"/></g><!--link events_firehose to events_firehose_out--><g class="link" data-entity-1="events_firehose" data-entity-2="events_firehose_out" data-source-line="171" data-uid="lnk37" id="link_events_firehose_events_firehose_out"><path d="M510.92,535.941 C499.29,530.451 485.69,525.471 472.5,523.981 C447.77,521.191 273.23,521.191 248.5,523.981 C240.57,524.871 238.36,524.911 231,527.981 C217.62,533.561 208.4883,539.7522 200.7983,545.5922" fill="none" id="events_firehose-to-events_firehose_out" style="stroke:#2C3E50;stroke-width:2;"/><polygon fill="#2C3E50" points="196.02,549.221,205.6066,546.9634,200.0019,546.197,200.7683,540.5923,196.02,549.221" style="stroke:#2C3E50;stroke-width:2;"/></g><!--link events_firehose_in to events_firehose_aws--><g class="link" data-entity-1="events_firehose_in" data-entity-2="events_firehose_aws" data-source-line="187" data-uid="lnk46" id="link_events_firehose_in_events_firehose_aws"><path d="M189.32,659.661 C187.35,674.851 182.2864,713.7614 179.0264,738.7414" fill="none" id="events_firehose_in-to-events_firehose_aws" style="stroke:#2C3E50;stroke-width:2;"/><polygon fill="#2C3E50" points="178.25,744.691,183.381,736.2843,178.897,739.733,175.4483,735.249,178.25,744.691" style="stroke:#2C3E50;stroke-width:2;"/></g><!--link events_firehose_aws to snowflake--><g class="link" data-entity-1="events_firehose_aws" data-entity-2="snowflake" data-source-line="188" data-uid="lnk47" id="link_events_firehose_aws_snowflake"><path d="M181.77,781.291 C187.92,799.731 195.8334,823.4786 203.0134,845.0286" fill="none" id="events_firehose_aws-to-snowflake" style="stroke:#2C3E50;stroke-width:2;"/><polygon fill="#2C3E50" points="204.91,850.721,205.86,840.918,203.3295,845.9773,198.2702,843.4468,204.91,850.721" style="stroke:#2C3E50;stroke-width:2;"/></g><!--link management_api_in to mgmt_api--><g class="link" data-entity-1="management_api_in" data-entity-2="mgmt_api" data-source-line="189" data-uid="lnk48" id="link_management_api_in_mgmt_api"><path d="M316.32,658.061 C337.12,669.821 399.5582,705.1459 446.6682,731.8059" fill="none" id="management_api_in-to-mgmt_api" style="stroke:#2C3E50;stroke-width:2;"/><polygon fill="#2C3E50" points="451.89,734.761,446.0273,726.8471,447.5385,732.2984,442.0872,733.8096,451.89,734.761" style="stroke:#2C3E50;stroke-width:2;"/></g><!--link mgmt_api to mongodb_db--><g class="link" data-entity-1="mgmt_api" data-entity-2="mongodb_db" data-source-line="190" data-uid="lnk49" id="link_mgmt_api_mongodb_db"><path d="M500,791.001 C500,809.171 500,827.031 500,845.161" fill="none" id="mgmt_api-to-mongodb_db" style="stroke:#2C3E50;stroke-width:2;"/><polygon fill="#2C3E50" points="500,851.161,504,842.161,500,846.161,496,842.161,500,851.161" style="stroke:#2C3E50;stroke-width:2;"/></g><!--link customer_cloud_sdks to cloud_bucketing_api_in--><g class="link" data-entity-1="customer_cloud_sdks" data-entity-2="cloud_bucketing_api_in" data-source-line="198" data-uid="lnk52" id="link_customer_cloud_sdks_cloud_bucketing_api_in"><path d="M386.24,131.041 C423.18,156.321 476.1182,192.5329 494.9282,205.4029" fill="none" id="customer_cloud_sdks-to-cloud_bucketing_api_in" style="stroke:#2C3E50;stroke-width:2;"/><polygon fill="#2C3E50" points="499.88,208.791,494.711,200.4076,495.7535,205.9676,490.1935,207.01,499.88,208.791" style="stroke:#2C3E50;stroke-width:2;"/></g><!--link customer_mobile_web_sdks to sdk_api_in--><g class="link" data-entity-1="customer_mobile_web_sdks" data-entity-2="sdk_api_in" data-source-line="199" data-uid="lnk53" id="link_customer_mobile_web_sdks_sdk_api_in"><path d="M562.27,131.041 C571.48,155.601 583.6624,188.0733 588.8924,202.0133" fill="none" id="customer_mobile_web_sdks-to-sdk_api_in" style="stroke:#2C3E50;stroke-width:2;"/><polygon fill="#2C3E50" points="591,207.631,591.5837,197.7994,589.2436,202.9496,584.0935,200.6096,591,207.631" style="stroke:#2C3E50;stroke-width:2;"/></g><!--link customer_local_sdks to config_cdn_in--><g class="link" data-entity-1="customer_local_sdks" data-entity-2="config_cdn_in" data-source-line="200" data-uid="lnk54" id="link_customer_local_sdks_config_cdn_in"><path d="M778.45,131.041 C806.79,155.601 846.2164,189.7607 862.2964,203.7007" fill="none" id="customer_local_sdks-to-config_cdn_in" style="stroke:#2C3E50;stroke-width:2;"/><polygon fill="#2C3E50" points="866.83,207.631,862.6498,198.7132,863.052,204.3558,857.4095,204.758,866.83,207.631" style="stroke:#2C3E50;stroke-width:2;"/></g><!--link customer_local_sdks to event_api_in--><g class="link" data-entity-1="customer_local_sdks" data-entity-2="event_api_in" data-source-line="201" data-uid="lnk55" id="link_customer_local_sdks_event_api_in"><path d="M747.7,131.041 C741.79,155.601 734.0459,187.858 730.6859,201.798" fill="none" id="customer_local_sdks-to-event_api_in" style="stroke:#2C3E50;stroke-width:2;"/><polygon fill="#2C3E50" points="729.28,207.631,735.2775,199.8188,730.4516,202.7702,727.5003,197.9443,729.28,207.631" style="stroke:#2C3E50;stroke-width:2;"/></g><!--link management_api_clients to management_api_cf_in--><g class="link" data-entity-1="management_api_clients" data-entity-2="management_api_cf_in" data-source-line="204" data-uid="lnk56" id="link_management_api_clients_management_api_cf_in"><path d="M968.96,131.041 C995.66,155.601 1032.6247,189.6283 1047.7747,203.5683" fill="none" id="management_api_clients-to-management_api_cf_in" style="stroke:#2C3E50;stroke-width:2;"/><polygon fill="#2C3E50" points="1052.19,207.631,1048.2755,198.5935,1048.5106,204.2454,1042.8586,204.4805,1052.19,207.631" style="stroke:#2C3E50;stroke-width:2;"/></g><!--link github_actions to management_api_cf_in--><g class="link" data-entity-1="github_actions" data-entity-2="management_api_cf_in" data-source-line="207" data-uid="lnk57" id="link_github_actions_management_api_cf_in"><path d="M1522.54,135.981 C1509.98,145.061 1495.03,154.311 1480,159.981 C1398.66,190.691 1115.8383,209.3765 1070.1083,212.2365" fill="none" id="github_actions-to-management_api_cf_in" style="stroke:#2C3E50;stroke-width:2;"/><polygon fill="#2C3E50" points="1064.12,212.611,1073.3521,216.0414,1069.1103,212.2989,1072.8528,208.057,1064.12,212.611" style="stroke:#2C3E50;stroke-width:2;"/></g><!--link gitlab_ci to management_api_cf_in--><g class="link" data-entity-1="gitlab_ci" data-entity-2="management_api_cf_in" data-source-line="208" data-uid="lnk58" id="link_gitlab_ci_management_api_cf_in"><path d="M1377.58,136.051 C1365.83,144.911 1351.95,154.001 1338,159.981 C1235.23,204.041 1101.6858,211.3868 1070.3958,212.5568" fill="none" id="gitlab_ci-to-management_api_cf_in" style="stroke:#2C3E50;stroke-width:2;"/><polygon fill="#2C3E50" points="1064.4,212.781,1073.5432,216.4419,1069.3965,212.5941,1073.2443,208.4475,1064.4,212.781" style="stroke:#2C3E50;stroke-width:2;"/></g><!--link bitbucket_pipelines to management_api_cf_in--><g class="link" data-entity-1="bitbucket_pipelines" data-entity-2="management_api_cf_in" data-source-line="209" data-uid="lnk59" id="link_bitbucket_pipelines_management_api_cf_in"><path d="M1689.92,136.091 C1671.69,145.181 1650.4,154.401 1630,159.981 C1515.28,191.331 1123.8438,209.9991 1070.0438,212.4391" fill="none" id="bitbucket_pipelines-to-management_api_cf_in" style="stroke:#2C3E50;stroke-width:2;"/><polygon fill="#2C3E50" points="1064.05,212.711,1073.222,216.2991,1069.0449,212.4844,1072.8595,208.3073,1064.05,212.711" style="stroke:#2C3E50;stroke-width:2;"/></g><!--link events_firehose_out to events_firehose_in--><g class="link" data-entity-1="events_firehose_out" data-entity-2="events_firehose_in" data-source-line="212" data-uid="lnk60" id="link_events_firehose_out_events_firehose_in"><path d="M190,560.221 C190,577.151 190,624.251 190,641.211" fill="none" id="events_firehose_out-to-events_firehose_in" style="stroke:#2C3E50;stroke-width:2;"/><polygon fill="#2C3E50" points="190,647.211,194,638.211,190,642.211,186,638.211,190,647.211" style="stroke:#2C3E50;stroke-width:2;"/></g><!--link management_api_cf_out to management_api_in--><g class="link" data-entity-1="management_api_cf_out" data-entity-2="management_api_in" data-source-line="213" data-uid="lnk61" id="link_management_api_cf_out_management_api_in"><path d="M284.45,560.221 C289.14,577.151 302.2377,624.4689 306.9377,641.4289" fill="none" id="management_api_cf_out-to-management_api_in" style="stroke:#2C3E50;stroke-width:2;"/><polygon fill="#2C3E50" points="308.54,647.211,309.9912,637.4696,307.2047,642.3926,302.2818,639.6061,308.54,647.211" style="stroke:#2C3E50;stroke-width:2;"/></g><!--link cloudflare_workers to edgedb_in--><g class="link" data-entity-1="cloudflare_workers" data-entity-2="edgedb_in" data-source-line="216" data-uid="lnk62" id="link_cloudflare_workers_edgedb_in"><path d="M380.4348,416.6621 C380.2321,416.7491 380.026,416.8376 379.8167,416.9275 C379.398,417.1073 378.9661,417.2927 378.5213,417.4837 C377.6316,417.8657 376.69,418.27 375.6986,418.6957 C367.7666,422.1016 356.6373,426.8807 343.2728,432.6197 C316.5438,444.0978 280.8738,459.416 243.96,475.2685 C170.1325,506.9735 96.843,538.4481 74.643,547.9831" fill="none" id="cloudflare_workers-to-edgedb_in" style="stroke:#2C3E50;stroke-width:2;"/><polygon fill="#2C3E50" points="69.13,550.351,78.9781,550.4745,73.7242,548.3778,75.8209,543.1238,69.13,550.351" style="stroke:#2C3E50;stroke-width:2;"/></g><!--SRC=[bLZ9SkCs4BthAr3EmIT7gxMa75V9iZtZZBTOddBbn091a4P44GgNKPoK_psDXIH8WfIYWoq2lQ7nkljHf-zfkaj-wVTt8OxIR1l-JFYsxz5To3-sD4hFF8Q366zxlMJ3eXs6hyZ5P1F4F8ky5GzvZ7xov_x2nuQ4temZ6gFXmDZmg8-pCBtbKQfrHsHCprj4rkmVYeR3NkyK_NhW0oBhrp_kxnw_eDNzShs-MH-Z13AhB4dv5kAyY_mO9scSaJIBALgd7o6B0YCm4lBCkxWWMk7o4ltRG_2vggTZWXS3EkfzcZaZF0mfIHcFaekBnDkqQqzTT-hxGliKtVoTqZZ28GINKhW6gTyU6jNYxSRF1sG-crT3YxX7BovOwQ5TVKQzyMYeObi9dtw8hRcAuQmu2a8mJ0gvThk-FtN7vzMmTZnEMGJwlYE-TYdFoMJKLEPPMcWxyD1kmPjFniEQUvtIFVRRzLn_F1sGgfvnyZsFDpHEElnw8p8OLFK1X5lGnJlMTUBpsQXsOW-dsCK9g08yOnnqPXiFwcx_ocW6klG7r7pIcMjVgPwYvTlwSD4OwS3x3iDqDY5ZOaS0A1w001cC5oFNUY9ufWdhyZoTqNeoLKbiSGHv55sm8o7Z1HcEMY6mvL70FRTTVqud4-orNQLKRrTUkESBTseBFOdu7cfkqu62yMGnzrpTPxo0NbzPhgyCXO98rq56Cqod0_i52jq3DpYYXCo67Jqpe3ockuxEDlUcSqyTvuXXiNnvUNhBHyPHewAC2ySnt-iugbDCh3HdMxwgnfbwVdrdP0F8J51zK8GO5fNnfN3Kj2MNxMxaLitsaVbOVRrxlLczVd-vGQkdX-Udnvl7r-E6g6oLwAHbafuWdA1yQ3fCx27B53Kk6vrSqn-h3n9IDMJGLKOs590KeFNrjwHgK3ftOA8cI0_M3dFtdC0mxJ8N2ebZpJrmbuMq_qPTYwMjt7Jsr3rWxg5eCsZvV0T7Pg87IsDb1t9W8C1PvLPXwhF8lPKed20B9H3z0PryOUdNp4LBeWN1Ly3Izynri0whnWYgklVOHQkx_kewrmonwn3MeRHC1QuPZj0LIrrv0UYPxMWeshEqukRhpYvVFyhURtSlIsdWJoQHrQQn3g5bIC54V6j8GZABnWrWBbYBoAA5mwZU1fcN4rFSdBGj1wYyBDWqo4j51y1IAC1D7XAl5q6kgg3lvki7pV38Pm5QNJygRVde42_gKgg2qmfAlqqVE5UHdriMqtUUq399YUFhDK7EK8sgLOqS5ONDYgestPzAmlgsl5Kvy1qWUAXAyyJ7YWJqfWXTcNovx6YUXvgCB_z8KeTEcbTOkJoaQPzDjGrcNJeMc3N4Ftlgh_oNJ_i2AoyZ3Rka1Xbaq4ofAjdMKRUDIfQfl9xAfYMxbv5hy1Nf5gbRfWdNixDBOqKAL2fFx1SBSjkeCx6f7qjyDEj8Y5KMfR0L_J8SYILbKC5Ah5fXQWPKXbgcIEvNeT4cLGAXKy98lqLEnbJjVqroB_gWIU5h3R2pm6M3A6dy_-mmDcsDjs-AtNTx1rLal0WOCw6Sv9OWWcrUOUQBWCAiaQa7mT61F4liYYJLEN-rid9nES2K8oNlU2ug6BzPbNfyvOmUNOCjz8R5uJ9zueBkemhrRzINkDLwOLdkoWOHIA9LN2HN5bJkrbObscQUKYMIvrVk53aGE2opfLvCrAtA5n3KU1F9SVHz1sgq_tj6OwOfXP9K-37UGVJl5pbTJNbRtx6HJ5dgreRHQwL-HiEfo1baizhGkgJCFYVEKQEFHlmeVOStfE3TFDukvgdQxhMGItlNKhuAcidCtwCWWRKWkXtNc6Qhmv9NjehOI6FN0Oo08EfwETXuYQqMM3DvVY7SW7xDhoOHmhz2Tyz29QJN7Bsz_m00]--></g></svg>