<svg xmlns="http://www.w3.org/2000/svg" xmlns:xlink="http://www.w3.org/1999/xlink" contentStyleType="text/css" data-diagram-type="DESCRIPTION" height="969px" preserveAspectRatio="none" style="width:1768px;height:969px;background:#F8F9FA;" version="1.1" viewBox="0 0 1768 969" width="1768px" zoomAndPan="magnify"><defs/><g><rect fill="#F8F9FA" height="969" style="stroke:none;stroke-width:1;" width="1768" x="0" y="0"/><!--cluster customer_infra--><g class="cluster" data-entity="customer_infra" data-source-line="126" data-uid="ent0002" id="cluster_customer_infra"><path d="M367.2523,49.7587 C377.5925,32.582 396.2642,26.7627 407.7903,48.524 C422.1254,28.3751 437.8857,26.4116 454.5964,45.7049 C468.1495,27.4064 484.1517,23.9351 498.0463,45.3311 C513.1589,25.3547 526.3381,26.3939 539.0125,47.7478 C547.763,25.3199 564.9062,25.1149 579.2641,42.0076 C592.1844,19.5026 614.2919,20.4121 626.0922,43.1665 C636.9344,21.7547 651.5535,25.6177 664.8194,40.5864 C679.2773,15.9051 693.9982,17.0572 711.189,37.7963 C725.4117,16.6472 744.6994,24.2835 754.1088,42.9809 C764.9494,25.7727 784.9527,23.1068 796.5253,42.1238 C810.3923,22.7305 832.9978,21.6391 843.2501,45.9853 C858.0212,27.8544 873.3536,29.0962 886.0347,48.3756 C899.0536,24.6509 919.066,24.5579 932.1908,48.2726 C946.4456,26.4672 967.2382,32.9259 976,53.898 C976.768,53.1259 977.3381,53.3562 977.8204,54.2167 C987.5491,59.8969 989.9719,66.6187 980.9913,75.135 C990.9315,78.9893 993.0939,86.6028 985.2472,94.3888 C992.0692,100.412 993.4102,107.7592 983.5241,112.1625 C992.2681,125.6508 985.725,138.3645 969,136.898 C971.5417,136.7868 972.5337,138.6763 971.3265,140.8002 C960.0193,158.2876 943.6416,159.6739 931.8481,141.3362 C917.9051,163.3931 899.2769,167.4304 883.3082,143.4732 C871.7256,162.1528 857.189,158.9948 845.4077,143.6949 C829.5506,163.4 815.9069,165.934 800.7414,142.9709 C790.6179,164.1285 772.279,165.3563 758.4865,146.883 C744.8337,170.8284 728.2919,169 711.7889,149.9808 C700.6916,167.0663 681.895,169.2373 671.7919,148.9178 C656.043,170.996 641.4323,173.6183 623.2077,151.6486 C604.8885,171.3286 587.6088,168.631 577.6797,143.1839 C568.2666,166.4626 554.365,164.7371 538.9323,149.1917 C522.85,172.4129 508.5807,167.9923 494.7506,146.944 C478.3651,168.1955 463.4584,163.0118 449.9638,143.7483 C436.7799,161.8341 420.4048,159.9334 408.4661,142.3016 C384.6351,164.5675 364.1775,164.216 353,129.898 C355.8869,129.5966 356.2794,131.0951 355.8072,133.4491 C344.386,129.7949 342.7988,121.5473 351.1687,113.3302 C341.5043,108.7503 338.5404,101.5898 347.3299,93.4471 C341.3202,84.6734 342.5148,78.445 353.2128,74.9994 C340.0318,62.0934 346.2443,53.2981 360,46.898 C363.9406,44.0152 366.3611,44.9103 367.2523,49.7587" fill="#4A90E2" style="stroke:#181818;stroke-width:1;"/><text fill="#2C3E50" font-family="sans-serif" font-size="11" font-style="italic" lengthAdjust="spacing" textLength="57.4492" x="635.7754" y="62.1085">&#171;customer&#187;</text><text fill="#2C3E50" font-family="sans-serif" font-size="11" font-weight="bold" lengthAdjust="spacing" textLength="130.8774" x="599.0613" y="74.9132">Customer Infrastructure</text></g><!--cluster External Integrations--><g class="cluster" data-entity="External Integrations" data-source-line="133" data-uid="ent0007" id="cluster_External Integrations"><path d="M1031.5874,49.8961 C1044.4834,25.7088 1060.0692,27.2643 1077.0268,45.5509 C1088.1782,23.7068 1113.5086,20.527 1128.2417,41.2406 C1143.4332,23.9688 1167.166,21.4728 1175.8343,48.2832 C1188.3317,20.2144 1212.0583,17.9842 1228.8181,44.1167 C1245.3314,13.283 1263.8845,19.3307 1283.666,40.6817 C1296.4076,19.4737 1321.9029,18.9265 1335.1317,40.0899 C1353.8647,18.0581 1370.2362,19.7143 1384.1266,45.0941 C1396.1884,19.4966 1414.0154,20.1039 1431.5424,39.3102 C1448.9913,16.2262 1474.8597,17.8812 1489.661,42.5335 C1505.6766,17.9822 1527.6327,26.6286 1537.5556,48.7815 C1551.4269,29.1018 1566.3614,25.9776 1583.0417,45.5243 C1598.6344,21.9484 1625.3742,19.0723 1641.14,45.3225 C1658.0852,22.3126 1678.2589,20.199 1693.3995,47.2078 C1708.6668,27.4007 1728.1834,26.9919 1742,48.898 C1742.4286,49.1554 1742.4737,49.4318 1742.1534,49.8146 C1754.4265,53.5727 1756.8793,62.9414 1747.0329,71.6439 C1758.7117,76.1608 1761.1477,87.8979 1751.245,96.1277 C1760.0871,103.2095 1757.5052,108.204 1749.3426,113.4145 C1757.1555,129.6842 1755.1116,139.6894 1735,141.898 C1738.317,139.2212 1741.3133,139.682 1742.2194,144.288 C1726.4758,172.1426 1710.0577,174.312 1690.125,148.3425 C1675.0747,177.3837 1650.9566,170.8395 1636.047,148.1953 C1621.2166,170.6882 1605.9016,174.8593 1589.0037,150.2608 C1575.3691,177.3391 1548.4478,180.7312 1532.3754,152.7689 C1516.349,175.682 1498.4087,173.4313 1485.9203,149.277 C1473.3252,176.7902 1457.8298,174.8661 1438.3114,156.4542 C1424.9174,179.8004 1399.3846,183.4955 1387.0046,155.442 C1365.7115,180.814 1348.4363,182.791 1331.3739,151.3028 C1314.6157,176.007 1297.3511,169.8531 1282.6184,149.129 C1268.1465,167.7042 1247.2875,170.7264 1235.4937,146.2008 C1217.9581,171.0127 1200.8865,173.1804 1182.5273,147.0573 C1170.1,170.9942 1147.7553,172.4454 1133.94,148.4647 C1120.0436,172.3628 1093.9011,173.3587 1081.7742,146.641 C1058.21,178.2886 1028.5815,164.7661 1016,134.898 C1017.5383,134.9813 1017.8209,136.1279 1017.1777,137.2867 C1004.1398,131.7652 1004.0885,123.5207 1012.3572,113.6533 C1000.6387,109.4985 1001.3266,103.1596 1007.9804,94.7507 C999.0479,85.8529 1003.744,76.2073 1014.3265,73.0044 C1002.4372,59.6677 1007.4819,47.5927 1023,41.898 C1029.7751,40.2954 1032.5138,43.2298 1031.5874,49.8961" fill="#50C878" style="stroke:#181818;stroke-width:1;"/><text fill="#2C3E50" font-family="sans-serif" font-size="11" font-style="italic" lengthAdjust="spacing" textLength="51.2617" x="1353.3691" y="57.1085">&#171;external&#187;</text><text fill="#2C3E50" font-family="sans-serif" font-size="11" font-weight="bold" lengthAdjust="spacing" textLength="113.3086" x="1322.3457" y="69.9132">External Integrations</text></g><!--cluster Cloudflare Edge Layer--><g class="cluster" data-entity="Cloudflare Edge Layer" data-source-line="143" data-uid="ent0013" id="cluster_Cloudflare Edge Layer"><rect fill="#FF6B35" height="401" rx="5" ry="5" style="stroke:#181818;stroke-width:1;" width="822" x="221" y="211.898"/><text fill="#2C3E50" font-family="sans-serif" font-size="11" font-style="italic" lengthAdjust="spacing" textLength="60.5" x="601.75" y="224.1085">&#171;cloudflare&#187;</text><text fill="#2C3E50" font-family="sans-serif" font-size="11" font-weight="bold" lengthAdjust="spacing" textLength="115.9619" x="574.019" y="236.9132">Cloudflare Edge Layer</text></g><!--cluster cf_waf--><g class="cluster" data-entity="cf_waf" data-source-line="152" data-uid="ent0019" id="cluster_cf_waf"><path d="M533.6753,274.3376 C545.4233,256.8909 558.7198,256.5934 569.6865,275.1198 C579.5494,259.5451 592.2009,260.8691 602.6302,274.4805 C609.8771,255.2683 623.5452,255.4519 635.9008,269.3464 C646.9844,256.3122 662.4247,255.8487 669.1348,274.0062 C678.9638,256.5095 693.7923,258.102 703.771,273.8502 C713.1929,255.3025 731.1336,254.6141 741.3218,273.0727 C748.6395,258.8403 764.7976,255.3679 774.364,270.5463 C787.6202,255.0408 798.2855,257.8803 808.0542,274.2343 C816.1363,254.9514 830.4862,253.7608 841.8247,271.2433 C853.1568,253.5052 863.3574,253.3389 874.9623,270.988 C885.8094,254.3671 900.9705,258.2 909.3265,273.6567 C918.9992,259.7718 929.1975,254.6553 941.4156,270.9502 C952.1219,257.0554 965.1901,253.6589 975.8085,271.0469 C991.8574,253.5724 1003.5066,258.1105 1014,276.898 C1017.1026,277.2138 1017.5414,279.5494 1015.8791,281.7214 C1031.0665,291.247 1030.0902,303.4563 1016.1433,313.2261 C1037.7516,323.0294 1033.8039,340.0212 1017.9526,351.5911 C1035.6003,359.0521 1040.2657,371.9682 1024.7939,386.012 C1041.43,398.2617 1039.0717,410.23 1022.8691,420.6553 C1040.1271,431.8523 1032.972,447.6536 1018.2375,454.4684 C1033.3985,473.2672 1031.5403,486.4143 1007,493.898 C1008.6431,492.1518 1010.6327,492.5901 1011.5666,494.7311 C1002.3259,514.4389 984.8702,512.3661 973.5679,496.9623 C967.1573,511.7746 954.1361,510.4947 945.1696,499.8089 C935.7259,517.5067 921.1642,518.3238 910.1442,501.4038 C899.4301,517.5123 884.7426,520.082 874.3531,501.0729 C862.4278,517.8132 851.0453,512.8252 841.2689,498.7647 C831.4504,514.7102 817.1966,514.6481 807.3768,498.7661 C802.3071,518.0271 785.8317,521.8186 773.8051,505.2923 C764.8359,519.1965 749.0221,521.4909 741.1938,504.1033 C731.48,520.9457 715.8503,518.804 707.9092,502.3322 C694.7229,520.9576 682.8897,521.9003 670.2554,501.7956 C655.9921,518.6035 644.8817,517.0954 634.3782,498.0349 C628.1049,510.9711 613.7689,515.8387 604.9452,500.7095 C593.4262,515.3596 580.2886,518.3622 569.2215,500.2171 C549.525,516.4968 531.7743,513.522 525,486.898 C527.2199,486.4209 528.5227,487.6164 527.9568,489.8913 C512.2116,477.9225 511.2625,465.6883 526.9168,452.8383 C512.2336,441.4067 508.3595,431.2581 526.4464,419.3659 C510.892,411.4545 510.9045,395.3812 524.7087,385.9434 C509.7846,375.9002 508.6286,363.7535 524.1551,353.1956 C506.2829,340.6537 504.2244,324.9732 524.8606,313.109 C508.498,298.4418 506.6505,277.6736 532,269.898 C534.3512,270.6752 535.2536,272.0777 533.6753,274.3376" fill="#BF360C" style="stroke:#181818;stroke-width:1;"/><text fill="#2C3E50" font-family="sans-serif" font-size="11" font-style="italic" lengthAdjust="spacing" textLength="28.3755" x="755.3123" y="285.1085">&#171;waf&#187;</text><text fill="#2C3E50" font-family="sans-serif" font-size="11" font-weight="bold" lengthAdjust="spacing" textLength="81.877" x="728.5615" y="297.9132">Cloudflare WAF</text></g><!--cluster cloudflare_workers--><g class="cluster" data-entity="cloudflare_workers" data-source-line="153" data-uid="ent0020" id="cluster_cloudflare_workers"><rect fill="#DD2C00" height="132" rx="5" ry="5" style="stroke:#181818;stroke-width:1;" width="417" x="557" y="329.898"/><text fill="#2C3E50" font-family="sans-serif" font-size="11" font-style="italic" lengthAdjust="spacing" textLength="50.3486" x="740.3257" y="342.1085">&#171;workers&#187;</text><text fill="#2C3E50" font-family="sans-serif" font-size="11" font-weight="bold" lengthAdjust="spacing" textLength="92.9951" x="719.0024" y="354.9132">Core Worker APIs</text></g><!--cluster edgedb--><g class="cluster" data-entity="edgedb" data-source-line="172" data-uid="ent0028" id="cluster_edgedb"><path d="M6,571.398 C6,561.398 43.5,561.398 43.5,561.398 C43.5,561.398 81,561.398 81,571.398 L81,697.898 C81,707.898 43.5,707.898 43.5,707.898 C43.5,707.898 6,707.898 6,697.898 L6,571.398" fill="#27AE60" style="stroke:#181818;stroke-width:1;"/><path d="M6,571.398 C6,581.398 43.5,581.398 43.5,581.398 C43.5,581.398 81,581.398 81,571.398" fill="none" style="stroke:#181818;stroke-width:1;"/><text fill="#2C3E50" font-family="sans-serif" font-size="11" font-style="italic" lengthAdjust="spacing" textLength="47.5181" x="19.741" y="593.6085">&#171;edgedb&#187;</text><text fill="#2C3E50" font-family="sans-serif" font-size="11" font-weight="bold" lengthAdjust="spacing" textLength="40.0737" x="23.4631" y="606.4132">EdgeDB</text></g><!--cluster AWS Backend--><g class="cluster" data-entity="AWS Backend" data-source-line="177" data-uid="ent0030" id="cluster_AWS Backend"><rect fill="#E74C3C" height="293" rx="5" ry="5" style="stroke:#181818;stroke-width:1;" width="452" x="110" y="670.398"/><text fill="#2C3E50" font-family="sans-serif" font-size="11" font-style="italic" lengthAdjust="spacing" textLength="29.7183" x="321.1409" y="682.6085">&#171;aws&#187;</text><text fill="#2C3E50" font-family="sans-serif" font-size="11" font-weight="bold" lengthAdjust="spacing" textLength="71.2959" x="300.3521" y="695.4132">AWS Backend</text></g><!--cluster MongoDB Cloud--><g class="cluster" data-entity="MongoDB Cloud" data-source-line="190" data-uid="ent0036" id="cluster_MongoDB Cloud"><rect fill="#8E44AD" height="115" rx="5" ry="5" style="stroke:#181818;stroke-width:1;" width="128" x="410" y="824.398"/><text fill="#2C3E50" font-family="sans-serif" font-size="11" font-style="italic" lengthAdjust="spacing" textLength="58.3301" x="444.835" y="836.6085">&#171;mongodb&#187;</text><text fill="#2C3E50" font-family="sans-serif" font-size="11" font-weight="bold" lengthAdjust="spacing" textLength="84.353" x="431.8235" y="849.4132">MongoDB Cloud</text></g><!--entity customer_cloud_sdks--><g class="entity" data-entity="customer_cloud_sdks" data-source-line="127" data-uid="ent0003" id="entity_customer_cloud_sdks"><rect fill="#6BB6FF" height="41.6094" rx="5" ry="5" style="stroke:#181818;stroke-width:0.5;" width="123.5293" x="365" y="86.898"/><rect fill="#6BB6FF" height="41.6094" rx="5" ry="5" style="stroke:#181818;stroke-width:0.5;" width="123.5293" x="361" y="82.898"/><text fill="#2C3E50" font-family="sans-serif" font-size="11" font-style="italic" lengthAdjust="spacing" textLength="27.5752" x="408.9771" y="101.1085">&#171;sdk&#187;</text><text fill="#2C3E50" font-family="sans-serif" font-size="11" lengthAdjust="spacing" textLength="107.5293" x="369" y="113.9132">Cloud Bucketing SDKs</text></g><!--entity customer_local_sdks--><g class="entity" data-entity="customer_local_sdks" data-source-line="128" data-uid="ent0004" id="entity_customer_local_sdks"><rect fill="#6BB6FF" height="41.6094" rx="5" ry="5" style="stroke:#181818;stroke-width:0.5;" width="120.3066" x="671" y="86.898"/><rect fill="#6BB6FF" height="41.6094" rx="5" ry="5" style="stroke:#181818;stroke-width:0.5;" width="120.3066" x="667" y="82.898"/><text fill="#2C3E50" font-family="sans-serif" font-size="11" font-style="italic" lengthAdjust="spacing" textLength="27.5752" x="713.3657" y="101.1085">&#171;sdk&#187;</text><text fill="#2C3E50" font-family="sans-serif" font-size="11" lengthAdjust="spacing" textLength="104.3066" x="675" y="113.9132">Local Bucketing SDKs</text></g><!--entity customer_mobile_web_sdks--><g class="entity" data-entity="customer_mobile_web_sdks" data-source-line="129" data-uid="ent0005" id="entity_customer_mobile_web_sdks"><rect fill="#6BB6FF" height="41.6094" rx="5" ry="5" style="stroke:#181818;stroke-width:0.5;" width="103.5273" x="528" y="86.898"/><rect fill="#6BB6FF" height="41.6094" rx="5" ry="5" style="stroke:#181818;stroke-width:0.5;" width="103.5273" x="524" y="82.898"/><text fill="#2C3E50" font-family="sans-serif" font-size="11" font-style="italic" lengthAdjust="spacing" textLength="27.5752" x="561.9761" y="101.1085">&#171;sdk&#187;</text><text fill="#2C3E50" font-family="sans-serif" font-size="11" lengthAdjust="spacing" textLength="87.5273" x="532" y="113.9132">Mobile/Web SDKs</text></g><!--entity management_api_clients--><g class="entity" data-entity="management_api_clients" data-source-line="130" data-uid="ent0006" id="entity_management_api_clients"><rect fill="#6BB6FF" height="41.6094" rx="5" ry="5" style="stroke:#181818;stroke-width:0.5;" width="137.1074" x="830.5" y="86.898"/><rect fill="#6BB6FF" height="41.6094" rx="5" ry="5" style="stroke:#181818;stroke-width:0.5;" width="137.1074" x="826.5" y="82.898"/><text fill="#2C3E50" font-family="sans-serif" font-size="11" font-style="italic" lengthAdjust="spacing" textLength="27.5752" x="881.2661" y="101.1085">&#171;sdk&#187;</text><text fill="#2C3E50" font-family="sans-serif" font-size="11" lengthAdjust="spacing" textLength="121.1074" x="834.5" y="113.9132">Management API Clients</text></g><!--entity github_actions--><g class="entity" data-entity="github_actions" data-source-line="134" data-uid="ent0008" id="entity_github_actions"><polygon fill="#7ED321" points="1336,87.898,1346,77.898,1449.7988,77.898,1449.7988,123.5074,1439.7988,133.5074,1336,133.5074,1336,87.898" style="stroke:#181818;stroke-width:0.5;"/><line style="stroke:#181818;stroke-width:0.5;" x1="1439.7988" x2="1449.7988" y1="87.898" y2="77.898"/><line style="stroke:#181818;stroke-width:0.5;" x1="1336" x2="1439.7988" y1="87.898" y2="87.898"/><line style="stroke:#181818;stroke-width:0.5;" x1="1439.7988" x2="1439.7988" y1="87.898" y2="133.5074"/><text fill="#2C3E50" font-family="sans-serif" font-size="11" font-style="italic" lengthAdjust="spacing" textLength="64.9741" x="1355.4124" y="108.1085">&#171;integration&#187;</text><text fill="#2C3E50" font-family="sans-serif" font-size="11" lengthAdjust="spacing" textLength="73.7988" x="1351" y="120.9132">GitHub Actions</text></g><!--entity gitlab_ci--><g class="entity" data-entity="gitlab_ci" data-source-line="135" data-uid="ent0009" id="entity_gitlab_ci"><polygon fill="#7ED321" points="1193.5,87.898,1203.5,77.898,1300.4741,77.898,1300.4741,123.5074,1290.4741,133.5074,1193.5,133.5074,1193.5,87.898" style="stroke:#181818;stroke-width:0.5;"/><line style="stroke:#181818;stroke-width:0.5;" x1="1290.4741" x2="1300.4741" y1="87.898" y2="77.898"/><line style="stroke:#181818;stroke-width:0.5;" x1="1193.5" x2="1290.4741" y1="87.898" y2="87.898"/><line style="stroke:#181818;stroke-width:0.5;" x1="1290.4741" x2="1290.4741" y1="87.898" y2="133.5074"/><text fill="#2C3E50" font-family="sans-serif" font-size="11" font-style="italic" lengthAdjust="spacing" textLength="64.9741" x="1209.5" y="108.1085">&#171;integration&#187;</text><text fill="#2C3E50" font-family="sans-serif" font-size="11" lengthAdjust="spacing" textLength="63.3306" x="1210.3218" y="120.9132">GitLab CI/CD</text></g><!--entity bitbucket_pipelines--><g class="entity" data-entity="bitbucket_pipelines" data-source-line="136" data-uid="ent0010" id="entity_bitbucket_pipelines"><polygon fill="#7ED321" points="1024,87.898,1034,77.898,1157.8867,77.898,1157.8867,123.5074,1147.8867,133.5074,1024,133.5074,1024,87.898" style="stroke:#181818;stroke-width:0.5;"/><line style="stroke:#181818;stroke-width:0.5;" x1="1147.8867" x2="1157.8867" y1="87.898" y2="77.898"/><line style="stroke:#181818;stroke-width:0.5;" x1="1024" x2="1147.8867" y1="87.898" y2="87.898"/><line style="stroke:#181818;stroke-width:0.5;" x1="1147.8867" x2="1147.8867" y1="87.898" y2="133.5074"/><text fill="#2C3E50" font-family="sans-serif" font-size="11" font-style="italic" lengthAdjust="spacing" textLength="64.9741" x="1053.4563" y="108.1085">&#171;integration&#187;</text><text fill="#2C3E50" font-family="sans-serif" font-size="11" lengthAdjust="spacing" textLength="93.8867" x="1039" y="120.9132">Bitbucket Pipelines</text></g><!--entity jira--><g class="entity" data-entity="jira" data-source-line="137" data-uid="ent0011" id="entity_jira"><polygon fill="#7ED321" points="1627.5,87.898,1637.5,77.898,1734.4741,77.898,1734.4741,123.5074,1724.4741,133.5074,1627.5,133.5074,1627.5,87.898" style="stroke:#181818;stroke-width:0.5;"/><line style="stroke:#181818;stroke-width:0.5;" x1="1724.4741" x2="1734.4741" y1="87.898" y2="77.898"/><line style="stroke:#181818;stroke-width:0.5;" x1="1627.5" x2="1724.4741" y1="87.898" y2="87.898"/><line style="stroke:#181818;stroke-width:0.5;" x1="1724.4741" x2="1724.4741" y1="87.898" y2="133.5074"/><text fill="#2C3E50" font-family="sans-serif" font-size="11" font-style="italic" lengthAdjust="spacing" textLength="64.9741" x="1643.5" y="108.1085">&#171;integration&#187;</text><text fill="#2C3E50" font-family="sans-serif" font-size="11" lengthAdjust="spacing" textLength="19.8838" x="1666.0452" y="120.9132">JIRA</text></g><!--entity slack--><g class="entity" data-entity="slack" data-source-line="138" data-uid="ent0012" id="entity_slack"><polygon fill="#7ED321" points="1485.5,87.898,1495.5,77.898,1592.4741,77.898,1592.4741,123.5074,1582.4741,133.5074,1485.5,133.5074,1485.5,87.898" style="stroke:#181818;stroke-width:0.5;"/><line style="stroke:#181818;stroke-width:0.5;" x1="1582.4741" x2="1592.4741" y1="87.898" y2="77.898"/><line style="stroke:#181818;stroke-width:0.5;" x1="1485.5" x2="1582.4741" y1="87.898" y2="87.898"/><line style="stroke:#181818;stroke-width:0.5;" x1="1582.4741" x2="1582.4741" y1="87.898" y2="133.5074"/><text fill="#2C3E50" font-family="sans-serif" font-size="11" font-style="italic" lengthAdjust="spacing" textLength="64.9741" x="1501.5" y="108.1085">&#171;integration&#187;</text><text fill="#2C3E50" font-family="sans-serif" font-size="11" lengthAdjust="spacing" textLength="24.9434" x="1521.5154" y="120.9132">Slack</text></g><g class="entity" data-entity="event_api_in" data-source-line="145" data-uid="ent0014" id="entity_event_api_in"><text fill="#2C3E50" font-family="sans-serif" font-size="11" lengthAdjust="spacing" textLength="51.7397" x="769.1301" y="191.3038">Events API</text><rect fill="#F1F1F1" height="12" style="stroke:#181818;stroke-width:1.5;" width="12" x="789" y="205.898"/></g><g class="entity" data-entity="sdk_api_in" data-source-line="146" data-uid="ent0015" id="entity_sdk_api_in"><text fill="#2C3E50" font-family="sans-serif" font-size="11" lengthAdjust="spacing" textLength="39.2144" x="707.3928" y="191.3038">SDK API</text><rect fill="#F1F1F1" height="12" style="stroke:#181818;stroke-width:1.5;" width="12" x="721" y="205.898"/></g><g class="entity" data-entity="cloud_bucketing_api_in" data-source-line="147" data-uid="ent0016" id="entity_cloud_bucketing_api_in"><text fill="#2C3E50" font-family="sans-serif" font-size="11" lengthAdjust="spacing" textLength="99.7144" x="604.1428" y="191.3038">Cloud Bucketing API</text><rect fill="#F1F1F1" height="12" style="stroke:#181818;stroke-width:1.5;" width="12" x="648" y="205.898"/></g><g class="entity" data-entity="config_cdn_in" data-source-line="148" data-uid="ent0017" id="entity_config_cdn_in"><text fill="#2C3E50" font-family="sans-serif" font-size="11" lengthAdjust="spacing" textLength="56.6597" x="879.1702" y="191.3038">Config CDN</text><rect fill="#F1F1F1" height="12" style="stroke:#181818;stroke-width:1.5;" width="12" x="901.5" y="205.898"/></g><g class="entity" data-entity="management_api_cf_in" data-source-line="149" data-uid="ent0018" id="entity_management_api_cf_in"><text fill="#2C3E50" font-family="sans-serif" font-size="11" lengthAdjust="spacing" textLength="84.8687" x="982.5657" y="191.3038">Management API</text><rect fill="#F1F1F1" height="12" style="stroke:#181818;stroke-width:1.5;" width="12" x="1019" y="205.898"/></g><!--entity config_cdn--><g class="entity" data-entity="config_cdn" data-source-line="161" data-uid="ent0024" id="entity_config_cdn"><path d="M867,543.898 C867,533.898 921.1611,533.898 921.1611,533.898 C921.1611,533.898 975.3223,533.898 975.3223,543.898 L975.3223,578.5074 C975.3223,588.5074 921.1611,588.5074 921.1611,588.5074 C921.1611,588.5074 867,588.5074 867,578.5074 L867,543.898" fill="#FFA000" style="stroke:#181818;stroke-width:0.5;"/><path d="M867,543.898 C867,553.898 921.1611,553.898 921.1611,553.898 C921.1611,553.898 975.3223,553.898 975.3223,543.898" fill="none" style="stroke:#181818;stroke-width:0.5;"/><text fill="#2C3E50" font-family="sans-serif" font-size="11" font-style="italic" lengthAdjust="spacing" textLength="47.561" x="897.3806" y="568.1085">&#171;storage&#187;</text><text fill="#2C3E50" font-family="sans-serif" font-size="11" lengthAdjust="spacing" textLength="88.3223" x="877" y="580.9132">Config R2 Buckets</text></g><!--entity events_firehose--><g class="entity" data-entity="events_firehose" data-source-line="162" data-uid="ent0025" id="entity_events_firehose"><path d="M739.5,543.398 L826.688,543.398 C831.688,543.398 831.688,561.2027 831.688,561.2027 C831.688,561.2027 831.688,579.0074 826.688,579.0074 L739.5,579.0074 C734.5,579.0074 734.5,561.2027 734.5,561.2027 C734.5,561.2027 734.5,543.398 739.5,543.398" fill="#FF8F00" style="stroke:#181818;stroke-width:0.5;"/><path d="M826.688,543.398 C821.688,543.398 821.688,561.2027 821.688,561.2027 C821.688,579.0074 826.688,579.0074 826.688,579.0074" fill="none" style="stroke:#181818;stroke-width:0.5;"/><text fill="#2C3E50" font-family="sans-serif" font-size="11" font-style="italic" lengthAdjust="spacing" textLength="42.9204" x="756.6338" y="558.6085">&#171;events&#187;</text><text fill="#2C3E50" font-family="sans-serif" font-size="11" lengthAdjust="spacing" textLength="77.188" x="739.5" y="571.4132">Events Firehose</text></g><g class="entity" data-entity="events_firehose_out" data-source-line="166" data-uid="ent0026" id="entity_events_firehose_out"><text fill="#2C3E50" font-family="sans-serif" font-size="11" lengthAdjust="spacing" textLength="53.3564" x="194.3218" y="577.6085">Events Out</text><rect fill="#F1F1F1" height="12" style="stroke:#181818;stroke-width:1.5;" width="12" x="215" y="555.398"/></g><g class="entity" data-entity="management_api_cf_out" data-source-line="167" data-uid="ent0027" id="entity_management_api_cf_out"><text fill="#2C3E50" font-family="sans-serif" font-size="11" lengthAdjust="spacing" textLength="86.4854" x="274.7573" y="577.6085">Management Out</text><rect fill="#F1F1F1" height="12" style="stroke:#181818;stroke-width:1.5;" width="12" x="312" y="555.398"/></g><!--entity bucketing_api--><g class="entity" data-entity="bucketing_api" data-source-line="154" data-uid="ent0021" id="entity_bucketing_api"><rect fill="#FF5722" height="55.6094" rx="5" ry="5" style="stroke:#181818;stroke-width:0.5;" width="108.1055" x="600" y="381.898"/><path d="M636.0352,381.898 L636.0352,386.898 L629.0352,393.898 L600,393.898" fill="none" style="stroke:#181818;stroke-width:0.5;"/><text fill="#2C3E50" font-family="sans-serif" font-size="11" font-style="italic" lengthAdjust="spacing" textLength="25.8403" x="636.1326" y="412.1085">&#171;api&#187;</text><text fill="#2C3E50" font-family="sans-serif" font-size="11" lengthAdjust="spacing" textLength="68.1055" x="615" y="424.9132">Bucketing API</text></g><!--entity event_api--><g class="entity" data-entity="event_api" data-source-line="155" data-uid="ent0022" id="entity_event_api"><rect fill="#FF5722" height="55.6094" rx="5" ry="5" style="stroke:#181818;stroke-width:0.5;" width="91.7397" x="858" y="381.898"/><path d="M888.5799,381.898 L888.5799,386.898 L881.5799,393.898 L858,393.898" fill="none" style="stroke:#181818;stroke-width:0.5;"/><text fill="#2C3E50" font-family="sans-serif" font-size="11" font-style="italic" lengthAdjust="spacing" textLength="25.8403" x="885.9497" y="412.1085">&#171;api&#187;</text><text fill="#2C3E50" font-family="sans-serif" font-size="11" lengthAdjust="spacing" textLength="51.7397" x="873" y="424.9132">Events API</text></g><!--entity sdk_api--><g class="entity" data-entity="sdk_api" data-source-line="156" data-uid="ent0023" id="entity_sdk_api"><rect fill="#FF5722" height="55.6094" rx="5" ry="5" style="stroke:#181818;stroke-width:0.5;" width="79.2144" x="743.5" y="381.898"/><path d="M769.9048,381.898 L769.9048,386.898 L762.9048,393.898 L743.5,393.898" fill="none" style="stroke:#181818;stroke-width:0.5;"/><text fill="#2C3E50" font-family="sans-serif" font-size="11" font-style="italic" lengthAdjust="spacing" textLength="25.8403" x="765.187" y="412.1085">&#171;api&#187;</text><text fill="#2C3E50" font-family="sans-serif" font-size="11" lengthAdjust="spacing" textLength="39.2144" x="758.5" y="424.9132">SDK API</text></g><g class="entity" data-entity="edgedb_in" data-source-line="173" data-uid="ent0029" id="entity_edgedb_in"><text fill="#2C3E50" font-family="sans-serif" font-size="11" lengthAdjust="spacing" textLength="83.7031" x="21.1484" y="540.8038">Updates/Queries</text><rect fill="#F1F1F1" height="12" style="stroke:#181818;stroke-width:1.5;" width="12" x="57" y="555.398"/></g><g class="entity" data-entity="events_firehose_in" data-source-line="179" data-uid="ent0031" id="entity_events_firehose_in"><text fill="#2C3E50" font-family="sans-serif" font-size="11" lengthAdjust="spacing" textLength="45.1924" x="198.4038" y="649.8038">Events In</text><rect fill="#F1F1F1" height="12" style="stroke:#181818;stroke-width:1.5;" width="12" x="215" y="664.398"/></g><g class="entity" data-entity="management_api_in" data-source-line="180" data-uid="ent0032" id="entity_management_api_in"><text fill="#2C3E50" font-family="sans-serif" font-size="11" lengthAdjust="spacing" textLength="78.3213" x="298.8394" y="649.8038">Management In</text><rect fill="#F1F1F1" height="12" style="stroke:#181818;stroke-width:1.5;" width="12" x="332" y="664.398"/></g><!--entity events_firehose_aws--><g class="entity" data-entity="events_firehose_aws" data-source-line="184" data-uid="ent0033" id="entity_events_firehose_aws"><path d="M166.5,761.898 L255.9116,761.898 C260.9116,761.898 260.9116,779.7027 260.9116,779.7027 C260.9116,779.7027 260.9116,797.5074 255.9116,797.5074 L166.5,797.5074 C161.5,797.5074 161.5,779.7027 161.5,779.7027 C161.5,779.7027 161.5,761.898 166.5,761.898" fill="#E67E22" style="stroke:#181818;stroke-width:0.5;"/><path d="M255.9116,761.898 C250.9116,761.898 250.9116,779.7027 250.9116,779.7027 C250.9116,797.5074 255.9116,797.5074 255.9116,797.5074" fill="none" style="stroke:#181818;stroke-width:0.5;"/><text fill="#2C3E50" font-family="sans-serif" font-size="11" font-style="italic" lengthAdjust="spacing" textLength="44.1504" x="184.1306" y="777.1085">&#171;kinesis&#187;</text><text fill="#2C3E50" font-family="sans-serif" font-size="11" lengthAdjust="spacing" textLength="79.4116" x="166.5" y="789.9132">Kinesis Firehose</text></g><!--entity snowflake--><g class="entity" data-entity="snowflake" data-source-line="185" data-uid="ent0034" id="entity_snowflake"><polygon fill="#3498DB" points="133.5,877.898,143.5,867.898,282.7373,867.898,282.7373,913.5074,272.7373,923.5074,133.5,923.5074,133.5,877.898" style="stroke:#181818;stroke-width:0.5;"/><line style="stroke:#181818;stroke-width:0.5;" x1="272.7373" x2="282.7373" y1="877.898" y2="867.898"/><line style="stroke:#181818;stroke-width:0.5;" x1="133.5" x2="272.7373" y1="877.898" y2="877.898"/><line style="stroke:#181818;stroke-width:0.5;" x1="272.7373" x2="272.7373" y1="877.898" y2="923.5074"/><text fill="#2C3E50" font-family="sans-serif" font-size="11" font-style="italic" lengthAdjust="spacing" textLength="60.355" x="172.9412" y="898.1085">&#171;snowflake&#187;</text><text fill="#2C3E50" font-family="sans-serif" font-size="11" lengthAdjust="spacing" textLength="109.2373" x="148.5" y="910.9132">Snowflake Warehouse</text></g><!--entity mgmt_api--><g class="entity" data-entity="mgmt_api" data-source-line="188" data-uid="ent0035" id="entity_mgmt_api"><polygon fill="#F39C12" points="420.5,761.898,430.5,751.898,545.3687,751.898,545.3687,797.5074,535.3687,807.5074,420.5,807.5074,420.5,761.898" style="stroke:#181818;stroke-width:0.5;"/><line style="stroke:#181818;stroke-width:0.5;" x1="535.3687" x2="545.3687" y1="761.898" y2="751.898"/><line style="stroke:#181818;stroke-width:0.5;" x1="420.5" x2="535.3687" y1="761.898" y2="761.898"/><line style="stroke:#181818;stroke-width:0.5;" x1="535.3687" x2="535.3687" y1="761.898" y2="807.5074"/><text fill="#2C3E50" font-family="sans-serif" font-size="11" font-style="italic" lengthAdjust="spacing" textLength="76.2534" x="439.8076" y="782.1085">&#171;management&#187;</text><text fill="#2C3E50" font-family="sans-serif" font-size="11" lengthAdjust="spacing" textLength="84.8687" x="435.5" y="794.9132">Management API</text></g><!--entity mongodb_db--><g class="entity" data-entity="mongodb_db" data-source-line="191" data-uid="ent0037" id="entity_mongodb_db"><path d="M426,878.398 C426,868.398 473.8608,868.398 473.8608,868.398 C473.8608,868.398 521.7217,868.398 521.7217,878.398 L521.7217,913.0074 C521.7217,923.0074 473.8608,923.0074 473.8608,923.0074 C473.8608,923.0074 426,923.0074 426,913.0074 L426,878.398" fill="#9B59B6" style="stroke:#181818;stroke-width:0.5;"/><path d="M426,878.398 C426,888.398 473.8608,888.398 473.8608,888.398 C473.8608,888.398 521.7217,888.398 521.7217,878.398" fill="none" style="stroke:#181818;stroke-width:0.5;"/><text fill="#2C3E50" font-family="sans-serif" font-size="11" font-style="italic" lengthAdjust="spacing" textLength="45.4395" x="451.1411" y="902.6085">&#171;mongo&#187;</text><text fill="#2C3E50" font-family="sans-serif" font-size="11" lengthAdjust="spacing" textLength="75.7217" x="436" y="915.4132">MongoDB Atlas</text></g><!--link customer_cloud_sdks to cloud_bucketing_api_in--><g class="link" data-entity-1="customer_cloud_sdks" data-entity-2="cloud_bucketing_api_in" data-source-line="200" data-uid="lnk38" id="link_customer_cloud_sdks_cloud_bucketing_api_in"><path d="M446.5,129.008 C446.5,160.328 446.5,212.398 446.5,212.398 C446.5,212.398 606.54,212.398 641.56,212.398" fill="none" id="customer_cloud_sdks-to-cloud_bucketing_api_in" style="stroke:#2C3E50;stroke-width:2;"/><polygon fill="#2C3E50" points="647.56,212.398,638.56,208.398,642.56,212.398,638.56,216.398,647.56,212.398" style="stroke:#2C3E50;stroke-width:2;"/></g><!--link customer_mobile_web_sdks to sdk_api_in--><g class="link" data-entity-1="customer_mobile_web_sdks" data-entity-2="sdk_api_in" data-source-line="201" data-uid="lnk39" id="link_customer_mobile_web_sdks_sdk_api_in"><path d="M621.25,129.158 C621.25,150.688 621.25,179.398 621.25,179.398 C621.25,179.398 727,179.398 727,179.398 C727,179.398 727,190.188 727,199.628" fill="none" id="customer_mobile_web_sdks-to-sdk_api_in" style="stroke:#2C3E50;stroke-width:2;"/><polygon fill="#2C3E50" points="727,205.628,731,196.628,727,200.628,723,196.628,727,205.628" style="stroke:#2C3E50;stroke-width:2;"/></g><!--link customer_local_sdks to config_cdn_in--><g class="link" data-entity-1="customer_local_sdks" data-entity-2="config_cdn_in" data-source-line="202" data-uid="lnk40" id="link_customer_local_sdks_config_cdn_in"><path d="M783.33,128.918 C783.33,139.358 783.33,149.398 783.33,149.398 C783.33,149.398 916,149.398 916,149.398 C916,149.398 916,203.958 916,205.848" fill="none" id="customer_local_sdks-to-config_cdn_in" style="stroke:#2C3E50;stroke-width:2;"/><polygon fill="#2C3E50" points="916,211.848,920,202.848,916,206.848,912,202.848,916,211.848" style="stroke:#2C3E50;stroke-width:2;"/></g><!--link customer_local_sdks to event_api_in--><g class="link" data-entity-1="customer_local_sdks" data-entity-2="event_api_in" data-source-line="203" data-uid="lnk41" id="link_customer_local_sdks_event_api_in"><path d="M775.67,128.898 C775.67,159.098 775.67,202.678 775.67,205.748" fill="none" id="customer_local_sdks-to-event_api_in" style="stroke:#2C3E50;stroke-width:2;"/><polygon fill="#2C3E50" points="775.67,211.748,779.67,202.748,775.67,206.748,771.67,202.748,775.67,211.748" style="stroke:#2C3E50;stroke-width:2;"/></g><!--link management_api_clients to management_api_cf_in--><g class="link" data-entity-1="management_api_clients" data-entity-2="management_api_cf_in" data-source-line="204" data-uid="lnk42" id="link_management_api_clients_management_api_cf_in"><path d="M961.67,129.008 C961.67,157.838 961.67,203.398 961.67,203.398 C961.67,203.398 1017.04,203.398 1018.95,203.398" fill="none" id="management_api_clients-to-management_api_cf_in" style="stroke:#2C3E50;stroke-width:2;"/><polygon fill="#2C3E50" points="1024.95,203.398,1015.95,199.398,1019.95,203.398,1015.95,207.398,1024.95,203.398" style="stroke:#2C3E50;stroke-width:2;"/></g><!--link jira to management_api_cf_in--><g class="link" data-entity-1="jira" data-entity-2="management_api_cf_in" data-source-line="205" data-uid="lnk43" id="link_jira_management_api_cf_in"><path d="M1681,134.038 C1681,168.808 1681,223.398 1681,223.398 C1681,223.398 1041.21,223.398 1031.12,223.398" fill="none" id="jira-to-management_api_cf_in" style="stroke:#2C3E50;stroke-width:2;"/><polygon fill="#2C3E50" points="1025.12,223.398,1034.12,227.398,1030.12,223.398,1034.12,219.398,1025.12,223.398" style="stroke:#2C3E50;stroke-width:2;"/></g><!--link slack to management_api_cf_in--><g class="link" data-entity-1="slack" data-entity-2="management_api_cf_in" data-source-line="206" data-uid="lnk44" id="link_slack_management_api_cf_in"><path d="M1539,134.068 C1539,166.808 1539,216.398 1539,216.398 C1539,216.398 1095.12,216.398 1037.13,216.398" fill="none" id="slack-to-management_api_cf_in" style="stroke:#2C3E50;stroke-width:2;"/><polygon fill="#2C3E50" points="1031.13,216.398,1040.13,220.398,1036.13,216.398,1040.13,212.398,1031.13,216.398" style="stroke:#2C3E50;stroke-width:2;"/></g><!--link github_actions to management_api_cf_in--><g class="link" data-entity-1="github_actions" data-entity-2="management_api_cf_in" data-source-line="208" data-uid="lnk45" id="link_github_actions_management_api_cf_in"><path d="M1393,133.908 C1393,164.258 1393,208.398 1393,208.398 C1393,208.398 1084.93,208.398 1037.08,208.398" fill="none" id="github_actions-to-management_api_cf_in" style="stroke:#2C3E50;stroke-width:2;"/><polygon fill="#2C3E50" points="1031.08,208.398,1040.08,212.398,1036.08,208.398,1040.08,204.398,1031.08,208.398" style="stroke:#2C3E50;stroke-width:2;"/></g><!--link gitlab_ci to management_api_cf_in--><g class="link" data-entity-1="gitlab_ci" data-entity-2="management_api_cf_in" data-source-line="209" data-uid="lnk46" id="link_gitlab_ci_management_api_cf_in"><path d="M1247,134.038 C1247,162.208 1247,201.398 1247,201.398 C1247,201.398 1037.88,201.398 1031.16,201.398" fill="none" id="gitlab_ci-to-management_api_cf_in" style="stroke:#2C3E50;stroke-width:2;"/><polygon fill="#2C3E50" points="1025.16,201.398,1034.16,205.398,1030.16,201.398,1034.16,197.398,1025.16,201.398" style="stroke:#2C3E50;stroke-width:2;"/></g><!--link bitbucket_pipelines to management_api_cf_in--><g class="link" data-entity-1="bitbucket_pipelines" data-entity-2="management_api_cf_in" data-source-line="210" data-uid="lnk47" id="link_bitbucket_pipelines_management_api_cf_in"><path d="M1037.5,134.028 C1037.5,164.448 1037.5,203.008 1037.5,205.768" fill="none" id="bitbucket_pipelines-to-management_api_cf_in" style="stroke:#2C3E50;stroke-width:2;"/><polygon fill="#2C3E50" points="1037.5,211.768,1041.5,202.768,1037.5,206.768,1033.5,202.768,1037.5,211.768" style="stroke:#2C3E50;stroke-width:2;"/></g><!--link config_cdn_in to config_cdn--><g class="link" data-entity-1="config_cdn_in" data-entity-2="config_cdn" data-source-line="213" data-uid="lnk48" id="link_config_cdn_in_config_cdn"><path d="M908.14,221.398 C910.94,221.398 955.83,221.398 955.83,221.398 C955.83,221.398 955.83,446.918 955.83,527.858" fill="none" id="config_cdn_in-to-config_cdn" style="stroke:#2C3E50;stroke-width:2;"/><polygon fill="#2C3E50" points="955.83,533.858,959.83,524.858,955.83,528.858,951.83,524.858,955.83,533.858" style="stroke:#2C3E50;stroke-width:2;"/></g><!--link event_api_in to event_api--><g class="link" data-entity-1="event_api_in" data-entity-2="event_api" data-source-line="214" data-uid="lnk49" id="link_event_api_in_event_api"><path d="M801.06,212.398 C818.73,212.398 869,212.398 869,212.398 C869,212.398 869,320.988 869,375.598" fill="none" id="event_api_in-to-event_api" style="stroke:#2C3E50;stroke-width:2;"/><polygon fill="#2C3E50" points="869,381.598,873,372.598,869,376.598,865,372.598,869,381.598" style="stroke:#2C3E50;stroke-width:2;"/></g><!--link sdk_api_in to sdk_api--><g class="link" data-entity-1="sdk_api_in" data-entity-2="sdk_api" data-source-line="215" data-uid="lnk50" id="link_sdk_api_in_sdk_api"><path d="M733.1,214.398 C741.54,214.398 755.75,214.398 755.75,214.398 C755.75,214.398 755.75,321.828 755.75,375.888" fill="none" id="sdk_api_in-to-sdk_api" style="stroke:#2C3E50;stroke-width:2;"/><polygon fill="#2C3E50" points="755.75,381.888,759.75,372.888,755.75,376.888,751.75,372.888,755.75,381.888" style="stroke:#2C3E50;stroke-width:2;"/></g><!--link cloud_bucketing_api_in to bucketing_api--><g class="link" data-entity-1="cloud_bucketing_api_in" data-entity-2="bucketing_api" data-source-line="216" data-uid="lnk51" id="link_cloud_bucketing_api_in_bucketing_api"><path d="M648,218.038 C648,242.588 648,328.548 648,375.678" fill="none" id="cloud_bucketing_api_in-to-bucketing_api" style="stroke:#2C3E50;stroke-width:2;"/><polygon fill="#2C3E50" points="648,381.678,652,372.678,648,376.678,644,372.678,648,381.678" style="stroke:#2C3E50;stroke-width:2;"/></g><!--link management_api_cf_in to cf_waf--><g class="link" data-entity-1="management_api_cf_in" data-entity-2="cf_waf" data-source-line="217" data-uid="lnk52" id="link_management_api_cf_in_cf_waf"><path d="M1014,212.038 C1014,213.4905 1014,225.8449 1014,243.7354 C1014,248.208 1014,253.0266 1014,258.1074 C1014,258.7425 1014,259.3817 1014,260.0248 C1014,260.3464 1014,254.669 1014,254.9925" fill="none" id="management_api_cf_in-to-cf_waf" style="stroke:#2C3E50;stroke-width:2;"/><polygon fill="#2C3E50" points="1014,260.9925,1018,251.9925,1014,255.9925,1010,251.9925,1014,260.9925" style="stroke:#2C3E50;stroke-width:2;"/></g><!--link sdk_api to events_firehose--><g class="link" data-entity-1="sdk_api" data-entity-2="events_firehose" data-source-line="220" data-uid="lnk53" id="link_sdk_api_events_firehose"><path d="M783,438.038 C783,468.848 783,511.318 783,537.378" fill="none" id="sdk_api-to-events_firehose" style="stroke:#2C3E50;stroke-width:2;"/><polygon fill="#2C3E50" points="783,543.378,787,534.378,783,538.378,779,534.378,783,543.378" style="stroke:#2C3E50;stroke-width:2;"/></g><!--link bucketing_api to events_firehose--><g class="link" data-entity-1="bucketing_api" data-entity-2="events_firehose" data-source-line="221" data-uid="lnk54" id="link_bucketing_api_events_firehose"><path d="M708.3,410.398 C724.24,410.398 737.5,410.398 737.5,410.398 C737.5,410.398 737.5,497.018 737.5,537.188" fill="none" id="bucketing_api-to-events_firehose" style="stroke:#2C3E50;stroke-width:2;"/><polygon fill="#2C3E50" points="737.5,543.188,741.5,534.188,737.5,538.188,733.5,534.188,737.5,543.188" style="stroke:#2C3E50;stroke-width:2;"/></g><!--link event_api to events_firehose--><g class="link" data-entity-1="event_api" data-entity-2="events_firehose" data-source-line="222" data-uid="lnk55" id="link_event_api_events_firehose"><path d="M862.5,438.038 C862.5,481.848 862.5,561.398 862.5,561.398 C862.5,561.398 854.09,561.398 837.54,561.398" fill="none" id="event_api-to-events_firehose" style="stroke:#2C3E50;stroke-width:2;"/><polygon fill="#2C3E50" points="831.54,561.398,840.54,565.398,836.54,561.398,840.54,557.398,831.54,561.398" style="stroke:#2C3E50;stroke-width:2;"/></g><!--link cloudflare_workers to edgedb_in--><g class="link" data-entity-1="cloudflare_workers" data-entity-2="edgedb_in" data-source-line="225" data-uid="lnk56" id="link_cloudflare_workers_edgedb_in"><path d="M556.2174,431.398 C555.0786,431.398 553.8355,431.398 552.4921,431.398 C549.8052,431.398 546.7168,431.398 543.2578,431.398 C529.4219,431.398 509.6563,431.398 485.9375,431.398 C438.5,431.398 375.25,431.398 312,431.398 C185.5,431.398 59,431.398 59,431.398 C59,431.398 59,523.158 59,549.128" fill="none" id="cloudflare_workers-to-edgedb_in" style="stroke:#2C3E50;stroke-width:2;"/><polygon fill="#2C3E50" points="59,555.128,63,546.128,59,550.128,55,546.128,59,555.128" style="stroke:#2C3E50;stroke-width:2;"/></g><!--link events_firehose to events_firehose_out--><g class="link" data-entity-1="events_firehose" data-entity-2="events_firehose_out" data-source-line="228" data-uid="lnk57" id="link_events_firehose_events_firehose_out"><path d="M740.5,543.228 C740.5,540.948 740.5,539.398 740.5,539.398 C740.5,539.398 221,539.398 221,539.398 C221,539.398 221,542.868 221,549.388" fill="none" id="events_firehose-to-events_firehose_out" style="stroke:#2C3E50;stroke-width:2;"/><polygon fill="#2C3E50" points="221,555.388,225,546.388,221,550.388,217,546.388,221,555.388" style="stroke:#2C3E50;stroke-width:2;"/></g><!--link cf_waf to management_api_cf_out--><g class="link" data-entity-1="cf_waf" data-entity-2="management_api_cf_out" data-source-line="229" data-uid="lnk58" id="link_cf_waf_management_api_cf_out"><path d="M516.469,486.398 C515.2161,486.398 513.9662,486.398 512.7195,486.398 C510.2261,486.398 507.7454,486.398 505.2781,486.398 C495.4087,486.398 485.7529,486.398 476.3535,486.398 C457.5547,486.398 439.7813,486.398 423.375,486.398 C357.75,486.398 314,486.398 314,486.398 C314,486.398 314,531.348 314,549.258" fill="none" id="cf_waf-to-management_api_cf_out" style="stroke:#2C3E50;stroke-width:2;"/><polygon fill="#2C3E50" points="314,555.258,318,546.258,314,550.258,310,546.258,314,555.258" style="stroke:#2C3E50;stroke-width:2;"/></g><!--link events_firehose_out to events_firehose_in--><g class="link" data-entity-1="events_firehose_out" data-entity-2="events_firehose_in" data-source-line="232" data-uid="lnk59" id="link_events_firehose_out_events_firehose_in"><path d="M221,567.568 C221,586.758 221,639.198 221,658.298" fill="none" id="events_firehose_out-to-events_firehose_in" style="stroke:#2C3E50;stroke-width:2;"/><polygon fill="#2C3E50" points="221,664.298,225,655.298,221,659.298,217,655.298,221,664.298" style="stroke:#2C3E50;stroke-width:2;"/></g><!--link management_api_cf_out to management_api_in--><g class="link" data-entity-1="management_api_cf_out" data-entity-2="management_api_in" data-source-line="233" data-uid="lnk60" id="link_management_api_cf_out_management_api_in"><path d="M326.5,561.478 C326.5,564.728 326.5,661.118 326.5,664.318" fill="none" id="management_api_cf_out-to-management_api_in" style="stroke:#2C3E50;stroke-width:2;"/><polygon fill="#2C3E50" points="326.5,670.318,330.5,661.318,326.5,665.318,322.5,661.318,326.5,670.318" style="stroke:#2C3E50;stroke-width:2;"/></g><!--link events_firehose_in to events_firehose_aws--><g class="link" data-entity-1="events_firehose_in" data-entity-2="events_firehose_aws" data-source-line="236" data-uid="lnk61" id="link_events_firehose_in_events_firehose_aws"><path d="M221,676.598 C221,692.798 221,730.848 221,755.878" fill="none" id="events_firehose_in-to-events_firehose_aws" style="stroke:#2C3E50;stroke-width:2;"/><polygon fill="#2C3E50" points="221,761.878,225,752.878,221,756.878,217,752.878,221,761.878" style="stroke:#2C3E50;stroke-width:2;"/></g><!--link events_firehose_aws to snowflake--><g class="link" data-entity-1="events_firehose_aws" data-entity-2="snowflake" data-source-line="237" data-uid="lnk62" id="link_events_firehose_aws_snowflake"><path d="M211,798.018 C211,816.628 211,839.848 211,861.518" fill="none" id="events_firehose_aws-to-snowflake" style="stroke:#2C3E50;stroke-width:2;"/><polygon fill="#2C3E50" points="211,867.518,215,858.518,211,862.518,207,858.518,211,867.518" style="stroke:#2C3E50;stroke-width:2;"/></g><!--link management_api_in to mgmt_api--><g class="link" data-entity-1="management_api_in" data-entity-2="mgmt_api" data-source-line="238" data-uid="lnk63" id="link_management_api_in_mgmt_api"><path d="M344,676.658 C344,696.608 344,757.398 344,757.398 C344,757.398 377.52,757.398 414.41,757.398" fill="none" id="management_api_in-to-mgmt_api" style="stroke:#2C3E50;stroke-width:2;"/><polygon fill="#2C3E50" points="420.41,757.398,411.41,753.398,415.41,757.398,411.41,761.398,420.41,757.398" style="stroke:#2C3E50;stroke-width:2;"/></g><!--link mgmt_api to mongodb_db--><g class="link" data-entity-1="mgmt_api" data-entity-2="mongodb_db" data-source-line="239" data-uid="lnk64" id="link_mgmt_api_mongodb_db"><path d="M474,807.978 C474,826.218 474,843.888 474,862.078" fill="none" id="mgmt_api-to-mongodb_db" style="stroke:#2C3E50;stroke-width:2;"/><polygon fill="#2C3E50" points="474,868.078,478,859.078,474,863.078,470,859.078,474,868.078" style="stroke:#2C3E50;stroke-width:2;"/></g><!--SRC=[bLXRK-is47xNhr3f0qyq8GcvT2Wp8S0vwO644iumVVB8jcpSE5PgoqrfX__UrSLtsKazmmonzbkjTbVxVSdvE-VxvETURn-IYAUxy2U7xNektOViOqSZVk46n8_93g4VNEe54SLtovVxnUjolSASxU4FsunpjiDk45E71on2oJQ8zWH0s2RErezP6haB5h8O_-XDlPb7IXPwCOveZ2_xfGNOZQGXVs0HrzY1CwHNBIQRu1-ABozBYo74oZ_s5BEOlpE4pl4lHnumsRp-_hXSVS6Bn_bcSxyv1GGsYpI11C01bf4NauJ7gSFJcE8D_u0e_59GJiXIz_hQqO2R6_mlml3SrlCq8hC-7Q1FL0QpC5GPJgwl4tVRZXxRzjZp1FeSt__DQHoH48BZ52efyUsXKMtUxlogxqmdqsfe4NFfzNLGxD0Edr1tEBXKiIt4dbv8ZBaItKGYFmJ7JcxNxjVpnlRmgXhM7ceVH83tBF5l5tZgZ0PDC4jvZhRWGxi7TpeQNjQsroaz4AyTPtl3ST-fuaedFx1uI-EaOrztuFJxLJmquGwmP1zqdVXgCgYTs2MSs2G1ABHdJFpER9D-VTi_Kve2blu5OoFfpBMdeETu_hOvVcbAwI273iTqCdA6Zha307Ya1Pp-S3QmZIU2ppG9kdOUJsWzcUfAx4W4UHI3j2CXmvbpEMXjWHsBVERQxVWf7Os8srPA2My7p-ohcJqsXPv4x01tRjlH1SFHREhQUiwuFhsxDPIl28M2ITT11XD2ntrp0GNsI0K7r74cUhASCEldBo_hjspYdpJfYwX87BE3ZgFAJk9DaxEojugcrEVNzy3PGcCbk3xdGm8lbVEvsAZfIxusRoENQhvFpCVYw_8LgFtxoprUh9-UrwlxrUkf7FWAMk2HV009NXHyI28tvn_4cK_vExnL9vF34P-rSESP9WdEQD8An1esyAPqLD0Yk9DURrDdIw5jVBov-vPKVSbzBQ3F16iMDNjwP0wGPfUdK5YSuEc9sK58Us_KDZZPoKNhGErJFENJ1C-Vbq2VWHYrqc4nQ2oO-t1AkLHn1urGIhnH5vnXWm8GZnW9-EnBmB-cDfuxsXZszGF-djeMqI7MH40J_qXil5Zs5dSPEYIsvGH7WBS1jsKby7EmfqBQgTtjxBsrpzuVyVJhycKkeNy4igMwR3SXZ1Xfd8Z_ZDQVwduz1QuRqk865C96p4MKZtFTeSMIWeYy6qHExSg8Hyr3A9zaMT46Ca19khBoi5WIF0qST60EWjOu1LA_KnbStIGxUt-IAnPvWOyNTolbGNwq73Sw1gnslh7ZFPEFQi-NSlysVr0XU1ReCrnLQU8fbum9W5HYOlUaEBtqPMcHXfjoBNka8eCsRkImaZsiDPi9sbRlBeoXrWtpptAQ3FsMiNTUkvU1ReMaLa9SaeqvN2geFFe7-8hupX9Q726nFFqE5yhnI4XQcETUroatEHHw7TVKUzD7gR4oFyt6QlEaB_zTbYDvbr6HCgM9L71I- -262CeQ_FiUO3Jf_PRIED3JJPcgjYxf7xMfa3yK-3KREI2bosD6A6jj8ePBMJWVdohBo9XG6KYXfBikgVPGIwN9GNkTTUzyK-gxitaiS8fBGhq-o3CfYz-80AJQIovnSKNkbkDI3apZnzzb5x0iyXMgL8WdeRz16ClP8qfHr_FLMvQPpu4ODRChUqjsZrRpvUuxGTejrgkL-irc0vsoZdqIWH1riVsXM_R__SxHoxK3PnMgYtZyWKnAwy9bX-ZYfeKoKAiQod05Ko6J_ChTb_caqxBCbwX5EsMs9g91KZvqMYZDq6c2QkgfqxZGIfrc9adK7SHveuRucGKY0wAyWli4wQ4gMJTJZYeQf95eL58RjRAY5YMHcLKMa97tyt0adSipwS358JQAbtfgl6MHL6CiXWcgadARLK71RHQrA1GR88Dmo1ra0rz-eLQpM7o7AesVXv0TK9qwMm8GJ8Mqm6bl0M5KxG68LR29YK_RTZBS8gy2Q311yVEFdYMcapKwgJhoaOa6ykRA1Zfgib0UbHxYA9_c-Ke-TT5_]--></g></svg>