<svg xmlns="http://www.w3.org/2000/svg" xmlns:xlink="http://www.w3.org/1999/xlink" contentStyleType="text/css" data-diagram-type="ACTIVITY" height="1384px" preserveAspectRatio="none" style="width:923px;height:1384px;background:#FFFFFF;" version="1.1" viewBox="0 0 923 1384" width="923px" zoomAndPan="magnify"><defs/><g><rect fill="transparent" height="1362.8667" style="stroke:#000000;stroke-width:1.5;" width="901.6182" x="11" y="11"/><path d="M120.5039,11 L120.5039,20.2969 L110.5039,30.2969 L11,30.2969 " fill="transparent" style="stroke:#000000;stroke-width:1.5;"/><text fill="#000000" font-family="sans-serif" font-size="14" lengthAdjust="spacing" textLength="99.5039" x="14" y="24.9951">Config Manager</text><rect fill="transparent" height="249.668" style="stroke:#000000;stroke-width:1.5;" width="253.6172" x="338.0005" y="40.2969"/><path d="M505.7192,40.2969 L505.7192,49.5938 L495.7192,59.5938 L338.0005,59.5938 " fill="transparent" style="stroke:#000000;stroke-width:1.5;"/><text fill="#000000" font-family="sans-serif" font-size="14" lengthAdjust="spacing" textLength="157.7188" x="341.0005" y="54.292">Constructor/Initialization</text><ellipse cx="458.8091" cy="79.5938" fill="#222222" rx="10" ry="10" style="stroke:#222222;stroke-width:1;"/><rect fill="#F1F1F1" height="33.9688" rx="12.5" ry="12.5" style="stroke:#181818;stroke-width:0.5;" width="201.6172" x="358.0005" y="157.9961"/><text fill="#000000" font-family="sans-serif" font-size="12" lengthAdjust="spacing" textLength="181.6172" x="368.0005" y="179.1348">Start Config Consolidation Thread</text><polygon fill="#F1F1F1" points="378.3984,109.5938,539.2197,109.5938,551.2197,121.5938,539.2197,133.5938,378.3984,133.5938,366.3984,121.5938,378.3984,109.5938" style="stroke:#181818;stroke-width:0.5;"/><text fill="#000000" font-family="sans-serif" font-size="11" lengthAdjust="spacing" textLength="12.8262" x="462.8091" y="143.8042">no</text><text fill="#000000" font-family="sans-serif" font-size="11" lengthAdjust="spacing" textLength="160.8213" x="378.3984" y="125.4019">options.DisableRealtimeUpdates</text><text fill="#000000" font-family="sans-serif" font-size="11" lengthAdjust="spacing" textLength="16.2261" x="551.2197" y="118.9995">yes</text><polygon fill="#F1F1F1" points="458.8091,211.9648,470.8091,223.9648,458.8091,235.9648,446.8091,223.9648,458.8091,211.9648" style="stroke:#181818;stroke-width:0.5;"/><ellipse cx="458.8091" cy="266.9648" fill="transparent" rx="11" ry="11" style="stroke:#222222;stroke-width:1;"/><ellipse cx="458.8091" cy="266.9648" fill="#222222" rx="6" ry="6" style="stroke:#222222;stroke-width:1;"/><rect fill="transparent" height="553.3276" style="stroke:#000000;stroke-width:1.5;" width="653.3066" x="39.5776" y="299.9648"/><path d="M183.8354,299.9648 L183.8354,309.2617 L173.8354,319.2617 L39.5776,319.2617 " fill="transparent" style="stroke:#000000;stroke-width:1.5;"/><text fill="#000000" font-family="sans-serif" font-size="14" lengthAdjust="spacing" textLength="134.2578" x="42.5776" y="313.96">Config Polling Thread</text><ellipse cx="458.8091" cy="339.2617" fill="#222222" rx="10" ry="10" style="stroke:#222222;stroke-width:1;"/><polygon fill="#F1F1F1" points="420.8059,423.2305,496.8123,423.2305,508.8123,435.2305,496.8123,447.2305,420.8059,447.2305,408.8059,435.2305,420.8059,423.2305" style="stroke:#181818;stroke-width:0.5;"/><text fill="#000000" font-family="sans-serif" font-size="11" lengthAdjust="spacing" textLength="76.0063" x="420.8059" y="439.0386">Polling Enabled</text><text fill="#000000" font-family="sans-serif" font-size="11" lengthAdjust="spacing" textLength="16.2261" x="392.5798" y="432.6362">yes</text><text fill="#000000" font-family="sans-serif" font-size="11" lengthAdjust="spacing" textLength="12.8262" x="508.8123" y="432.6362">no</text><rect fill="#F1F1F1" height="33.9688" rx="12.5" ry="12.5" style="stroke:#181818;stroke-width:0.5;" width="86.6211" x="273.0786" y="457.2305"/><text fill="#000000" font-family="sans-serif" font-size="12" lengthAdjust="spacing" textLength="66.6211" x="283.0786" y="478.3691">Fetch Config</text><polygon fill="#F1F1F1" points="297.2976,511.1992,335.4807,511.1992,347.4807,523.1992,335.4807,535.1992,297.2976,535.1992,285.2976,523.1992,297.2976,511.1992" style="stroke:#181818;stroke-width:0.5;"/><text fill="#000000" font-family="sans-serif" font-size="11" lengthAdjust="spacing" textLength="38.1831" x="297.2976" y="527.0073">Success</text><text fill="#000000" font-family="sans-serif" font-size="11" lengthAdjust="spacing" textLength="16.2261" x="269.0715" y="520.605">yes</text><text fill="#000000" font-family="sans-serif" font-size="11" lengthAdjust="spacing" textLength="12.8262" x="347.4807" y="520.605">no</text><rect fill="#F1F1F1" height="33.9688" rx="12.5" ry="12.5" style="stroke:#181818;stroke-width:0.5;" width="96.916" x="149.4321" y="545.1992"/><text fill="#000000" font-family="sans-serif" font-size="12" lengthAdjust="spacing" textLength="76.916" x="159.4321" y="566.3379">Update Config</text><rect fill="#F1F1F1" height="33.9688" rx="12.5" ry="12.5" style="stroke:#181818;stroke-width:0.5;" width="256.625" x="69.5776" y="611.6445"/><text fill="#000000" font-family="sans-serif" font-size="12" lengthAdjust="spacing" textLength="236.625" x="79.5776" y="632.7832">Send Config Updated Event to EventHandler</text><rect fill="#F1F1F1" height="33.9688" rx="12.5" ry="12.5" style="stroke:#181818;stroke-width:0.5;" width="80.3398" x="394.7183" y="545.1992"/><text fill="#000000" font-family="sans-serif" font-size="12" lengthAdjust="spacing" textLength="60.3398" x="404.7183" y="566.3379">Retry Fetch</text><polygon fill="#F1F1F1" points="397.3577,665.6133,472.4187,665.6133,484.4187,677.6133,472.4187,689.6133,397.3577,689.6133,385.3577,677.6133,397.3577,665.6133" style="stroke:#181818;stroke-width:0.5;"/><text fill="#000000" font-family="sans-serif" font-size="11" lengthAdjust="spacing" textLength="12.8262" x="438.8882" y="699.8237">no</text><text fill="#000000" font-family="sans-serif" font-size="11" lengthAdjust="spacing" textLength="75.061" x="397.3577" y="681.4214">Retryable Error</text><text fill="#000000" font-family="sans-serif" font-size="11" lengthAdjust="spacing" textLength="16.2261" x="484.4187" y="675.019">yes</text><rect fill="#F1F1F1" height="33.9688" rx="12.5" ry="12.5" style="stroke:#181818;stroke-width:0.5;" width="177.3711" x="346.2026" y="721.3237"/><text fill="#000000" font-family="sans-serif" font-size="12" lengthAdjust="spacing" textLength="157.3711" x="356.2026" y="742.4624">Return error to EventHandler</text><rect fill="#F1F1F1" height="33.9688" rx="12.5" ry="12.5" style="stroke:#181818;stroke-width:0.5;" width="95.3105" x="553.5737" y="457.2305"/><text fill="#000000" font-family="sans-serif" font-size="12" lengthAdjust="spacing" textLength="75.3105" x="563.5737" y="478.3691">Cancel Polling</text><rect fill="#F1F1F1" height="33.9688" rx="12.5" ry="12.5" style="stroke:#181818;stroke-width:0.5;" width="101.1875" x="408.2153" y="369.2617"/><text fill="#000000" font-family="sans-serif" font-size="12" lengthAdjust="spacing" textLength="81.1875" x="418.2153" y="390.4004">Polling Interval</text><polygon fill="#F1F1F1" points="420.8059,775.2925,496.8123,775.2925,508.8123,787.2925,496.8123,799.2925,420.8059,799.2925,408.8059,787.2925,420.8059,775.2925" style="stroke:#181818;stroke-width:0.5;"/><text fill="#000000" font-family="sans-serif" font-size="11" lengthAdjust="spacing" textLength="76.0063" x="420.8059" y="791.1006">Polling Enabled</text><text fill="#000000" font-family="sans-serif" font-size="11" lengthAdjust="spacing" textLength="16.2261" x="508.8123" y="784.6982">yes</text><ellipse cx="458.8091" cy="830.2925" fill="transparent" rx="11" ry="11" style="stroke:#222222;stroke-width:1;"/><ellipse cx="458.8091" cy="830.2925" fill="#222222" rx="6" ry="6" style="stroke:#222222;stroke-width:1;"/><rect fill="transparent" height="498.5742" style="stroke:#000000;stroke-width:1.5;" width="881.6182" x="21" y="863.2925"/><path d="M209.4795,863.2925 L209.4795,872.5894 L199.4795,882.5894 L21,882.5894 " fill="transparent" style="stroke:#000000;stroke-width:1.5;"/><text fill="#000000" font-family="sans-serif" font-size="14" lengthAdjust="spacing" textLength="178.4795" x="24" y="877.2876">Config Consolidation Thread</text><polygon fill="#F1F1F1" points="432.0879,936.5894,485.5303,936.5894,497.5303,948.5894,485.5303,960.5894,432.0879,960.5894,420.0879,948.5894,432.0879,936.5894" style="stroke:#181818;stroke-width:0.5;"/><text fill="#000000" font-family="sans-serif" font-size="11" lengthAdjust="spacing" textLength="53.4424" x="432.0879" y="952.3975">Event Type</text><rect fill="#F1F1F1" height="33.9688" rx="12.5" ry="12.5" style="stroke:#181818;stroke-width:0.5;" width="133.4082" x="119.5342" y="980.5894"/><text fill="#000000" font-family="sans-serif" font-size="12" lengthAdjust="spacing" textLength="113.4082" x="129.5342" y="1001.728">New Config Available</text><rect fill="#F1F1F1" height="33.9688" rx="12.5" ry="12.5" style="stroke:#181818;stroke-width:0.5;" width="306.4766" x="33" y="1034.5581"/><text fill="#000000" font-family="sans-serif" font-size="12" lengthAdjust="spacing" textLength="286.4766" x="43" y="1055.6968">Fetch Config with minimum Last-Modified timestamp</text><rect fill="#F1F1F1" height="33.9688" rx="12.5" ry="12.5" style="stroke:#181818;stroke-width:0.5;" width="103.9473" x="402.9751" y="980.5894"/><text fill="#000000" font-family="sans-serif" font-size="12" lengthAdjust="spacing" textLength="83.9473" x="412.9751" y="1001.728">Config Updated</text><rect fill="#F1F1F1" height="33.9688" rx="12.5" ry="12.5" style="stroke:#181818;stroke-width:0.5;" width="81.5645" x="414.1665" y="1082.9604"/><text fill="#000000" font-family="sans-serif" font-size="12" lengthAdjust="spacing" textLength="61.5645" x="424.1665" y="1104.0991">Disable SSE</text><rect fill="#F1F1F1" height="33.9688" rx="12.5" ry="12.5" style="stroke:#181818;stroke-width:0.5;" width="105.6758" x="402.1108" y="1151.9292"/><text fill="#000000" font-family="sans-serif" font-size="12" lengthAdjust="spacing" textLength="85.6758" x="412.1108" y="1173.0679">Update SSE URL</text><rect fill="#F1F1F1" height="33.9688" rx="12.5" ry="12.5" style="stroke:#181818;stroke-width:0.5;" width="131.9785" x="388.9595" y="1205.8979"/><text fill="#000000" font-family="sans-serif" font-size="12" lengthAdjust="spacing" textLength="111.9785" x="398.9595" y="1227.0366">Start SSE Connection</text><polygon fill="#F1F1F1" points="371.4766,1034.5581,538.4209,1034.5581,550.4209,1046.5581,538.4209,1058.5581,371.4766,1058.5581,359.4766,1046.5581,371.4766,1034.5581" style="stroke:#181818;stroke-width:0.5;"/><text fill="#000000" font-family="sans-serif" font-size="11" lengthAdjust="spacing" textLength="16.2261" x="458.9487" y="1068.7686">yes</text><text fill="#000000" font-family="sans-serif" font-size="11" lengthAdjust="spacing" textLength="166.9443" x="371.4766" y="1050.3662">SSE URL is different than existing?</text><text fill="#000000" font-family="sans-serif" font-size="11" lengthAdjust="spacing" textLength="12.8262" x="550.4209" y="1043.9639">no</text><polygon fill="#F1F1F1" points="454.9487,1259.8667,466.9487,1271.8667,454.9487,1283.8667,442.9487,1271.8667,454.9487,1259.8667" style="stroke:#181818;stroke-width:0.5;"/><rect fill="#F1F1F1" height="33.9688" rx="12.5" ry="12.5" style="stroke:#181818;stroke-width:0.5;" width="134.082" x="582.4209" y="980.5894"/><text fill="#000000" font-family="sans-serif" font-size="12" lengthAdjust="spacing" textLength="114.082" x="592.4209" y="1001.728">SSE Connection Error</text><rect fill="#F1F1F1" height="33.9688" rx="12.5" ry="12.5" style="stroke:#181818;stroke-width:0.5;" width="81.5645" x="608.6797" y="1034.5581"/><text fill="#000000" font-family="sans-serif" font-size="12" lengthAdjust="spacing" textLength="61.5645" x="618.6797" y="1055.6968">Disable SSE</text><rect fill="#F1F1F1" height="33.9688" rx="12.5" ry="12.5" style="stroke:#181818;stroke-width:0.5;" width="126.0957" x="586.4141" y="1103.5269"/><text fill="#000000" font-family="sans-serif" font-size="12" lengthAdjust="spacing" textLength="106.0957" x="596.4141" y="1124.6655">Start Polling Thread</text><rect fill="#F1F1F1" height="33.9688" rx="12.5" ry="12.5" style="stroke:#181818;stroke-width:0.5;" width="148.1152" x="726.5029" y="980.5894"/><text fill="#000000" font-family="sans-serif" font-size="12" lengthAdjust="spacing" textLength="128.1152" x="736.5029" y="1001.728">SSE Connection Success</text><rect fill="#F1F1F1" height="33.9688" rx="12.5" ry="12.5" style="stroke:#181818;stroke-width:0.5;" width="99.2129" x="750.9541" y="1034.5581"/><text fill="#000000" font-family="sans-serif" font-size="12" lengthAdjust="spacing" textLength="79.2129" x="760.9541" y="1055.6968">Disable Polling</text><polygon fill="#F1F1F1" points="458.8091,1303.8667,458.8091,1303.8667,470.8091,1315.8667,458.8091,1327.8667,458.8091,1327.8667,446.8091,1315.8667,458.8091,1303.8667" style="stroke:#181818;stroke-width:0.5;"/><polygon fill="#F1F1F1" points="421.8962,892.5894,495.7219,892.5894,507.7219,904.5894,495.7219,916.5894,421.8962,916.5894,409.8962,904.5894,421.8962,892.5894" style="stroke:#181818;stroke-width:0.5;"/><text fill="#000000" font-family="sans-serif" font-size="11" lengthAdjust="spacing" textLength="73.8257" x="421.8962" y="908.3975">Event Received</text><line style="stroke:#181818;stroke-width:1;" x1="458.8091" x2="458.8091" y1="133.5938" y2="157.9961"/><polygon fill="#181818" points="454.8091,147.9961,458.8091,157.9961,462.8091,147.9961,458.8091,151.9961" style="stroke:#181818;stroke-width:1;"/><line style="stroke:#181818;stroke-width:1;" x1="551.2197" x2="569.6177" y1="121.5938" y2="121.5938"/><polygon fill="#181818" points="565.6177,164.9805,569.6177,174.9805,573.6177,164.9805,569.6177,168.9805" style="stroke:#181818;stroke-width:1;"/><line style="stroke:#181818;stroke-width:1;" x1="569.6177" x2="569.6177" y1="121.5938" y2="223.9648"/><line style="stroke:#181818;stroke-width:1;" x1="569.6177" x2="470.8091" y1="223.9648" y2="223.9648"/><polygon fill="#181818" points="480.8091,219.9648,470.8091,223.9648,480.8091,227.9648,476.8091,223.9648" style="stroke:#181818;stroke-width:1;"/><line style="stroke:#181818;stroke-width:1;" x1="458.8091" x2="458.8091" y1="191.9648" y2="211.9648"/><polygon fill="#181818" points="454.8091,201.9648,458.8091,211.9648,462.8091,201.9648,458.8091,205.9648" style="stroke:#181818;stroke-width:1;"/><line style="stroke:#181818;stroke-width:1;" x1="458.8091" x2="458.8091" y1="89.5938" y2="109.5938"/><polygon fill="#181818" points="454.8091,99.5938,458.8091,109.5938,462.8091,99.5938,458.8091,103.5938" style="stroke:#181818;stroke-width:1;"/><line style="stroke:#181818;stroke-width:1;" x1="458.8091" x2="458.8091" y1="235.9648" y2="255.9648"/><polygon fill="#181818" points="454.8091,245.9648,458.8091,255.9648,462.8091,245.9648,458.8091,249.9648" style="stroke:#181818;stroke-width:1;"/><line style="stroke:#181818;stroke-width:1;" x1="197.8901" x2="197.8901" y1="579.168" y2="611.6445"/><polygon fill="#181818" points="193.8901,601.6445,197.8901,611.6445,201.8901,601.6445,197.8901,605.6445" style="stroke:#181818;stroke-width:1;"/><line style="stroke:#181818;stroke-width:1;" x1="434.8882" x2="434.8882" y1="579.168" y2="665.6133"/><polygon fill="#181818" points="430.8882,655.6133,434.8882,665.6133,438.8882,655.6133,434.8882,659.6133" style="stroke:#181818;stroke-width:1;"/><line style="stroke:#181818;stroke-width:1;" x1="484.4187" x2="496.4187" y1="677.6133" y2="677.6133"/><polygon fill="#181818" points="492.4187,632.1523,496.4187,622.1523,500.4187,632.1523,496.4187,628.1523" style="stroke:#181818;stroke-width:1;"/><line style="stroke:#181818;stroke-width:1;" x1="496.4187" x2="496.4187" y1="562.1836" y2="677.6133"/><line style="stroke:#181818;stroke-width:1;" x1="496.4187" x2="475.0581" y1="562.1836" y2="562.1836"/><polygon fill="#181818" points="485.0581,558.1836,475.0581,562.1836,485.0581,566.1836,481.0581,562.1836" style="stroke:#181818;stroke-width:1;"/><line style="stroke:#181818;stroke-width:1;" x1="434.8882" x2="434.8882" y1="689.6133" y2="721.3237"/><polygon fill="#181818" points="430.8882,711.3237,434.8882,721.3237,438.8882,711.3237,434.8882,715.3237" style="stroke:#181818;stroke-width:1;"/><line style="stroke:#181818;stroke-width:1;" x1="285.2976" x2="197.8901" y1="523.1992" y2="523.1992"/><line style="stroke:#181818;stroke-width:1;" x1="197.8901" x2="197.8901" y1="523.1992" y2="545.1992"/><polygon fill="#181818" points="193.8901,535.1992,197.8901,545.1992,201.8901,535.1992,197.8901,539.1992" style="stroke:#181818;stroke-width:1;"/><line style="stroke:#181818;stroke-width:1;" x1="347.4807" x2="434.8882" y1="523.1992" y2="523.1992"/><line style="stroke:#181818;stroke-width:1;" x1="434.8882" x2="434.8882" y1="523.1992" y2="545.1992"/><polygon fill="#181818" points="430.8882,535.1992,434.8882,545.1992,438.8882,535.1992,434.8882,539.1992" style="stroke:#181818;stroke-width:1;"/><line style="stroke:#181818;stroke-width:1;" x1="197.8901" x2="197.8901" y1="645.6133" y2="760.2925"/><line style="stroke:#181818;stroke-width:1;" x1="197.8901" x2="458.8091" y1="760.2925" y2="760.2925"/><line style="stroke:#181818;stroke-width:1;" x1="458.8091" x2="458.8091" y1="760.2925" y2="775.2925"/><polygon fill="#181818" points="454.8091,765.2925,458.8091,775.2925,462.8091,765.2925,458.8091,769.2925" style="stroke:#181818;stroke-width:1;"/><line style="stroke:#181818;stroke-width:1;" x1="316.3892" x2="316.3892" y1="491.1992" y2="511.1992"/><polygon fill="#181818" points="312.3892,501.1992,316.3892,511.1992,320.3892,501.1992,316.3892,505.1992" style="stroke:#181818;stroke-width:1;"/><line style="stroke:#181818;stroke-width:1;" x1="408.8059" x2="316.3892" y1="435.2305" y2="435.2305"/><line style="stroke:#181818;stroke-width:1;" x1="316.3892" x2="316.3892" y1="435.2305" y2="457.2305"/><polygon fill="#181818" points="312.3892,447.2305,316.3892,457.2305,320.3892,447.2305,316.3892,451.2305" style="stroke:#181818;stroke-width:1;"/><line style="stroke:#181818;stroke-width:1;" x1="508.8123" x2="601.229" y1="435.2305" y2="435.2305"/><line style="stroke:#181818;stroke-width:1;" x1="601.229" x2="601.229" y1="435.2305" y2="457.2305"/><polygon fill="#181818" points="597.229,447.2305,601.229,457.2305,605.229,447.2305,601.229,451.2305" style="stroke:#181818;stroke-width:1;"/><line style="stroke:#181818;stroke-width:1;" x1="458.8091" x2="458.8091" y1="403.2305" y2="423.2305"/><polygon fill="#181818" points="454.8091,413.2305,458.8091,423.2305,462.8091,413.2305,458.8091,417.2305" style="stroke:#181818;stroke-width:1;"/><line style="stroke:#181818;stroke-width:1;" x1="508.8123" x2="670.8843" y1="787.2925" y2="787.2925"/><polygon fill="#181818" points="666.8843,599.168,670.8843,589.168,674.8843,599.168,670.8843,595.168" style="stroke:#181818;stroke-width:1;"/><line style="stroke:#181818;stroke-width:1;" x1="670.8843" x2="670.8843" y1="386.2461" y2="787.2925"/><line style="stroke:#181818;stroke-width:1;" x1="670.8843" x2="509.4028" y1="386.2461" y2="386.2461"/><polygon fill="#181818" points="519.4028,382.2461,509.4028,386.2461,519.4028,390.2461,515.4028,386.2461" style="stroke:#181818;stroke-width:1;"/><line style="stroke:#181818;stroke-width:1;" x1="458.8091" x2="458.8091" y1="349.2617" y2="369.2617"/><polygon fill="#181818" points="454.8091,359.2617,458.8091,369.2617,462.8091,359.2617,458.8091,363.2617" style="stroke:#181818;stroke-width:1;"/><line style="stroke:#181818;stroke-width:1;" x1="458.8091" x2="458.8091" y1="799.2925" y2="819.2925"/><polygon fill="#181818" points="454.8091,809.2925,458.8091,819.2925,462.8091,809.2925,458.8091,813.2925" style="stroke:#181818;stroke-width:1;"/><line style="stroke:#181818;stroke-width:1;" x1="186.2383" x2="186.2383" y1="1014.5581" y2="1034.5581"/><polygon fill="#181818" points="182.2383,1024.5581,186.2383,1034.5581,190.2383,1024.5581,186.2383,1028.5581" style="stroke:#181818;stroke-width:1;"/><line style="stroke:#181818;stroke-width:1;" x1="454.9487" x2="454.9487" y1="1116.9292" y2="1151.9292"/><polygon fill="#181818" points="450.9487,1141.9292,454.9487,1151.9292,458.9487,1141.9292,454.9487,1145.9292" style="stroke:#181818;stroke-width:1;"/><line style="stroke:#181818;stroke-width:1;" x1="454.9487" x2="454.9487" y1="1185.8979" y2="1205.8979"/><polygon fill="#181818" points="450.9487,1195.8979,454.9487,1205.8979,458.9487,1195.8979,454.9487,1199.8979" style="stroke:#181818;stroke-width:1;"/><line style="stroke:#181818;stroke-width:1;" x1="454.9487" x2="454.9487" y1="1058.5581" y2="1082.9604"/><polygon fill="#181818" points="450.9487,1072.9604,454.9487,1082.9604,458.9487,1072.9604,454.9487,1076.9604" style="stroke:#181818;stroke-width:1;"/><line style="stroke:#181818;stroke-width:1;" x1="550.4209" x2="562.4209" y1="1046.5581" y2="1046.5581"/><polygon fill="#181818" points="558.4209,1158.9136,562.4209,1168.9136,566.4209,1158.9136,562.4209,1162.9136" style="stroke:#181818;stroke-width:1;"/><line style="stroke:#181818;stroke-width:1;" x1="562.4209" x2="562.4209" y1="1046.5581" y2="1271.8667"/><line style="stroke:#181818;stroke-width:1;" x1="562.4209" x2="466.9487" y1="1271.8667" y2="1271.8667"/><polygon fill="#181818" points="476.9487,1267.8667,466.9487,1271.8667,476.9487,1275.8667,472.9487,1271.8667" style="stroke:#181818;stroke-width:1;"/><line style="stroke:#181818;stroke-width:1;" x1="454.9487" x2="454.9487" y1="1239.8667" y2="1259.8667"/><polygon fill="#181818" points="450.9487,1249.8667,454.9487,1259.8667,458.9487,1249.8667,454.9487,1253.8667" style="stroke:#181818;stroke-width:1;"/><line style="stroke:#181818;stroke-width:1;" x1="454.9487" x2="454.9487" y1="1014.5581" y2="1034.5581"/><polygon fill="#181818" points="450.9487,1024.5581,454.9487,1034.5581,458.9487,1024.5581,454.9487,1028.5581" style="stroke:#181818;stroke-width:1;"/><line style="stroke:#181818;stroke-width:1;" x1="649.4619" x2="649.4619" y1="1014.5581" y2="1034.5581"/><polygon fill="#181818" points="645.4619,1024.5581,649.4619,1034.5581,653.4619,1024.5581,649.4619,1028.5581" style="stroke:#181818;stroke-width:1;"/><line style="stroke:#181818;stroke-width:1;" x1="649.4619" x2="649.4619" y1="1068.5269" y2="1103.5269"/><polygon fill="#181818" points="645.4619,1093.5269,649.4619,1103.5269,653.4619,1093.5269,649.4619,1097.5269" style="stroke:#181818;stroke-width:1;"/><line style="stroke:#181818;stroke-width:1;" x1="800.5605" x2="800.5605" y1="1014.5581" y2="1034.5581"/><polygon fill="#181818" points="796.5605,1024.5581,800.5605,1034.5581,804.5605,1024.5581,800.5605,1028.5581" style="stroke:#181818;stroke-width:1;"/><line style="stroke:#181818;stroke-width:1;" x1="420.0879" x2="186.2383" y1="948.5894" y2="948.5894"/><line style="stroke:#181818;stroke-width:1;" x1="186.2383" x2="186.2383" y1="948.5894" y2="980.5894"/><polygon fill="#181818" points="182.2383,970.5894,186.2383,980.5894,190.2383,970.5894,186.2383,974.5894" style="stroke:#181818;stroke-width:1;"/><line style="stroke:#181818;stroke-width:1;" x1="497.5303" x2="800.5605" y1="948.5894" y2="948.5894"/><line style="stroke:#181818;stroke-width:1;" x1="800.5605" x2="800.5605" y1="948.5894" y2="980.5894"/><polygon fill="#181818" points="796.5605,970.5894,800.5605,980.5894,804.5605,970.5894,800.5605,974.5894" style="stroke:#181818;stroke-width:1;"/><line style="stroke:#181818;stroke-width:1;" x1="458.8091" x2="458.8091" y1="960.5894" y2="967.256"/><line style="stroke:#181818;stroke-width:1;" x1="458.8091" x2="454.9487" y1="967.256" y2="967.256"/><line style="stroke:#181818;stroke-width:1;" x1="454.9487" x2="454.9487" y1="967.256" y2="980.5894"/><polygon fill="#181818" points="450.9487,970.5894,454.9487,980.5894,458.9487,970.5894,454.9487,974.5894" style="stroke:#181818;stroke-width:1;"/><line style="stroke:#181818;stroke-width:1;" x1="649.4619" x2="649.4619" y1="948.5894" y2="980.5894"/><polygon fill="#181818" points="645.4619,970.5894,649.4619,980.5894,653.4619,970.5894,649.4619,974.5894" style="stroke:#181818;stroke-width:1;"/><line style="stroke:#181818;stroke-width:1;" x1="186.2383" x2="186.2383" y1="1068.5269" y2="1315.8667"/><line style="stroke:#181818;stroke-width:1;" x1="186.2383" x2="446.8091" y1="1315.8667" y2="1315.8667"/><polygon fill="#181818" points="436.8091,1311.8667,446.8091,1315.8667,436.8091,1319.8667,440.8091,1315.8667" style="stroke:#181818;stroke-width:1;"/><line style="stroke:#181818;stroke-width:1;" x1="800.5605" x2="800.5605" y1="1068.5269" y2="1315.8667"/><line style="stroke:#181818;stroke-width:1;" x1="800.5605" x2="470.8091" y1="1315.8667" y2="1315.8667"/><polygon fill="#181818" points="480.8091,1311.8667,470.8091,1315.8667,480.8091,1319.8667,476.8091,1315.8667" style="stroke:#181818;stroke-width:1;"/><line style="stroke:#181818;stroke-width:1;" x1="454.9487" x2="454.9487" y1="1283.8667" y2="1288.8667"/><line style="stroke:#181818;stroke-width:1;" x1="454.9487" x2="458.8091" y1="1288.8667" y2="1288.8667"/><line style="stroke:#181818;stroke-width:1;" x1="458.8091" x2="458.8091" y1="1288.8667" y2="1303.8667"/><polygon fill="#181818" points="454.8091,1293.8667,458.8091,1303.8667,462.8091,1293.8667,458.8091,1297.8667" style="stroke:#181818;stroke-width:1;"/><line style="stroke:#181818;stroke-width:1;" x1="649.4619" x2="649.4619" y1="1137.4956" y2="1315.8667"/><polygon fill="#181818" points="645.4619,1305.8667,649.4619,1315.8667,653.4619,1305.8667,649.4619,1309.8667" style="stroke:#181818;stroke-width:1;"/><line style="stroke:#181818;stroke-width:1;" x1="458.8091" x2="458.8091" y1="916.5894" y2="936.5894"/><polygon fill="#181818" points="454.8091,926.5894,458.8091,936.5894,462.8091,926.5894,458.8091,930.5894" style="stroke:#181818;stroke-width:1;"/><line style="stroke:#181818;stroke-width:1;" x1="458.8091" x2="458.8091" y1="1327.8667" y2="1337.8667"/><line style="stroke:#181818;stroke-width:1;" x1="458.8091" x2="886.6182" y1="1337.8667" y2="1337.8667"/><polygon fill="#181818" points="882.6182,1177.4292,886.6182,1167.4292,890.6182,1177.4292,886.6182,1173.4292" style="stroke:#181818;stroke-width:1;"/><line style="stroke:#181818;stroke-width:1;" x1="886.6182" x2="886.6182" y1="904.5894" y2="1337.8667"/><line style="stroke:#181818;stroke-width:1;" x1="886.6182" x2="507.7219" y1="904.5894" y2="904.5894"/><polygon fill="#181818" points="517.7219,900.5894,507.7219,904.5894,517.7219,908.5894,513.7219,904.5894" style="stroke:#181818;stroke-width:1;"/><!--SRC=[bLHDRzim3BtxL_2sv93j7WCRXZJ32hJ5aBIdOGTDOcAYicH8ihFirqyVTXmrTe7fH8lKutlKipxSORSvSucmqUf0HtXaYXtH54UZssPsqphJSgVDftj5ZfYalyoHLeLrpBW2_A83B7GJDkt7ExBijyGTCkcenfT6C8Ts2Qv21Gkbb_54MEjz01ZQXaPQaeZOy5mPPAACjIWjmkBiGTAd4dJmpNLJ-10YpIANy4DBIUhOermHDTWWSx0U2kwLGzCnMLv81Ib3Tgk24Z5mlp2u2FY6ZbTzqp9B1PXzopbQEtiyGgJvJ6Aa6GMDlQnKAs3ReNBWT0g-CoKacl5icjVrfA-bxz2PCqJcvLJ1gI9la4Ki2_9XQumsIo2R983IxXOzmBP60ORYUMfXlPAK8zTucVFCrnkcEChXHaUa6PHSnCr53Y9kx9FxPygBHSJlWTCDx90ZTHutfko9WXlwtFEvmL46Pq7Ocv4zuMbe-BLZ90F7SjvWuF4hg4bHtTRmmAnRFMglcxmZmf_cNLutvVijSoDDM7Q_XPVTGvYJHpwWYKQhcB_OFsITd-MNz-tS__tWWSfPi_TTfjmUNuIGzqmLyZ3_l6pQtBcD9gNdeCdLRwOzIxxdbJyhvN_rwn-3cOwPlRsOvAKYnj5oFbpzh4W8LBzMd_sNGCTynMZXI_GF]--></g></svg>