<?xml version="1.0" encoding="UTF-8" standalone="no"?><svg xmlns="http://www.w3.org/2000/svg" xmlns:xlink="http://www.w3.org/1999/xlink" contentScriptType="application/ecmascript" contentStyleType="text/css" height="621px" preserveAspectRatio="none" style="width:590px;height:621px;" version="1.1" viewBox="0 0 590 621" width="590px" zoomAndPan="magnify"><defs><filter height="300%" id="f1bq6ykp9bt2iw" width="300%" x="-1" y="-1"><feGaussianBlur result="blurOut" stdDeviation="2.0"/><feColorMatrix in="blurOut" result="blurOut2" type="matrix" values="0 0 0 0 0 0 0 0 0 0 0 0 0 0 0 0 0 0 .4 0"/><feOffset dx="4.0" dy="4.0" in="blurOut2" result="blurOut3"/><feBlend in="SourceGraphic" in2="blurOut3" mode="normal"/></filter></defs><g><rect fill="#FFFFFF" filter="url(#f1bq6ykp9bt2iw)" height="593.4063" style="stroke:#000000;stroke-width:2.0;" width="562" x="11" y="11"/><path d="M114,11 L114,20.2969 L104,30.2969 L11,30.2969 " fill="none" style="stroke:#000000;stroke-width:2.0;"/><text fill="#000000" font-family="sans-serif" font-size="14" lengthAdjust="spacing" textLength="93" x="14" y="24.9951">Event Manager</text><rect fill="#FFFFFF" filter="url(#f1bq6ykp9bt2iw)" height="191.2656" style="stroke:#000000;stroke-width:2.0;" width="542" x="21" y="40.2969"/><path d="M190,40.2969 L190,49.5938 L180,59.5938 L21,59.5938 " fill="none" style="stroke:#000000;stroke-width:2.0;"/><text fill="#000000" font-family="sans-serif" font-size="14" lengthAdjust="spacing" textLength="159" x="24" y="54.292">Constructor/Initialization</text><ellipse cx="259" cy="79.5938" fill="#000000" filter="url(#f1bq6ykp9bt2iw)" rx="10" ry="10" style="stroke:none;stroke-width:1.0;"/><polygon fill="#FEFECE" filter="url(#f1bq6ykp9bt2iw)" points="65,109.5938,453,109.5938,465,121.5938,453,133.5938,65,133.5938,53,121.5938,65,109.5938" style="stroke:#A80036;stroke-width:1.5;"/><text fill="#000000" font-family="sans-serif" font-size="11" lengthAdjust="spacing" textLength="388" x="65" y="125.4019">options.DisableAutomaticEventLogging and options.DisableCustomEventLogging</text><text fill="#000000" font-family="sans-serif" font-size="11" lengthAdjust="spacing" textLength="17" x="36" y="118.9995">yes</text><text fill="#000000" font-family="sans-serif" font-size="11" lengthAdjust="spacing" textLength="12" x="465" y="118.9995">no</text><ellipse cx="43" cy="153.5938" fill="#FFFFFF" filter="url(#f1bq6ykp9bt2iw)" rx="10" ry="10" style="stroke:#000000;stroke-width:1.5;"/><line style="stroke:#000000;stroke-width:2.5;" x1="36.8128" x2="49.1872" y1="147.4066" y2="159.7809"/><line style="stroke:#000000;stroke-width:2.5;" x1="49.1872" x2="36.8128" y1="147.4066" y2="159.7809"/><rect fill="#FEFECE" filter="url(#f1bq6ykp9bt2iw)" height="33.9688" rx="12.5" ry="12.5" style="stroke:#A80036;stroke-width:1.5;" width="152" x="399" y="143.5938"/><text fill="#000000" font-family="sans-serif" font-size="12" lengthAdjust="spacing" textLength="132" x="409" y="164.7324">Start Event Flush Thread</text><ellipse cx="259" cy="208.5625" fill="#FFFFFF" filter="url(#f1bq6ykp9bt2iw)" rx="11" ry="11" style="stroke:#000000;stroke-width:1.0;"/><ellipse cx="259" cy="208.5625" fill="#000000" rx="6" ry="6" style="stroke:#7F7F7F;stroke-width:1.0;"/><rect fill="#FFFFFF" filter="url(#f1bq6ykp9bt2iw)" height="350.8438" style="stroke:#000000;stroke-width:2.0;" width="260" x="127.5" y="241.5625"/><path d="M257.5,241.5625 L257.5,250.8594 L247.5,260.8594 L127.5,260.8594 " fill="none" style="stroke:#000000;stroke-width:2.0;"/><text fill="#000000" font-family="sans-serif" font-size="14" lengthAdjust="spacing" textLength="120" x="130.5" y="255.5576">Event Flush Thread</text><polygon fill="#FEFECE" filter="url(#f1bq6ykp9bt2iw)" points="232,328.4688,286,328.4688,298,340.4688,286,352.4688,232,352.4688,220,340.4688,232,328.4688" style="stroke:#A80036;stroke-width:1.5;"/><text fill="#000000" font-family="sans-serif" font-size="11" lengthAdjust="spacing" textLength="54" x="232" y="344.2769">Event Type</text><rect fill="#FEFECE" filter="url(#f1bq6ykp9bt2iw)" height="33.9688" rx="12.5" ry="12.5" style="stroke:#A80036;stroke-width:1.5;" width="93" x="161.5" y="372.4688"/><text fill="#000000" font-family="sans-serif" font-size="12" lengthAdjust="spacing" textLength="73" x="171.5" y="393.6074">Flush Interval</text><rect fill="#FEFECE" filter="url(#f1bq6ykp9bt2iw)" height="33.9688" rx="12.5" ry="12.5" style="stroke:#A80036;stroke-width:1.5;" width="82" x="274.5" y="372.4688"/><text fill="#000000" font-family="sans-serif" font-size="12" lengthAdjust="spacing" textLength="62" x="284.5" y="393.6074">Force Flush</text><polygon fill="#FEFECE" filter="url(#f1bq6ykp9bt2iw)" points="259,440.4375,259,440.4375,271,452.4375,259,464.4375,259,464.4375,247,452.4375,259,440.4375" style="stroke:#A80036;stroke-width:1.5;"/><rect fill="#FEFECE" filter="url(#f1bq6ykp9bt2iw)" height="33.9688" rx="12.5" ry="12.5" style="stroke:#A80036;stroke-width:1.5;" width="87" x="215.5" y="484.4375"/><text fill="#000000" font-family="sans-serif" font-size="12" lengthAdjust="spacing" textLength="67" x="225.5" y="505.5762">Flush Events</text><polygon fill="#FEFECE" filter="url(#f1bq6ykp9bt2iw)" points="221.5,272.7583,296.5,272.7583,308.5,284.7583,296.5,296.7583,221.5,296.7583,209.5,284.7583,221.5,272.7583" style="stroke:#A80036;stroke-width:1.5;"/><text fill="#000000" font-family="sans-serif" font-size="11" lengthAdjust="spacing" textLength="68" x="263" y="306.9688">not Flush Stop</text><text fill="#000000" font-family="sans-serif" font-size="11" lengthAdjust="spacing" textLength="75" x="221.5" y="288.5664">Event Received</text><text fill="#000000" font-family="sans-serif" font-size="11" lengthAdjust="spacing" textLength="49" x="160.5" y="282.1641">Flush Stop</text><ellipse cx="259" cy="570.4063" fill="#FFFFFF" filter="url(#f1bq6ykp9bt2iw)" rx="10" ry="10" style="stroke:#000000;stroke-width:1.5;"/><line style="stroke:#000000;stroke-width:2.5;" x1="252.8128" x2="265.1872" y1="564.2191" y2="576.5934"/><line style="stroke:#000000;stroke-width:2.5;" x1="265.1872" x2="252.8128" y1="564.2191" y2="576.5934"/><line style="stroke:#A80036;stroke-width:1.5;" x1="53" x2="43" y1="121.5938" y2="121.5938"/><line style="stroke:#A80036;stroke-width:1.5;" x1="43" x2="43" y1="121.5938" y2="143.5938"/><polygon fill="#A80036" points="39,133.5938,43,143.5938,47,133.5938,43,137.5938" style="stroke:#A80036;stroke-width:1.0;"/><line style="stroke:#A80036;stroke-width:1.5;" x1="465" x2="475" y1="121.5938" y2="121.5938"/><line style="stroke:#A80036;stroke-width:1.5;" x1="475" x2="475" y1="121.5938" y2="143.5938"/><polygon fill="#A80036" points="471,133.5938,475,143.5938,479,133.5938,475,137.5938" style="stroke:#A80036;stroke-width:1.0;"/><line style="stroke:#A80036;stroke-width:1.5;" x1="475" x2="475" y1="177.5625" y2="182.5625"/><line style="stroke:#A80036;stroke-width:1.5;" x1="475" x2="259" y1="182.5625" y2="182.5625"/><line style="stroke:#A80036;stroke-width:1.5;" x1="259" x2="259" y1="182.5625" y2="197.5625"/><polygon fill="#A80036" points="255,187.5625,259,197.5625,263,187.5625,259,191.5625" style="stroke:#A80036;stroke-width:1.0;"/><line style="stroke:#A80036;stroke-width:1.5;" x1="259" x2="259" y1="89.5938" y2="109.5938"/><polygon fill="#A80036" points="255,99.5938,259,109.5938,263,99.5938,259,103.5938" style="stroke:#A80036;stroke-width:1.0;"/><line style="stroke:#A80036;stroke-width:1.5;" x1="220" x2="208" y1="340.4688" y2="340.4688"/><line style="stroke:#A80036;stroke-width:1.5;" x1="208" x2="208" y1="340.4688" y2="372.4688"/><polygon fill="#A80036" points="204,362.4688,208,372.4688,212,362.4688,208,366.4688" style="stroke:#A80036;stroke-width:1.0;"/><line style="stroke:#A80036;stroke-width:1.5;" x1="298" x2="315.5" y1="340.4688" y2="340.4688"/><line style="stroke:#A80036;stroke-width:1.5;" x1="315.5" x2="315.5" y1="340.4688" y2="372.4688"/><polygon fill="#A80036" points="311.5,362.4688,315.5,372.4688,319.5,362.4688,315.5,366.4688" style="stroke:#A80036;stroke-width:1.0;"/><line style="stroke:#A80036;stroke-width:1.5;" x1="208" x2="208" y1="406.4375" y2="452.4375"/><line style="stroke:#A80036;stroke-width:1.5;" x1="208" x2="247" y1="452.4375" y2="452.4375"/><polygon fill="#A80036" points="237,448.4375,247,452.4375,237,456.4375,241,452.4375" style="stroke:#A80036;stroke-width:1.0;"/><line style="stroke:#A80036;stroke-width:1.5;" x1="315.5" x2="315.5" y1="406.4375" y2="452.4375"/><line style="stroke:#A80036;stroke-width:1.5;" x1="315.5" x2="271" y1="452.4375" y2="452.4375"/><polygon fill="#A80036" points="281,448.4375,271,452.4375,281,456.4375,277,452.4375" style="stroke:#A80036;stroke-width:1.0;"/><line style="stroke:#A80036;stroke-width:1.5;" x1="259" x2="259" y1="464.4375" y2="484.4375"/><polygon fill="#A80036" points="255,474.4375,259,484.4375,263,474.4375,259,478.4375" style="stroke:#A80036;stroke-width:1.0;"/><line style="stroke:#A80036;stroke-width:1.5;" x1="259" x2="259" y1="296.7583" y2="328.4688"/><polygon fill="#A80036" points="255,318.4688,259,328.4688,263,318.4688,259,322.4688" style="stroke:#A80036;stroke-width:1.0;"/><line style="stroke:#A80036;stroke-width:1.5;" x1="259" x2="259" y1="518.4063" y2="528.4063"/><line style="stroke:#A80036;stroke-width:1.5;" x1="259" x2="368.5" y1="528.4063" y2="528.4063"/><polygon fill="#A80036" points="364.5,430.4375,368.5,420.4375,372.5,430.4375,368.5,426.4375" style="stroke:#A80036;stroke-width:1.5;"/><line style="stroke:#A80036;stroke-width:1.5;" x1="368.5" x2="368.5" y1="284.7583" y2="528.4063"/><line style="stroke:#A80036;stroke-width:1.5;" x1="368.5" x2="308.5" y1="284.7583" y2="284.7583"/><polygon fill="#A80036" points="318.5,280.7583,308.5,284.7583,318.5,288.7583,314.5,284.7583" style="stroke:#A80036;stroke-width:1.0;"/><line style="stroke:#A80036;stroke-width:1.5;" x1="209.5" x2="149.5" y1="284.7583" y2="284.7583"/><polygon fill="#A80036" points="145.5,416.4375,149.5,426.4375,153.5,416.4375,149.5,420.4375" style="stroke:#A80036;stroke-width:1.5;"/><line style="stroke:#A80036;stroke-width:1.5;" x1="149.5" x2="149.5" y1="284.7583" y2="540.4063"/><line style="stroke:#A80036;stroke-width:1.5;" x1="149.5" x2="259" y1="540.4063" y2="540.4063"/><line style="stroke:#A80036;stroke-width:1.5;" x1="259" x2="259" y1="540.4063" y2="560.4063"/><polygon fill="#A80036" points="255,550.4063,259,560.4063,263,550.4063,259,554.4063" style="stroke:#A80036;stroke-width:1.0;"/><!--MD5=[ecc5c043a78e2864d000e1bcfcde94f5]
@startuml
'DevCycle Config Manager
group Event Manager
group Constructor/Initialization
start
    if (options.DisableAutomaticEventLogging and options.DisableCustomEventLogging) then (yes)
        end
    else (no)
        :Start Event Flush Thread;
    endif
stop
end group

group Event Flush Thread
while (Event Received) is (not Flush Stop)
    switch (Event Type)
        case ()
            :Flush Interval;
        case ()
            :Force Flush;
    endswitch
    :Flush Events;
endwhile (Flush Stop)
end
end group
end group

@enduml

@startuml
group Event Manager
group Constructor/Initialization
start
    if (options.DisableAutomaticEventLogging and options.DisableCustomEventLogging) then (yes)
        end
    else (no)
        :Start Event Flush Thread;
    endif
stop
end group

group Event Flush Thread
while (Event Received) is (not Flush Stop)
    switch (Event Type)
        case ()
            :Flush Interval;
        case ()
            :Force Flush;
    endswitch
    :Flush Events;
endwhile (Flush Stop)
end
end group
end group

@enduml

PlantUML version 1.2021.01(Tue Feb 02 07:55:08 GMT 2021)
(GPL source distribution)
Java Runtime: OpenJDK Runtime Environment
JVM: OpenJDK 64-Bit Server VM
Default Encoding: UTF-8
Language: en
Country: US
--></g></svg>