<svg xmlns="http://www.w3.org/2000/svg" xmlns:xlink="http://www.w3.org/1999/xlink" contentStyleType="text/css" data-diagram-type="ACTIVITY" height="994px" preserveAspectRatio="none" style="width:1706px;height:994px;background:#FFFFFF;" version="1.1" viewBox="0 0 1706 994" width="1706px" zoomAndPan="magnify"><defs/><g><ellipse cx="1318.3054" cy="20" fill="#222222" rx="10" ry="10" style="stroke:#222222;stroke-width:1;"/><rect fill="#F1F1F1" height="33.9688" rx="12.5" ry="12.5" style="stroke:#181818;stroke-width:0.5;" width="216.6289" x="1209.991" y="50"/><text fill="#000000" font-family="sans-serif" font-size="12" lengthAdjust="spacing" textLength="196.6289" x="1219.991" y="71.1387">new DevCycleClient(sdkKey, options)</text><rect fill="transparent" height="793.8711" style="stroke:#000000;stroke-width:1.5;" width="1684.0322" x="11" y="93.9688"/><path d="M178.7188,93.9688 L178.7188,103.2656 L168.7188,113.2656 L11,113.2656 " fill="transparent" style="stroke:#000000;stroke-width:1.5;"/><text fill="#000000" font-family="sans-serif" font-size="14" lengthAdjust="spacing" textLength="157.7188" x="14" y="107.9639">Constructor/Initialization</text><polygon fill="#F1F1F1" points="1267.5244,130.2656,1369.0864,130.2656,1381.0864,142.2656,1369.0864,154.2656,1267.5244,154.2656,1255.5244,142.2656,1267.5244,130.2656" style="stroke:#181818;stroke-width:0.5;"/><text fill="#000000" font-family="sans-serif" font-size="11" lengthAdjust="spacing" textLength="101.562" x="1267.5244" y="146.0737">Valid Server SDK Key</text><text fill="#000000" font-family="sans-serif" font-size="11" lengthAdjust="spacing" textLength="16.2261" x="1239.2983" y="139.6714">yes</text><text fill="#000000" font-family="sans-serif" font-size="11" lengthAdjust="spacing" textLength="12.8262" x="1381.0864" y="139.6714">no</text><polygon fill="#F1F1F1" points="949.179,164.2656,1081.8396,164.2656,1093.8396,176.2656,1081.8396,188.2656,949.179,188.2656,937.179,176.2656,949.179,164.2656" style="stroke:#181818;stroke-width:0.5;"/><text fill="#000000" font-family="sans-serif" font-size="11" lengthAdjust="spacing" textLength="132.6606" x="949.179" y="180.0737">options.UseLocalBucketing</text><text fill="#000000" font-family="sans-serif" font-size="11" lengthAdjust="spacing" textLength="16.2261" x="920.9529" y="173.6714">yes</text><text fill="#000000" font-family="sans-serif" font-size="11" lengthAdjust="spacing" textLength="12.8262" x="1093.8396" y="173.6714">no</text><rect fill="#555555" height="6" rx="2.5" ry="2.5" style="stroke:#555555;stroke-width:1;" width="1264.9331" x="23" y="198.2656"/><rect fill="transparent" height="90.2656" style="stroke:#000000;stroke-width:1.5;" width="176.4609" x="35" y="415.2344"/><path d="M201.4609,415.2344 L201.4609,424.5313 L191.4609,434.5313 L35,434.5313 " fill="transparent" style="stroke:#000000;stroke-width:1.5;"/><text fill="#000000" font-family="sans-serif" font-size="14" lengthAdjust="spacing" textLength="156.4609" x="38" y="429.2295">Initialize Config Manager</text><rect fill="#F1F1F1" height="33.9688" rx="12.5" ry="12.5" style="stroke:#181818;stroke-width:0.5;" width="154.1094" x="46.1758" y="451.5313"/><text fill="#000000" font-family="sans-serif" font-size="12" lengthAdjust="spacing" textLength="134.1094" x="56.1758" y="472.6699">Initialize Config Manager</text><rect fill="transparent" height="90.2656" style="stroke:#000000;stroke-width:1.5;" width="170.7871" x="221.4609" y="415.2344"/><path d="M382.248,415.2344 L382.248,424.5313 L372.248,434.5313 L221.4609,434.5313 " fill="transparent" style="stroke:#000000;stroke-width:1.5;"/><text fill="#000000" font-family="sans-serif" font-size="14" lengthAdjust="spacing" textLength="150.7871" x="224.4609" y="429.2295">Initialize Event Manager</text><rect fill="#F1F1F1" height="33.9688" rx="12.5" ry="12.5" style="stroke:#181818;stroke-width:0.5;" width="149.2461" x="232.2314" y="451.5313"/><text fill="#000000" font-family="sans-serif" font-size="12" lengthAdjust="spacing" textLength="129.2461" x="242.2314" y="472.6699">Initialize Event Manager</text><polygon fill="#F1F1F1" points="758.8546,224.2656,928.0923,224.2656,940.0923,236.2656,928.0923,248.2656,758.8546,248.2656,746.8546,236.2656,758.8546,224.2656" style="stroke:#181818;stroke-width:0.5;"/><text fill="#000000" font-family="sans-serif" font-size="11" lengthAdjust="spacing" textLength="169.2378" x="758.8546" y="240.0737">options.ConfigEventHandler exists</text><text fill="#000000" font-family="sans-serif" font-size="11" lengthAdjust="spacing" textLength="16.2261" x="730.6285" y="233.6714">yes</text><text fill="#000000" font-family="sans-serif" font-size="11" lengthAdjust="spacing" textLength="12.8262" x="940.0923" y="233.6714">no</text><rect fill="#555555" height="6" rx="2.5" ry="2.5" style="stroke:#555555;stroke-width:1;" width="476.7402" x="402.248" y="258.2656"/><rect fill="transparent" height="333.2031" style="stroke:#000000;stroke-width:1.5;" width="450.7402" x="414.248" y="284.2656"/><path d="M545.6133,284.2656 L545.6133,293.5625 L535.6133,303.5625 L414.248,303.5625 " fill="transparent" style="stroke:#000000;stroke-width:1.5;"/><text fill="#000000" font-family="sans-serif" font-size="14" lengthAdjust="spacing" textLength="121.3652" x="417.248" y="298.2607">Initial Fetch Thread</text><rect fill="#F1F1F1" height="33.9688" rx="12.5" ry="12.5" style="stroke:#181818;stroke-width:0.5;" width="120.623" x="515.4392" y="320.5625"/><text fill="#000000" font-family="sans-serif" font-size="12" lengthAdjust="spacing" textLength="100.623" x="525.4392" y="341.7012">Fetch Initial Config</text><polygon fill="#F1F1F1" points="556.6592,389.5313,594.8423,389.5313,606.8423,401.5313,594.8423,413.5313,556.6592,413.5313,544.6592,401.5313,556.6592,389.5313" style="stroke:#181818;stroke-width:0.5;"/><text fill="#000000" font-family="sans-serif" font-size="11" lengthAdjust="spacing" textLength="38.1831" x="556.6592" y="405.3394">Success</text><text fill="#000000" font-family="sans-serif" font-size="11" lengthAdjust="spacing" textLength="16.2261" x="528.4331" y="398.937">yes</text><text fill="#000000" font-family="sans-serif" font-size="11" lengthAdjust="spacing" textLength="12.8262" x="606.8423" y="398.937">no</text><rect fill="#F1F1F1" height="33.9688" rx="12.5" ry="12.5" style="stroke:#181818;stroke-width:0.5;" width="103.3203" x="426.248" y="423.5313"/><text fill="#000000" font-family="sans-serif" font-size="12" lengthAdjust="spacing" textLength="83.3203" x="436.248" y="444.6699">Initialize Config</text><polygon fill="#F1F1F1" points="636.0627,423.5313,711.1238,423.5313,723.1238,435.5313,711.1238,447.5313,636.0627,447.5313,624.0627,435.5313,636.0627,423.5313" style="stroke:#181818;stroke-width:0.5;"/><text fill="#000000" font-family="sans-serif" font-size="11" lengthAdjust="spacing" textLength="75.061" x="636.0627" y="439.3394">Retryable Error</text><text fill="#000000" font-family="sans-serif" font-size="11" lengthAdjust="spacing" textLength="16.2261" x="607.8367" y="432.937">yes</text><text fill="#000000" font-family="sans-serif" font-size="11" lengthAdjust="spacing" textLength="12.8262" x="723.1238" y="432.937">no</text><rect fill="#F1F1F1" height="33.9688" rx="12.5" ry="12.5" style="stroke:#181818;stroke-width:0.5;" width="80.3398" x="559.5684" y="457.5313"/><text fill="#000000" font-family="sans-serif" font-size="12" lengthAdjust="spacing" textLength="60.3398" x="569.5684" y="478.6699">Retry Fetch</text><rect fill="#F1F1F1" height="33.9688" rx="12.5" ry="12.5" style="stroke:#181818;stroke-width:0.5;" width="175.0801" x="659.9082" y="457.5313"/><text fill="#000000" font-family="sans-serif" font-size="12" lengthAdjust="spacing" textLength="155.0801" x="669.9082" y="478.6699">return error to EventHandler</text><polygon fill="#F1F1F1" points="673.5933,497.5,685.5933,509.5,673.5933,521.5,661.5933,509.5,673.5933,497.5" style="stroke:#181818;stroke-width:0.5;"/><polygon fill="#F1F1F1" points="575.7507,527.5,587.7507,539.5,575.7507,551.5,563.7507,539.5,575.7507,527.5" style="stroke:#181818;stroke-width:0.5;"/><rect fill="#F1F1F1" height="33.9688" rx="12.5" ry="12.5" style="stroke:#181818;stroke-width:0.5;" width="135.3535" x="508.074" y="571.5"/><text fill="#000000" font-family="sans-serif" font-size="12" lengthAdjust="spacing" textLength="115.3535" x="518.074" y="592.6387">Send Initialized Event</text><rect fill="#555555" height="6" rx="2.5" ry="2.5" style="stroke:#555555;stroke-width:1;" width="476.7402" x="402.248" y="637.4688"/><rect fill="#F1F1F1" height="33.9688" rx="12.5" ry="12.5" style="stroke:#181818;stroke-width:0.5;" width="120.623" x="991.0172" y="258.2656"/><text fill="#000000" font-family="sans-serif" font-size="12" lengthAdjust="spacing" textLength="100.623" x="1001.0172" y="279.4043">Fetch Initial Config</text><polygon fill="#F1F1F1" points="1032.2372,327.2344,1070.4203,327.2344,1082.4203,339.2344,1070.4203,351.2344,1032.2372,351.2344,1020.2372,339.2344,1032.2372,327.2344" style="stroke:#181818;stroke-width:0.5;"/><text fill="#000000" font-family="sans-serif" font-size="11" lengthAdjust="spacing" textLength="38.1831" x="1032.2372" y="343.0425">Success</text><text fill="#000000" font-family="sans-serif" font-size="11" lengthAdjust="spacing" textLength="16.2261" x="1004.0111" y="336.6401">yes</text><text fill="#000000" font-family="sans-serif" font-size="11" lengthAdjust="spacing" textLength="12.8262" x="1082.4203" y="336.6401">no</text><rect fill="#F1F1F1" height="33.9688" rx="12.5" ry="12.5" style="stroke:#181818;stroke-width:0.5;" width="103.3203" x="908.9883" y="361.2344"/><text fill="#000000" font-family="sans-serif" font-size="12" lengthAdjust="spacing" textLength="83.3203" x="918.9883" y="382.373">Initialize Config</text><polygon fill="#F1F1F1" points="1104.4785,361.2344,1179.5396,361.2344,1191.5396,373.2344,1179.5396,385.2344,1104.4785,385.2344,1092.4785,373.2344,1104.4785,361.2344" style="stroke:#181818;stroke-width:0.5;"/><text fill="#000000" font-family="sans-serif" font-size="11" lengthAdjust="spacing" textLength="75.061" x="1104.4785" y="377.0425">Retryable Error</text><text fill="#000000" font-family="sans-serif" font-size="11" lengthAdjust="spacing" textLength="16.2261" x="1076.2524" y="370.6401">yes</text><text fill="#000000" font-family="sans-serif" font-size="11" lengthAdjust="spacing" textLength="12.8262" x="1191.5396" y="370.6401">no</text><rect fill="#F1F1F1" height="33.9688" rx="12.5" ry="12.5" style="stroke:#181818;stroke-width:0.5;" width="80.3398" x="1042.3086" y="395.2344"/><text fill="#000000" font-family="sans-serif" font-size="12" lengthAdjust="spacing" textLength="60.3398" x="1052.3086" y="416.373">Retry Fetch</text><rect fill="#F1F1F1" height="33.9688" rx="12.5" ry="12.5" style="stroke:#181818;stroke-width:0.5;" width="84.7871" x="1159.146" y="395.2344"/><text fill="#000000" font-family="sans-serif" font-size="12" lengthAdjust="spacing" textLength="64.7871" x="1169.146" y="416.373">Throw error</text><polygon fill="#F1F1F1" points="1051.3287,441.2031,1063.3287,453.2031,1051.3287,465.2031,1039.3287,453.2031,1051.3287,441.2031" style="stroke:#181818;stroke-width:0.5;"/><polygon fill="#F1F1F1" points="843.4734,649.4688,855.4734,661.4688,843.4734,673.4688,831.4734,661.4688,843.4734,649.4688" style="stroke:#181818;stroke-width:0.5;"/><rect fill="#555555" height="6" rx="2.5" ry="2.5" style="stroke:#555555;stroke-width:1;" width="1264.9331" x="23" y="693.4688"/><rect fill="#F1F1F1" height="33.9688" rx="12.5" ry="12.5" style="stroke:#181818;stroke-width:0.5;" width="163.7129" x="544.6101" y="767.8711"/><text fill="#000000" font-family="sans-serif" font-size="12" lengthAdjust="spacing" textLength="143.7129" x="554.6101" y="789.0098">Start Config Polling Thread</text><polygon fill="#F1F1F1" points="546.0559,719.4688,706.8772,719.4688,718.8772,731.4688,706.8772,743.4688,546.0559,743.4688,534.0559,731.4688,546.0559,719.4688" style="stroke:#181818;stroke-width:0.5;"/><text fill="#000000" font-family="sans-serif" font-size="11" lengthAdjust="spacing" textLength="16.2261" x="630.4666" y="753.6792">yes</text><text fill="#000000" font-family="sans-serif" font-size="11" lengthAdjust="spacing" textLength="160.8213" x="546.0559" y="735.2769">options.DisableRealtimeUpdates</text><text fill="#000000" font-family="sans-serif" font-size="11" lengthAdjust="spacing" textLength="12.8262" x="718.8772" y="728.8745">no</text><polygon fill="#F1F1F1" points="626.4666,821.8398,638.4666,833.8398,626.4666,845.8398,614.4666,833.8398,626.4666,821.8398" style="stroke:#181818;stroke-width:0.5;"/><rect fill="#F1F1F1" height="33.9688" rx="12.5" ry="12.5" style="stroke:#181818;stroke-width:0.5;" width="135.3535" x="1336.8752" y="246.668"/><text fill="#000000" font-family="sans-serif" font-size="12" lengthAdjust="spacing" textLength="115.3535" x="1346.8752" y="267.8066">Send Initialized Event</text><polygon fill="#F1F1F1" points="1319.9331,198.2656,1489.1709,198.2656,1501.1709,210.2656,1489.1709,222.2656,1319.9331,222.2656,1307.9331,210.2656,1319.9331,198.2656" style="stroke:#181818;stroke-width:0.5;"/><text fill="#000000" font-family="sans-serif" font-size="11" lengthAdjust="spacing" textLength="16.2261" x="1408.552" y="232.4761">yes</text><text fill="#000000" font-family="sans-serif" font-size="11" lengthAdjust="spacing" textLength="169.2378" x="1319.9331" y="214.0737">options.ConfigEventHandler exists</text><text fill="#000000" font-family="sans-serif" font-size="11" lengthAdjust="spacing" textLength="12.8262" x="1501.1709" y="207.6714">no</text><polygon fill="#F1F1F1" points="1404.552,305.0391,1416.552,317.0391,1404.552,329.0391,1392.552,317.0391,1404.552,305.0391" style="stroke:#181818;stroke-width:0.5;"/><polygon fill="#F1F1F1" points="1015.5093,851.8398,1027.5093,863.8398,1015.5093,875.8398,1003.5093,863.8398,1015.5093,851.8398" style="stroke:#181818;stroke-width:0.5;"/><rect fill="#F1F1F1" height="33.9688" rx="12.5" ry="12.5" style="stroke:#181818;stroke-width:0.5;" width="155.8613" x="1527.1709" y="164.2656"/><text fill="#000000" font-family="sans-serif" font-size="12" lengthAdjust="spacing" textLength="135.8613" x="1537.1709" y="185.4043">SDK Key Validation Failed</text><rect fill="#F1F1F1" height="33.9688" rx="12.5" ry="12.5" style="stroke:#181818;stroke-width:0.5;" width="84.7871" x="1562.708" y="233.2344"/><text fill="#000000" font-family="sans-serif" font-size="12" lengthAdjust="spacing" textLength="64.7871" x="1572.708" y="254.373">Throw error</text><rect fill="#F1F1F1" height="33.9688" rx="12.5" ry="12.5" style="stroke:#181818;stroke-width:0.5;" width="139.168" x="1248.7214" y="907.8398"/><text fill="#000000" font-family="sans-serif" font-size="12" lengthAdjust="spacing" textLength="119.168" x="1258.7214" y="928.9785">Return DevCycleClient</text><ellipse cx="1318.3054" cy="972.8086" fill="transparent" rx="11" ry="11" style="stroke:#222222;stroke-width:1;"/><ellipse cx="1318.3054" cy="972.8086" fill="#222222" rx="6" ry="6" style="stroke:#222222;stroke-width:1;"/><line style="stroke:#181818;stroke-width:1;" x1="1318.3054" x2="1318.3054" y1="30" y2="50"/><polygon fill="#181818" points="1314.3054,40,1318.3054,50,1322.3054,40,1318.3054,44" style="stroke:#181818;stroke-width:1;"/><line style="stroke:#181818;stroke-width:1;" x1="624.0627" x2="599.7383" y1="435.5313" y2="435.5313"/><line style="stroke:#181818;stroke-width:1;" x1="599.7383" x2="599.7383" y1="435.5313" y2="457.5313"/><polygon fill="#181818" points="595.7383,447.5313,599.7383,457.5313,603.7383,447.5313,599.7383,451.5313" style="stroke:#181818;stroke-width:1;"/><line style="stroke:#181818;stroke-width:1;" x1="723.1238" x2="747.4482" y1="435.5313" y2="435.5313"/><line style="stroke:#181818;stroke-width:1;" x1="747.4482" x2="747.4482" y1="435.5313" y2="457.5313"/><polygon fill="#181818" points="743.4482,447.5313,747.4482,457.5313,751.4482,447.5313,747.4482,451.5313" style="stroke:#181818;stroke-width:1;"/><line style="stroke:#181818;stroke-width:1;" x1="599.7383" x2="599.7383" y1="491.5" y2="509.5"/><line style="stroke:#181818;stroke-width:1;" x1="599.7383" x2="661.5933" y1="509.5" y2="509.5"/><polygon fill="#181818" points="651.5933,505.5,661.5933,509.5,651.5933,513.5,655.5933,509.5" style="stroke:#181818;stroke-width:1;"/><line style="stroke:#181818;stroke-width:1;" x1="747.4482" x2="747.4482" y1="491.5" y2="509.5"/><line style="stroke:#181818;stroke-width:1;" x1="747.4482" x2="685.5933" y1="509.5" y2="509.5"/><polygon fill="#181818" points="695.5933,505.5,685.5933,509.5,695.5933,513.5,691.5933,509.5" style="stroke:#181818;stroke-width:1;"/><line style="stroke:#181818;stroke-width:1;" x1="544.6592" x2="477.9082" y1="401.5313" y2="401.5313"/><line style="stroke:#181818;stroke-width:1;" x1="477.9082" x2="477.9082" y1="401.5313" y2="423.5313"/><polygon fill="#181818" points="473.9082,413.5313,477.9082,423.5313,481.9082,413.5313,477.9082,417.5313" style="stroke:#181818;stroke-width:1;"/><line style="stroke:#181818;stroke-width:1;" x1="606.8423" x2="673.5933" y1="401.5313" y2="401.5313"/><line style="stroke:#181818;stroke-width:1;" x1="673.5933" x2="673.5933" y1="401.5313" y2="423.5313"/><polygon fill="#181818" points="669.5933,413.5313,673.5933,423.5313,677.5933,413.5313,673.5933,417.5313" style="stroke:#181818;stroke-width:1;"/><line style="stroke:#181818;stroke-width:1;" x1="477.9082" x2="477.9082" y1="457.5" y2="539.5"/><line style="stroke:#181818;stroke-width:1;" x1="477.9082" x2="563.7507" y1="539.5" y2="539.5"/><polygon fill="#181818" points="553.7507,535.5,563.7507,539.5,553.7507,543.5,557.7507,539.5" style="stroke:#181818;stroke-width:1;"/><line style="stroke:#181818;stroke-width:1;" x1="673.5933" x2="673.5933" y1="521.5" y2="539.5"/><line style="stroke:#181818;stroke-width:1;" x1="673.5933" x2="587.7507" y1="539.5" y2="539.5"/><polygon fill="#181818" points="597.7507,535.5,587.7507,539.5,597.7507,543.5,593.7507,539.5" style="stroke:#181818;stroke-width:1;"/><line style="stroke:#181818;stroke-width:1;" x1="575.7507" x2="575.7507" y1="354.5313" y2="389.5313"/><polygon fill="#181818" points="571.7507,379.5313,575.7507,389.5313,579.7507,379.5313,575.7507,383.5313" style="stroke:#181818;stroke-width:1;"/><line style="stroke:#181818;stroke-width:1;" x1="575.7507" x2="575.7507" y1="551.5" y2="571.5"/><polygon fill="#181818" points="571.7507,561.5,575.7507,571.5,579.7507,561.5,575.7507,565.5" style="stroke:#181818;stroke-width:1;"/><line style="stroke:#181818;stroke-width:1;" x1="575.7507" x2="575.7507" y1="264.2656" y2="320.5625"/><polygon fill="#181818" points="571.7507,310.5625,575.7507,320.5625,579.7507,310.5625,575.7507,314.5625" style="stroke:#181818;stroke-width:1;"/><line style="stroke:#181818;stroke-width:1;" x1="575.7507" x2="575.7507" y1="605.4688" y2="637.4688"/><polygon fill="#181818" points="571.7507,627.4688,575.7507,637.4688,579.7507,627.4688,575.7507,631.4688" style="stroke:#181818;stroke-width:1;"/><line style="stroke:#181818;stroke-width:1;" x1="1092.4785" x2="1082.4785" y1="373.2344" y2="373.2344"/><line style="stroke:#181818;stroke-width:1;" x1="1082.4785" x2="1082.4785" y1="373.2344" y2="395.2344"/><polygon fill="#181818" points="1078.4785,385.2344,1082.4785,395.2344,1086.4785,385.2344,1082.4785,389.2344" style="stroke:#181818;stroke-width:1;"/><line style="stroke:#181818;stroke-width:1;" x1="1191.5396" x2="1201.5396" y1="373.2344" y2="373.2344"/><line style="stroke:#181818;stroke-width:1;" x1="1201.5396" x2="1201.5396" y1="373.2344" y2="395.2344"/><polygon fill="#181818" points="1197.5396,385.2344,1201.5396,395.2344,1205.5396,385.2344,1201.5396,389.2344" style="stroke:#181818;stroke-width:1;"/><line style="stroke:#181818;stroke-width:1;" x1="1082.4785" x2="1082.4785" y1="429.2031" y2="453.2031"/><line style="stroke:#181818;stroke-width:1;" x1="1082.4785" x2="1063.3287" y1="453.2031" y2="453.2031"/><polygon fill="#181818" points="1073.3287,449.2031,1063.3287,453.2031,1073.3287,457.2031,1069.3287,453.2031" style="stroke:#181818;stroke-width:1;"/><line style="stroke:#181818;stroke-width:1;" x1="1020.2372" x2="960.6484" y1="339.2344" y2="339.2344"/><line style="stroke:#181818;stroke-width:1;" x1="960.6484" x2="960.6484" y1="339.2344" y2="361.2344"/><polygon fill="#181818" points="956.6484,351.2344,960.6484,361.2344,964.6484,351.2344,960.6484,355.2344" style="stroke:#181818;stroke-width:1;"/><line style="stroke:#181818;stroke-width:1;" x1="1082.4203" x2="1142.009" y1="339.2344" y2="339.2344"/><line style="stroke:#181818;stroke-width:1;" x1="1142.009" x2="1142.009" y1="339.2344" y2="361.2344"/><polygon fill="#181818" points="1138.009,351.2344,1142.009,361.2344,1146.009,351.2344,1142.009,355.2344" style="stroke:#181818;stroke-width:1;"/><line style="stroke:#181818;stroke-width:1;" x1="960.6484" x2="960.6484" y1="395.2031" y2="453.2031"/><line style="stroke:#181818;stroke-width:1;" x1="960.6484" x2="1039.3287" y1="453.2031" y2="453.2031"/><polygon fill="#181818" points="1029.3287,449.2031,1039.3287,453.2031,1029.3287,457.2031,1033.3287,453.2031" style="stroke:#181818;stroke-width:1;"/><line style="stroke:#181818;stroke-width:1;" x1="1051.3287" x2="1051.3287" y1="292.2344" y2="327.2344"/><polygon fill="#181818" points="1047.3287,317.2344,1051.3287,327.2344,1055.3287,317.2344,1051.3287,321.2344" style="stroke:#181818;stroke-width:1;"/><line style="stroke:#181818;stroke-width:1;" x1="746.8546" x2="635.6182" y1="236.2656" y2="236.2656"/><line style="stroke:#181818;stroke-width:1;" x1="635.6182" x2="635.6182" y1="236.2656" y2="258.2656"/><polygon fill="#181818" points="631.6182,248.2656,635.6182,258.2656,639.6182,248.2656,635.6182,252.2656" style="stroke:#181818;stroke-width:1;"/><line style="stroke:#181818;stroke-width:1;" x1="940.0923" x2="1051.3287" y1="236.2656" y2="236.2656"/><line style="stroke:#181818;stroke-width:1;" x1="1051.3287" x2="1051.3287" y1="236.2656" y2="258.2656"/><polygon fill="#181818" points="1047.3287,248.2656,1051.3287,258.2656,1055.3287,248.2656,1051.3287,252.2656" style="stroke:#181818;stroke-width:1;"/><line style="stroke:#181818;stroke-width:1;" x1="635.6182" x2="635.6182" y1="643.4688" y2="661.4688"/><line style="stroke:#181818;stroke-width:1;" x1="635.6182" x2="831.4734" y1="661.4688" y2="661.4688"/><polygon fill="#181818" points="821.4734,657.4688,831.4734,661.4688,821.4734,665.4688,825.4734,661.4688" style="stroke:#181818;stroke-width:1;"/><line style="stroke:#181818;stroke-width:1;" x1="1051.3287" x2="1051.3287" y1="465.2031" y2="661.4688"/><line style="stroke:#181818;stroke-width:1;" x1="1051.3287" x2="855.4734" y1="661.4688" y2="661.4688"/><polygon fill="#181818" points="865.4734,657.4688,855.4734,661.4688,865.4734,665.4688,861.4734,661.4688" style="stroke:#181818;stroke-width:1;"/><line style="stroke:#181818;stroke-width:1;" x1="123.2305" x2="123.2305" y1="204.2656" y2="451.5313"/><polygon fill="#181818" points="119.2305,441.5313,123.2305,451.5313,127.2305,441.5313,123.2305,445.5313" style="stroke:#181818;stroke-width:1;"/><line style="stroke:#181818;stroke-width:1;" x1="306.8545" x2="306.8545" y1="204.2656" y2="451.5313"/><polygon fill="#181818" points="302.8545,441.5313,306.8545,451.5313,310.8545,441.5313,306.8545,445.5313" style="stroke:#181818;stroke-width:1;"/><line style="stroke:#181818;stroke-width:1;" x1="843.4734" x2="843.4734" y1="204.2656" y2="224.2656"/><polygon fill="#181818" points="839.4734,214.2656,843.4734,224.2656,847.4734,214.2656,843.4734,218.2656" style="stroke:#181818;stroke-width:1;"/><line style="stroke:#181818;stroke-width:1;" x1="123.2305" x2="123.2305" y1="485.5" y2="693.4688"/><polygon fill="#181818" points="119.2305,683.4688,123.2305,693.4688,127.2305,683.4688,123.2305,687.4688" style="stroke:#181818;stroke-width:1;"/><line style="stroke:#181818;stroke-width:1;" x1="306.8545" x2="306.8545" y1="485.5" y2="693.4688"/><polygon fill="#181818" points="302.8545,683.4688,306.8545,693.4688,310.8545,683.4688,306.8545,687.4688" style="stroke:#181818;stroke-width:1;"/><line style="stroke:#181818;stroke-width:1;" x1="843.4734" x2="843.4734" y1="673.4688" y2="693.4688"/><polygon fill="#181818" points="839.4734,683.4688,843.4734,693.4688,847.4734,683.4688,843.4734,687.4688" style="stroke:#181818;stroke-width:1;"/><line style="stroke:#181818;stroke-width:1;" x1="626.4666" x2="626.4666" y1="743.4688" y2="767.8711"/><polygon fill="#181818" points="622.4666,757.8711,626.4666,767.8711,630.4666,757.8711,626.4666,761.8711" style="stroke:#181818;stroke-width:1;"/><line style="stroke:#181818;stroke-width:1;" x1="718.8772" x2="730.8772" y1="731.4688" y2="731.4688"/><polygon fill="#181818" points="726.8772,774.8555,730.8772,784.8555,734.8772,774.8555,730.8772,778.8555" style="stroke:#181818;stroke-width:1;"/><line style="stroke:#181818;stroke-width:1;" x1="730.8772" x2="730.8772" y1="731.4688" y2="833.8398"/><line style="stroke:#181818;stroke-width:1;" x1="730.8772" x2="638.4666" y1="833.8398" y2="833.8398"/><polygon fill="#181818" points="648.4666,829.8398,638.4666,833.8398,648.4666,837.8398,644.4666,833.8398" style="stroke:#181818;stroke-width:1;"/><line style="stroke:#181818;stroke-width:1;" x1="626.4666" x2="626.4666" y1="801.8398" y2="821.8398"/><polygon fill="#181818" points="622.4666,811.8398,626.4666,821.8398,630.4666,811.8398,626.4666,815.8398" style="stroke:#181818;stroke-width:1;"/><line style="stroke:#181818;stroke-width:1;" x1="626.4666" x2="626.4666" y1="699.4688" y2="719.4688"/><polygon fill="#181818" points="622.4666,709.4688,626.4666,719.4688,630.4666,709.4688,626.4666,713.4688" style="stroke:#181818;stroke-width:1;"/><line style="stroke:#181818;stroke-width:1;" x1="1404.552" x2="1404.552" y1="222.2656" y2="246.668"/><polygon fill="#181818" points="1400.552,236.668,1404.552,246.668,1408.552,236.668,1404.552,240.668" style="stroke:#181818;stroke-width:1;"/><line style="stroke:#181818;stroke-width:1;" x1="1501.1709" x2="1513.1709" y1="210.2656" y2="210.2656"/><polygon fill="#181818" points="1509.1709,253.6523,1513.1709,263.6523,1517.1709,253.6523,1513.1709,257.6523" style="stroke:#181818;stroke-width:1;"/><line style="stroke:#181818;stroke-width:1;" x1="1513.1709" x2="1513.1709" y1="210.2656" y2="317.0391"/><line style="stroke:#181818;stroke-width:1;" x1="1513.1709" x2="1416.552" y1="317.0391" y2="317.0391"/><polygon fill="#181818" points="1426.552,313.0391,1416.552,317.0391,1426.552,321.0391,1422.552,317.0391" style="stroke:#181818;stroke-width:1;"/><line style="stroke:#181818;stroke-width:1;" x1="1404.552" x2="1404.552" y1="280.6367" y2="305.0391"/><polygon fill="#181818" points="1400.552,295.0391,1404.552,305.0391,1408.552,295.0391,1404.552,299.0391" style="stroke:#181818;stroke-width:1;"/><line style="stroke:#181818;stroke-width:1;" x1="937.179" x2="626.4666" y1="176.2656" y2="176.2656"/><line style="stroke:#181818;stroke-width:1;" x1="626.4666" x2="626.4666" y1="176.2656" y2="198.2656"/><polygon fill="#181818" points="622.4666,188.2656,626.4666,198.2656,630.4666,188.2656,626.4666,192.2656" style="stroke:#181818;stroke-width:1;"/><line style="stroke:#181818;stroke-width:1;" x1="1093.8396" x2="1404.552" y1="176.2656" y2="176.2656"/><line style="stroke:#181818;stroke-width:1;" x1="1404.552" x2="1404.552" y1="176.2656" y2="198.2656"/><polygon fill="#181818" points="1400.552,188.2656,1404.552,198.2656,1408.552,188.2656,1404.552,192.2656" style="stroke:#181818;stroke-width:1;"/><line style="stroke:#181818;stroke-width:1;" x1="626.4666" x2="626.4666" y1="845.8398" y2="863.8398"/><line style="stroke:#181818;stroke-width:1;" x1="626.4666" x2="1003.5093" y1="863.8398" y2="863.8398"/><polygon fill="#181818" points="993.5093,859.8398,1003.5093,863.8398,993.5093,867.8398,997.5093,863.8398" style="stroke:#181818;stroke-width:1;"/><line style="stroke:#181818;stroke-width:1;" x1="1404.552" x2="1404.552" y1="329.0391" y2="863.8398"/><line style="stroke:#181818;stroke-width:1;" x1="1404.552" x2="1027.5093" y1="863.8398" y2="863.8398"/><polygon fill="#181818" points="1037.5093,859.8398,1027.5093,863.8398,1037.5093,867.8398,1033.5093,863.8398" style="stroke:#181818;stroke-width:1;"/><line style="stroke:#181818;stroke-width:1;" x1="1605.1016" x2="1605.1016" y1="198.2344" y2="233.2344"/><polygon fill="#181818" points="1601.1016,223.2344,1605.1016,233.2344,1609.1016,223.2344,1605.1016,227.2344" style="stroke:#181818;stroke-width:1;"/><line style="stroke:#181818;stroke-width:1;" x1="1255.5244" x2="1015.5093" y1="142.2656" y2="142.2656"/><line style="stroke:#181818;stroke-width:1;" x1="1015.5093" x2="1015.5093" y1="142.2656" y2="164.2656"/><polygon fill="#181818" points="1011.5093,154.2656,1015.5093,164.2656,1019.5093,154.2656,1015.5093,158.2656" style="stroke:#181818;stroke-width:1;"/><line style="stroke:#181818;stroke-width:1;" x1="1381.0864" x2="1605.1016" y1="142.2656" y2="142.2656"/><line style="stroke:#181818;stroke-width:1;" x1="1605.1016" x2="1605.1016" y1="142.2656" y2="164.2656"/><polygon fill="#181818" points="1601.1016,154.2656,1605.1016,164.2656,1609.1016,154.2656,1605.1016,158.2656" style="stroke:#181818;stroke-width:1;"/><line style="stroke:#181818;stroke-width:1;" x1="1015.5093" x2="1015.5093" y1="875.8398" y2="880.8398"/><line style="stroke:#181818;stroke-width:1;" x1="1015.5093" x2="1318.3054" y1="880.8398" y2="880.8398"/><line style="stroke:#181818;stroke-width:1;" x1="1318.3054" x2="1318.3054" y1="880.8398" y2="907.8398"/><polygon fill="#181818" points="1314.3054,897.8398,1318.3054,907.8398,1322.3054,897.8398,1318.3054,901.8398" style="stroke:#181818;stroke-width:1;"/><line style="stroke:#181818;stroke-width:1;" x1="1318.3054" x2="1318.3054" y1="83.9688" y2="130.2656"/><polygon fill="#181818" points="1314.3054,120.2656,1318.3054,130.2656,1322.3054,120.2656,1318.3054,124.2656" style="stroke:#181818;stroke-width:1;"/><line style="stroke:#181818;stroke-width:1;" x1="1318.3054" x2="1318.3054" y1="941.8086" y2="961.8086"/><polygon fill="#181818" points="1314.3054,951.8086,1318.3054,961.8086,1322.3054,951.8086,1318.3054,955.8086" style="stroke:#181818;stroke-width:1;"/><!--SRC=[fLLDSy8W4BtdL-ojEjDfxycjHgSTsvcEgRtJP8sC21Q8DltrXM0qcNmOApVWyNZiMtRlGjnFyfWXH2ZtA24Av_32gQQ4qL-YgU1cvpj37YE4bAIIR3sbYTIUp_40vV49eyZrI2MREURt87Rsf1e7NYf5jeE9cMYPnLh8npgx1sRG5Om-pL9ILM68ng3No66KeneNm19yv7zOAdmLCM5FMRn1JNdQUiAEbP2Rse8JTXA3LkEAfl16E4bHrh1s-9tGe8P5dZZknlL0Ka9vluZfteHna8OQyWO9rN2wTnNCpuGdp3Y1FrHfrHdMrj0sNWOprF4QFjOIITA05YzpY1BlX0IjK2iuok8OLR-iRkFQUP4fX14NtKpsvWLgcPClys6cKWevI46XeZZe0X5q8YzhABWawanoGAi0j82gOptaFA4hxxeTFxB9T8vWukvgNjAUS-LE8qMw7pem4wx9WY4Pq1_v_pf_sVNBZllcsuY3CxlRt0rbx0flcwkjAqtZgkKYfCh6Ou64QRh5vIuX6lljy2FREye2-YuOCqNxM1Y20HbILzcEkRsY3ShwGG9FioRQFpOvA3gVQxKpGXbM0j7k_SbhHt_-UZRTR66eT-N0D6ony_u0]--></g></svg>