<?xml version="1.0" encoding="UTF-8" standalone="no"?><svg xmlns="http://www.w3.org/2000/svg" xmlns:xlink="http://www.w3.org/1999/xlink" contentScriptType="application/ecmascript" contentStyleType="text/css" height="1000px" preserveAspectRatio="none" style="width:1706px;height:1000px;" version="1.1" viewBox="0 0 1706 1000" width="1706px" zoomAndPan="magnify"><defs><filter height="300%" id="f16iw73r3ju3g9" width="300%" x="-1" y="-1"><feGaussianBlur result="blurOut" stdDeviation="2.0"/><feColorMatrix in="blurOut" result="blurOut2" type="matrix" values="0 0 0 0 0 0 0 0 0 0 0 0 0 0 0 0 0 0 .4 0"/><feOffset dx="4.0" dy="4.0" in="blurOut2" result="blurOut3"/><feBlend in="SourceGraphic" in2="blurOut3" mode="normal"/></filter></defs><g><ellipse cx="1312.9375" cy="20" fill="#000000" filter="url(#f16iw73r3ju3g9)" rx="10" ry="10" style="stroke:none;stroke-width:1.0;"/><rect fill="#FEFECE" filter="url(#f16iw73r3ju3g9)" height="33.9688" rx="12.5" ry="12.5" style="stroke:#A80036;stroke-width:1.5;" width="218" x="1203.9375" y="50"/><text fill="#000000" font-family="sans-serif" font-size="12" lengthAdjust="spacing" textLength="198" x="1213.9375" y="71.1387">new DevCycleClient(sdkKey, options)</text><rect fill="#FFFFFF" filter="url(#f16iw73r3ju3g9)" height="793.8711" style="stroke:#000000;stroke-width:2.0;" width="1678.5" x="11" y="93.9688"/><path d="M180,93.9688 L180,103.2656 L170,113.2656 L11,113.2656 " fill="none" style="stroke:#000000;stroke-width:2.0;"/><text fill="#000000" font-family="sans-serif" font-size="14" lengthAdjust="spacing" textLength="159" x="14" y="107.9639">Constructor/Initialization</text><polygon fill="#FEFECE" filter="url(#f16iw73r3ju3g9)" points="1260.9375,130.2656,1364.9375,130.2656,1376.9375,142.2656,1364.9375,154.2656,1260.9375,154.2656,1248.9375,142.2656,1260.9375,130.2656" style="stroke:#A80036;stroke-width:1.5;"/><text fill="#000000" font-family="sans-serif" font-size="11" lengthAdjust="spacing" textLength="104" x="1260.9375" y="146.0737">Valid Server SDK Key</text><text fill="#000000" font-family="sans-serif" font-size="11" lengthAdjust="spacing" textLength="17" x="1231.9375" y="139.6714">yes</text><text fill="#000000" font-family="sans-serif" font-size="11" lengthAdjust="spacing" textLength="12" x="1376.9375" y="139.6714">no</text><polygon fill="#FEFECE" filter="url(#f16iw73r3ju3g9)" points="947.375,164.2656,1075.375,164.2656,1087.375,176.2656,1075.375,188.2656,947.375,188.2656,935.375,176.2656,947.375,164.2656" style="stroke:#A80036;stroke-width:1.5;"/><text fill="#000000" font-family="sans-serif" font-size="11" lengthAdjust="spacing" textLength="128" x="947.375" y="180.0737">options.UseLocalBucketing</text><text fill="#000000" font-family="sans-serif" font-size="11" lengthAdjust="spacing" textLength="17" x="918.375" y="173.6714">yes</text><text fill="#000000" font-family="sans-serif" font-size="11" lengthAdjust="spacing" textLength="12" x="1087.375" y="173.6714">no</text><rect fill="#000000" filter="url(#f16iw73r3ju3g9)" height="6" rx="2.5" ry="2.5" style="stroke:#000000;stroke-width:1.0;" width="1260.5" x="23" y="198.2656"/><rect fill="#FFFFFF" filter="url(#f16iw73r3ju3g9)" height="90.2656" style="stroke:#000000;stroke-width:2.0;" width="177" x="35" y="415.2344"/><path d="M202,415.2344 L202,424.5313 L192,434.5313 L35,434.5313 " fill="none" style="stroke:#000000;stroke-width:2.0;"/><text fill="#000000" font-family="sans-serif" font-size="14" lengthAdjust="spacing" textLength="157" x="38" y="429.2295">Initialize Config Manager</text><rect fill="#FEFECE" filter="url(#f16iw73r3ju3g9)" height="33.9688" rx="12.5" ry="12.5" style="stroke:#A80036;stroke-width:1.5;" width="155" x="46" y="451.5313"/><text fill="#000000" font-family="sans-serif" font-size="12" lengthAdjust="spacing" textLength="135" x="56" y="472.6699">Initialize Config Manager</text><rect fill="#FFFFFF" filter="url(#f16iw73r3ju3g9)" height="90.2656" style="stroke:#000000;stroke-width:2.0;" width="173" x="222" y="415.2344"/><path d="M385,415.2344 L385,424.5313 L375,434.5313 L222,434.5313 " fill="none" style="stroke:#000000;stroke-width:2.0;"/><text fill="#000000" font-family="sans-serif" font-size="14" lengthAdjust="spacing" textLength="153" x="225" y="429.2295">Initialize Event Manager</text><rect fill="#FEFECE" filter="url(#f16iw73r3ju3g9)" height="33.9688" rx="12.5" ry="12.5" style="stroke:#A80036;stroke-width:1.5;" width="151" x="233" y="451.5313"/><text fill="#000000" font-family="sans-serif" font-size="12" lengthAdjust="spacing" textLength="131" x="243" y="472.6699">Initialize Event Manager</text><polygon fill="#FEFECE" filter="url(#f16iw73r3ju3g9)" points="759.375,224.2656,925.375,224.2656,937.375,236.2656,925.375,248.2656,759.375,248.2656,747.375,236.2656,759.375,224.2656" style="stroke:#A80036;stroke-width:1.5;"/><text fill="#000000" font-family="sans-serif" font-size="11" lengthAdjust="spacing" textLength="166" x="759.375" y="240.0737">options.ConfigEventHandler exists</text><text fill="#000000" font-family="sans-serif" font-size="11" lengthAdjust="spacing" textLength="17" x="730.375" y="233.6714">yes</text><text fill="#000000" font-family="sans-serif" font-size="11" lengthAdjust="spacing" textLength="12" x="937.375" y="233.6714">no</text><rect fill="#000000" filter="url(#f16iw73r3ju3g9)" height="6" rx="2.5" ry="2.5" style="stroke:#000000;stroke-width:1.0;" width="472" x="405" y="258.2656"/><rect fill="#FFFFFF" filter="url(#f16iw73r3ju3g9)" height="333.2031" style="stroke:#000000;stroke-width:2.0;" width="446" x="417" y="284.2656"/><path d="M550,284.2656 L550,293.5625 L540,303.5625 L417,303.5625 " fill="none" style="stroke:#000000;stroke-width:2.0;"/><text fill="#000000" font-family="sans-serif" font-size="14" lengthAdjust="spacing" textLength="123" x="420" y="298.2607">Initial Fetch Thread</text><rect fill="#FEFECE" filter="url(#f16iw73r3ju3g9)" height="33.9688" rx="12.5" ry="12.5" style="stroke:#A80036;stroke-width:1.5;" width="120" x="517.625" y="320.5625"/><text fill="#000000" font-family="sans-serif" font-size="12" lengthAdjust="spacing" textLength="100" x="527.625" y="341.7012">Fetch Initial Config</text><polygon fill="#FEFECE" filter="url(#f16iw73r3ju3g9)" points="558.625,389.5313,596.625,389.5313,608.625,401.5313,596.625,413.5313,558.625,413.5313,546.625,401.5313,558.625,389.5313" style="stroke:#A80036;stroke-width:1.5;"/><text fill="#000000" font-family="sans-serif" font-size="11" lengthAdjust="spacing" textLength="38" x="558.625" y="405.3394">Success</text><text fill="#000000" font-family="sans-serif" font-size="11" lengthAdjust="spacing" textLength="17" x="529.625" y="398.937">yes</text><text fill="#000000" font-family="sans-serif" font-size="11" lengthAdjust="spacing" textLength="12" x="608.625" y="398.937">no</text><rect fill="#FEFECE" filter="url(#f16iw73r3ju3g9)" height="33.9688" rx="12.5" ry="12.5" style="stroke:#A80036;stroke-width:1.5;" width="103" x="429" y="423.5313"/><text fill="#000000" font-family="sans-serif" font-size="12" lengthAdjust="spacing" textLength="83" x="439" y="444.6699">Initialize Config</text><polygon fill="#FEFECE" filter="url(#f16iw73r3ju3g9)" points="637.75,423.5313,711.75,423.5313,723.75,435.5313,711.75,447.5313,637.75,447.5313,625.75,435.5313,637.75,423.5313" style="stroke:#A80036;stroke-width:1.5;"/><text fill="#000000" font-family="sans-serif" font-size="11" lengthAdjust="spacing" textLength="74" x="637.75" y="439.3394">Retryable Error</text><text fill="#000000" font-family="sans-serif" font-size="11" lengthAdjust="spacing" textLength="17" x="608.75" y="432.937">yes</text><text fill="#000000" font-family="sans-serif" font-size="11" lengthAdjust="spacing" textLength="12" x="723.75" y="432.937">no</text><rect fill="#FEFECE" filter="url(#f16iw73r3ju3g9)" height="33.9688" rx="12.5" ry="12.5" style="stroke:#A80036;stroke-width:1.5;" width="80" x="562" y="457.5313"/><text fill="#000000" font-family="sans-serif" font-size="12" lengthAdjust="spacing" textLength="60" x="572" y="478.6699">Retry Fetch</text><rect fill="#FEFECE" filter="url(#f16iw73r3ju3g9)" height="33.9688" rx="12.5" ry="12.5" style="stroke:#A80036;stroke-width:1.5;" width="171" x="662" y="457.5313"/><text fill="#000000" font-family="sans-serif" font-size="12" lengthAdjust="spacing" textLength="151" x="672" y="478.6699">return error to EventHandler</text><polygon fill="#FEFECE" filter="url(#f16iw73r3ju3g9)" points="674.75,497.5,686.75,509.5,674.75,521.5,662.75,509.5,674.75,497.5" style="stroke:#A80036;stroke-width:1.5;"/><polygon fill="#FEFECE" filter="url(#f16iw73r3ju3g9)" points="577.625,527.5,589.625,539.5,577.625,551.5,565.625,539.5,577.625,527.5" style="stroke:#A80036;stroke-width:1.5;"/><rect fill="#FEFECE" filter="url(#f16iw73r3ju3g9)" height="33.9688" rx="12.5" ry="12.5" style="stroke:#A80036;stroke-width:1.5;" width="137" x="509.125" y="571.5"/><text fill="#000000" font-family="sans-serif" font-size="12" lengthAdjust="spacing" textLength="117" x="519.125" y="592.6387">Send Initialized Event</text><rect fill="#000000" filter="url(#f16iw73r3ju3g9)" height="6" rx="2.5" ry="2.5" style="stroke:#000000;stroke-width:1.0;" width="472" x="405" y="637.4688"/><rect fill="#FEFECE" filter="url(#f16iw73r3ju3g9)" height="33.9688" rx="12.5" ry="12.5" style="stroke:#A80036;stroke-width:1.5;" width="120" x="988.75" y="258.2656"/><text fill="#000000" font-family="sans-serif" font-size="12" lengthAdjust="spacing" textLength="100" x="998.75" y="279.4043">Fetch Initial Config</text><polygon fill="#FEFECE" filter="url(#f16iw73r3ju3g9)" points="1029.75,327.2344,1067.75,327.2344,1079.75,339.2344,1067.75,351.2344,1029.75,351.2344,1017.75,339.2344,1029.75,327.2344" style="stroke:#A80036;stroke-width:1.5;"/><text fill="#000000" font-family="sans-serif" font-size="11" lengthAdjust="spacing" textLength="38" x="1029.75" y="343.0425">Success</text><text fill="#000000" font-family="sans-serif" font-size="11" lengthAdjust="spacing" textLength="17" x="1000.75" y="336.6401">yes</text><text fill="#000000" font-family="sans-serif" font-size="11" lengthAdjust="spacing" textLength="12" x="1079.75" y="336.6401">no</text><rect fill="#FEFECE" filter="url(#f16iw73r3ju3g9)" height="33.9688" rx="12.5" ry="12.5" style="stroke:#A80036;stroke-width:1.5;" width="103" x="907" y="361.2344"/><text fill="#000000" font-family="sans-serif" font-size="12" lengthAdjust="spacing" textLength="83" x="917" y="382.373">Initialize Config</text><polygon fill="#FEFECE" filter="url(#f16iw73r3ju3g9)" points="1102,361.2344,1176,361.2344,1188,373.2344,1176,385.2344,1102,385.2344,1090,373.2344,1102,361.2344" style="stroke:#A80036;stroke-width:1.5;"/><text fill="#000000" font-family="sans-serif" font-size="11" lengthAdjust="spacing" textLength="74" x="1102" y="377.0425">Retryable Error</text><text fill="#000000" font-family="sans-serif" font-size="11" lengthAdjust="spacing" textLength="17" x="1073" y="370.6401">yes</text><text fill="#000000" font-family="sans-serif" font-size="11" lengthAdjust="spacing" textLength="12" x="1188" y="370.6401">no</text><rect fill="#FEFECE" filter="url(#f16iw73r3ju3g9)" height="33.9688" rx="12.5" ry="12.5" style="stroke:#A80036;stroke-width:1.5;" width="80" x="1040" y="395.2344"/><text fill="#000000" font-family="sans-serif" font-size="12" lengthAdjust="spacing" textLength="60" x="1050" y="416.373">Retry Fetch</text><rect fill="#FEFECE" filter="url(#f16iw73r3ju3g9)" height="33.9688" rx="12.5" ry="12.5" style="stroke:#A80036;stroke-width:1.5;" width="83" x="1156.5" y="395.2344"/><text fill="#000000" font-family="sans-serif" font-size="12" lengthAdjust="spacing" textLength="63" x="1166.5" y="416.373">Throw error</text><polygon fill="#FEFECE" filter="url(#f16iw73r3ju3g9)" points="1048.75,441.2031,1060.75,453.2031,1048.75,465.2031,1036.75,453.2031,1048.75,441.2031" style="stroke:#A80036;stroke-width:1.5;"/><polygon fill="#FEFECE" filter="url(#f16iw73r3ju3g9)" points="842.375,649.4688,854.375,661.4688,842.375,673.4688,830.375,661.4688,842.375,649.4688" style="stroke:#A80036;stroke-width:1.5;"/><rect fill="#000000" filter="url(#f16iw73r3ju3g9)" height="6" rx="2.5" ry="2.5" style="stroke:#000000;stroke-width:1.0;" width="1260.5" x="23" y="693.4688"/><rect fill="#FEFECE" filter="url(#f16iw73r3ju3g9)" height="33.9688" rx="12.5" ry="12.5" style="stroke:#A80036;stroke-width:1.5;" width="163" x="542.75" y="767.8711"/><text fill="#000000" font-family="sans-serif" font-size="12" lengthAdjust="spacing" textLength="143" x="552.75" y="789.0098">Start Config Polling Thread</text><polygon fill="#FEFECE" filter="url(#f16iw73r3ju3g9)" points="545.75,719.4688,702.75,719.4688,714.75,731.4688,702.75,743.4688,545.75,743.4688,533.75,731.4688,545.75,719.4688" style="stroke:#A80036;stroke-width:1.5;"/><text fill="#000000" font-family="sans-serif" font-size="11" lengthAdjust="spacing" textLength="17" x="628.25" y="753.6792">yes</text><text fill="#000000" font-family="sans-serif" font-size="11" lengthAdjust="spacing" textLength="157" x="545.75" y="735.2769">options.DisableRealtimeUpdates</text><text fill="#000000" font-family="sans-serif" font-size="11" lengthAdjust="spacing" textLength="12" x="714.75" y="728.8745">no</text><polygon fill="#FEFECE" filter="url(#f16iw73r3ju3g9)" points="624.25,821.8398,636.25,833.8398,624.25,845.8398,612.25,833.8398,624.25,821.8398" style="stroke:#A80036;stroke-width:1.5;"/><rect fill="#FEFECE" filter="url(#f16iw73r3ju3g9)" height="33.9688" rx="12.5" ry="12.5" style="stroke:#A80036;stroke-width:1.5;" width="137" x="1330" y="246.668"/><text fill="#000000" font-family="sans-serif" font-size="12" lengthAdjust="spacing" textLength="117" x="1340" y="267.8066">Send Initialized Event</text><polygon fill="#FEFECE" filter="url(#f16iw73r3ju3g9)" points="1315.5,198.2656,1481.5,198.2656,1493.5,210.2656,1481.5,222.2656,1315.5,222.2656,1303.5,210.2656,1315.5,198.2656" style="stroke:#A80036;stroke-width:1.5;"/><text fill="#000000" font-family="sans-serif" font-size="11" lengthAdjust="spacing" textLength="17" x="1402.5" y="232.4761">yes</text><text fill="#000000" font-family="sans-serif" font-size="11" lengthAdjust="spacing" textLength="166" x="1315.5" y="214.0737">options.ConfigEventHandler exists</text><text fill="#000000" font-family="sans-serif" font-size="11" lengthAdjust="spacing" textLength="12" x="1493.5" y="207.6714">no</text><polygon fill="#FEFECE" filter="url(#f16iw73r3ju3g9)" points="1398.5,305.0391,1410.5,317.0391,1398.5,329.0391,1386.5,317.0391,1398.5,305.0391" style="stroke:#A80036;stroke-width:1.5;"/><polygon fill="#FEFECE" filter="url(#f16iw73r3ju3g9)" points="1011.375,851.8398,1023.375,863.8398,1011.375,875.8398,999.375,863.8398,1011.375,851.8398" style="stroke:#A80036;stroke-width:1.5;"/><rect fill="#FEFECE" filter="url(#f16iw73r3ju3g9)" height="33.9688" rx="12.5" ry="12.5" style="stroke:#A80036;stroke-width:1.5;" width="158" x="1519.5" y="164.2656"/><text fill="#000000" font-family="sans-serif" font-size="12" lengthAdjust="spacing" textLength="138" x="1529.5" y="185.4043">SDK Key Validation Failed</text><rect fill="#FEFECE" filter="url(#f16iw73r3ju3g9)" height="33.9688" rx="12.5" ry="12.5" style="stroke:#A80036;stroke-width:1.5;" width="83" x="1557" y="233.2344"/><text fill="#000000" font-family="sans-serif" font-size="12" lengthAdjust="spacing" textLength="63" x="1567" y="254.373">Throw error</text><rect fill="#FEFECE" filter="url(#f16iw73r3ju3g9)" height="33.9688" rx="12.5" ry="12.5" style="stroke:#A80036;stroke-width:1.5;" width="138" x="1243.9375" y="907.8398"/><text fill="#000000" font-family="sans-serif" font-size="12" lengthAdjust="spacing" textLength="118" x="1253.9375" y="928.9785">Return DevCycleClient</text><ellipse cx="1312.9375" cy="972.8086" fill="#FFFFFF" filter="url(#f16iw73r3ju3g9)" rx="11" ry="11" style="stroke:#000000;stroke-width:1.0;"/><ellipse cx="1312.9375" cy="972.8086" fill="#000000" rx="6" ry="6" style="stroke:#7F7F7F;stroke-width:1.0;"/><line style="stroke:#A80036;stroke-width:1.5;" x1="1312.9375" x2="1312.9375" y1="30" y2="50"/><polygon fill="#A80036" points="1308.9375,40,1312.9375,50,1316.9375,40,1312.9375,44" style="stroke:#A80036;stroke-width:1.0;"/><line style="stroke:#A80036;stroke-width:1.5;" x1="625.75" x2="602" y1="435.5313" y2="435.5313"/><line style="stroke:#A80036;stroke-width:1.5;" x1="602" x2="602" y1="435.5313" y2="457.5313"/><polygon fill="#A80036" points="598,447.5313,602,457.5313,606,447.5313,602,451.5313" style="stroke:#A80036;stroke-width:1.0;"/><line style="stroke:#A80036;stroke-width:1.5;" x1="723.75" x2="747.5" y1="435.5313" y2="435.5313"/><line style="stroke:#A80036;stroke-width:1.5;" x1="747.5" x2="747.5" y1="435.5313" y2="457.5313"/><polygon fill="#A80036" points="743.5,447.5313,747.5,457.5313,751.5,447.5313,747.5,451.5313" style="stroke:#A80036;stroke-width:1.0;"/><line style="stroke:#A80036;stroke-width:1.5;" x1="602" x2="602" y1="491.5" y2="509.5"/><line style="stroke:#A80036;stroke-width:1.5;" x1="602" x2="662.75" y1="509.5" y2="509.5"/><polygon fill="#A80036" points="652.75,505.5,662.75,509.5,652.75,513.5,656.75,509.5" style="stroke:#A80036;stroke-width:1.0;"/><line style="stroke:#A80036;stroke-width:1.5;" x1="747.5" x2="747.5" y1="491.5" y2="509.5"/><line style="stroke:#A80036;stroke-width:1.5;" x1="747.5" x2="686.75" y1="509.5" y2="509.5"/><polygon fill="#A80036" points="696.75,505.5,686.75,509.5,696.75,513.5,692.75,509.5" style="stroke:#A80036;stroke-width:1.0;"/><line style="stroke:#A80036;stroke-width:1.5;" x1="546.625" x2="480.5" y1="401.5313" y2="401.5313"/><line style="stroke:#A80036;stroke-width:1.5;" x1="480.5" x2="480.5" y1="401.5313" y2="423.5313"/><polygon fill="#A80036" points="476.5,413.5313,480.5,423.5313,484.5,413.5313,480.5,417.5313" style="stroke:#A80036;stroke-width:1.0;"/><line style="stroke:#A80036;stroke-width:1.5;" x1="608.625" x2="674.75" y1="401.5313" y2="401.5313"/><line style="stroke:#A80036;stroke-width:1.5;" x1="674.75" x2="674.75" y1="401.5313" y2="423.5313"/><polygon fill="#A80036" points="670.75,413.5313,674.75,423.5313,678.75,413.5313,674.75,417.5313" style="stroke:#A80036;stroke-width:1.0;"/><line style="stroke:#A80036;stroke-width:1.5;" x1="480.5" x2="480.5" y1="457.5" y2="539.5"/><line style="stroke:#A80036;stroke-width:1.5;" x1="480.5" x2="565.625" y1="539.5" y2="539.5"/><polygon fill="#A80036" points="555.625,535.5,565.625,539.5,555.625,543.5,559.625,539.5" style="stroke:#A80036;stroke-width:1.0;"/><line style="stroke:#A80036;stroke-width:1.5;" x1="674.75" x2="674.75" y1="521.5" y2="539.5"/><line style="stroke:#A80036;stroke-width:1.5;" x1="674.75" x2="589.625" y1="539.5" y2="539.5"/><polygon fill="#A80036" points="599.625,535.5,589.625,539.5,599.625,543.5,595.625,539.5" style="stroke:#A80036;stroke-width:1.0;"/><line style="stroke:#A80036;stroke-width:1.5;" x1="577.625" x2="577.625" y1="354.5313" y2="389.5313"/><polygon fill="#A80036" points="573.625,379.5313,577.625,389.5313,581.625,379.5313,577.625,383.5313" style="stroke:#A80036;stroke-width:1.0;"/><line style="stroke:#A80036;stroke-width:1.5;" x1="577.625" x2="577.625" y1="551.5" y2="571.5"/><polygon fill="#A80036" points="573.625,561.5,577.625,571.5,581.625,561.5,577.625,565.5" style="stroke:#A80036;stroke-width:1.0;"/><line style="stroke:#A80036;stroke-width:1.5;" x1="577.625" x2="577.625" y1="264.2656" y2="320.5625"/><polygon fill="#A80036" points="573.625,310.5625,577.625,320.5625,581.625,310.5625,577.625,314.5625" style="stroke:#A80036;stroke-width:1.0;"/><line style="stroke:#A80036;stroke-width:1.5;" x1="577.625" x2="577.625" y1="605.4688" y2="637.4688"/><polygon fill="#A80036" points="573.625,627.4688,577.625,637.4688,581.625,627.4688,577.625,631.4688" style="stroke:#A80036;stroke-width:1.0;"/><line style="stroke:#A80036;stroke-width:1.5;" x1="1090" x2="1080" y1="373.2344" y2="373.2344"/><line style="stroke:#A80036;stroke-width:1.5;" x1="1080" x2="1080" y1="373.2344" y2="395.2344"/><polygon fill="#A80036" points="1076,385.2344,1080,395.2344,1084,385.2344,1080,389.2344" style="stroke:#A80036;stroke-width:1.0;"/><line style="stroke:#A80036;stroke-width:1.5;" x1="1188" x2="1198" y1="373.2344" y2="373.2344"/><line style="stroke:#A80036;stroke-width:1.5;" x1="1198" x2="1198" y1="373.2344" y2="395.2344"/><polygon fill="#A80036" points="1194,385.2344,1198,395.2344,1202,385.2344,1198,389.2344" style="stroke:#A80036;stroke-width:1.0;"/><line style="stroke:#A80036;stroke-width:1.5;" x1="1080" x2="1080" y1="429.2031" y2="453.2031"/><line style="stroke:#A80036;stroke-width:1.5;" x1="1080" x2="1060.75" y1="453.2031" y2="453.2031"/><polygon fill="#A80036" points="1070.75,449.2031,1060.75,453.2031,1070.75,457.2031,1066.75,453.2031" style="stroke:#A80036;stroke-width:1.0;"/><line style="stroke:#A80036;stroke-width:1.5;" x1="1017.75" x2="958.5" y1="339.2344" y2="339.2344"/><line style="stroke:#A80036;stroke-width:1.5;" x1="958.5" x2="958.5" y1="339.2344" y2="361.2344"/><polygon fill="#A80036" points="954.5,351.2344,958.5,361.2344,962.5,351.2344,958.5,355.2344" style="stroke:#A80036;stroke-width:1.0;"/><line style="stroke:#A80036;stroke-width:1.5;" x1="1079.75" x2="1139" y1="339.2344" y2="339.2344"/><line style="stroke:#A80036;stroke-width:1.5;" x1="1139" x2="1139" y1="339.2344" y2="361.2344"/><polygon fill="#A80036" points="1135,351.2344,1139,361.2344,1143,351.2344,1139,355.2344" style="stroke:#A80036;stroke-width:1.0;"/><line style="stroke:#A80036;stroke-width:1.5;" x1="958.5" x2="958.5" y1="395.2031" y2="453.2031"/><line style="stroke:#A80036;stroke-width:1.5;" x1="958.5" x2="1036.75" y1="453.2031" y2="453.2031"/><polygon fill="#A80036" points="1026.75,449.2031,1036.75,453.2031,1026.75,457.2031,1030.75,453.2031" style="stroke:#A80036;stroke-width:1.0;"/><line style="stroke:#A80036;stroke-width:1.5;" x1="1048.75" x2="1048.75" y1="292.2344" y2="327.2344"/><polygon fill="#A80036" points="1044.75,317.2344,1048.75,327.2344,1052.75,317.2344,1048.75,321.2344" style="stroke:#A80036;stroke-width:1.0;"/><line style="stroke:#A80036;stroke-width:1.5;" x1="747.375" x2="636" y1="236.2656" y2="236.2656"/><line style="stroke:#A80036;stroke-width:1.5;" x1="636" x2="636" y1="236.2656" y2="258.2656"/><polygon fill="#A80036" points="632,248.2656,636,258.2656,640,248.2656,636,252.2656" style="stroke:#A80036;stroke-width:1.0;"/><line style="stroke:#A80036;stroke-width:1.5;" x1="937.375" x2="1048.75" y1="236.2656" y2="236.2656"/><line style="stroke:#A80036;stroke-width:1.5;" x1="1048.75" x2="1048.75" y1="236.2656" y2="258.2656"/><polygon fill="#A80036" points="1044.75,248.2656,1048.75,258.2656,1052.75,248.2656,1048.75,252.2656" style="stroke:#A80036;stroke-width:1.0;"/><line style="stroke:#A80036;stroke-width:1.5;" x1="636" x2="636" y1="643.4688" y2="661.4688"/><line style="stroke:#A80036;stroke-width:1.5;" x1="636" x2="830.375" y1="661.4688" y2="661.4688"/><polygon fill="#A80036" points="820.375,657.4688,830.375,661.4688,820.375,665.4688,824.375,661.4688" style="stroke:#A80036;stroke-width:1.0;"/><line style="stroke:#A80036;stroke-width:1.5;" x1="1048.75" x2="1048.75" y1="465.2031" y2="661.4688"/><line style="stroke:#A80036;stroke-width:1.5;" x1="1048.75" x2="854.375" y1="661.4688" y2="661.4688"/><polygon fill="#A80036" points="864.375,657.4688,854.375,661.4688,864.375,665.4688,860.375,661.4688" style="stroke:#A80036;stroke-width:1.0;"/><line style="stroke:#A80036;stroke-width:1.5;" x1="123.5" x2="123.5" y1="204.2656" y2="451.5313"/><polygon fill="#A80036" points="119.5,441.5313,123.5,451.5313,127.5,441.5313,123.5,445.5313" style="stroke:#A80036;stroke-width:1.0;"/><line style="stroke:#A80036;stroke-width:1.5;" x1="308.5" x2="308.5" y1="204.2656" y2="451.5313"/><polygon fill="#A80036" points="304.5,441.5313,308.5,451.5313,312.5,441.5313,308.5,445.5313" style="stroke:#A80036;stroke-width:1.0;"/><line style="stroke:#A80036;stroke-width:1.5;" x1="842.375" x2="842.375" y1="204.2656" y2="224.2656"/><polygon fill="#A80036" points="838.375,214.2656,842.375,224.2656,846.375,214.2656,842.375,218.2656" style="stroke:#A80036;stroke-width:1.0;"/><line style="stroke:#A80036;stroke-width:1.5;" x1="123.5" x2="123.5" y1="485.5" y2="693.4688"/><polygon fill="#A80036" points="119.5,683.4688,123.5,693.4688,127.5,683.4688,123.5,687.4688" style="stroke:#A80036;stroke-width:1.0;"/><line style="stroke:#A80036;stroke-width:1.5;" x1="308.5" x2="308.5" y1="485.5" y2="693.4688"/><polygon fill="#A80036" points="304.5,683.4688,308.5,693.4688,312.5,683.4688,308.5,687.4688" style="stroke:#A80036;stroke-width:1.0;"/><line style="stroke:#A80036;stroke-width:1.5;" x1="842.375" x2="842.375" y1="673.4688" y2="693.4688"/><polygon fill="#A80036" points="838.375,683.4688,842.375,693.4688,846.375,683.4688,842.375,687.4688" style="stroke:#A80036;stroke-width:1.0;"/><line style="stroke:#A80036;stroke-width:1.5;" x1="624.25" x2="624.25" y1="743.4688" y2="767.8711"/><polygon fill="#A80036" points="620.25,757.8711,624.25,767.8711,628.25,757.8711,624.25,761.8711" style="stroke:#A80036;stroke-width:1.0;"/><line style="stroke:#A80036;stroke-width:1.5;" x1="714.75" x2="726.75" y1="731.4688" y2="731.4688"/><polygon fill="#A80036" points="722.75,774.8555,726.75,784.8555,730.75,774.8555,726.75,778.8555" style="stroke:#A80036;stroke-width:1.5;"/><line style="stroke:#A80036;stroke-width:1.5;" x1="726.75" x2="726.75" y1="731.4688" y2="833.8398"/><line style="stroke:#A80036;stroke-width:1.5;" x1="726.75" x2="636.25" y1="833.8398" y2="833.8398"/><polygon fill="#A80036" points="646.25,829.8398,636.25,833.8398,646.25,837.8398,642.25,833.8398" style="stroke:#A80036;stroke-width:1.0;"/><line style="stroke:#A80036;stroke-width:1.5;" x1="624.25" x2="624.25" y1="801.8398" y2="821.8398"/><polygon fill="#A80036" points="620.25,811.8398,624.25,821.8398,628.25,811.8398,624.25,815.8398" style="stroke:#A80036;stroke-width:1.0;"/><line style="stroke:#A80036;stroke-width:1.5;" x1="624.25" x2="624.25" y1="699.4688" y2="719.4688"/><polygon fill="#A80036" points="620.25,709.4688,624.25,719.4688,628.25,709.4688,624.25,713.4688" style="stroke:#A80036;stroke-width:1.0;"/><line style="stroke:#A80036;stroke-width:1.5;" x1="1398.5" x2="1398.5" y1="222.2656" y2="246.668"/><polygon fill="#A80036" points="1394.5,236.668,1398.5,246.668,1402.5,236.668,1398.5,240.668" style="stroke:#A80036;stroke-width:1.0;"/><line style="stroke:#A80036;stroke-width:1.5;" x1="1493.5" x2="1505.5" y1="210.2656" y2="210.2656"/><polygon fill="#A80036" points="1501.5,253.6523,1505.5,263.6523,1509.5,253.6523,1505.5,257.6523" style="stroke:#A80036;stroke-width:1.5;"/><line style="stroke:#A80036;stroke-width:1.5;" x1="1505.5" x2="1505.5" y1="210.2656" y2="317.0391"/><line style="stroke:#A80036;stroke-width:1.5;" x1="1505.5" x2="1410.5" y1="317.0391" y2="317.0391"/><polygon fill="#A80036" points="1420.5,313.0391,1410.5,317.0391,1420.5,321.0391,1416.5,317.0391" style="stroke:#A80036;stroke-width:1.0;"/><line style="stroke:#A80036;stroke-width:1.5;" x1="1398.5" x2="1398.5" y1="280.6367" y2="305.0391"/><polygon fill="#A80036" points="1394.5,295.0391,1398.5,305.0391,1402.5,295.0391,1398.5,299.0391" style="stroke:#A80036;stroke-width:1.0;"/><line style="stroke:#A80036;stroke-width:1.5;" x1="935.375" x2="624.25" y1="176.2656" y2="176.2656"/><line style="stroke:#A80036;stroke-width:1.5;" x1="624.25" x2="624.25" y1="176.2656" y2="198.2656"/><polygon fill="#A80036" points="620.25,188.2656,624.25,198.2656,628.25,188.2656,624.25,192.2656" style="stroke:#A80036;stroke-width:1.0;"/><line style="stroke:#A80036;stroke-width:1.5;" x1="1087.375" x2="1398.5" y1="176.2656" y2="176.2656"/><line style="stroke:#A80036;stroke-width:1.5;" x1="1398.5" x2="1398.5" y1="176.2656" y2="198.2656"/><polygon fill="#A80036" points="1394.5,188.2656,1398.5,198.2656,1402.5,188.2656,1398.5,192.2656" style="stroke:#A80036;stroke-width:1.0;"/><line style="stroke:#A80036;stroke-width:1.5;" x1="624.25" x2="624.25" y1="845.8398" y2="863.8398"/><line style="stroke:#A80036;stroke-width:1.5;" x1="624.25" x2="999.375" y1="863.8398" y2="863.8398"/><polygon fill="#A80036" points="989.375,859.8398,999.375,863.8398,989.375,867.8398,993.375,863.8398" style="stroke:#A80036;stroke-width:1.0;"/><line style="stroke:#A80036;stroke-width:1.5;" x1="1398.5" x2="1398.5" y1="329.0391" y2="863.8398"/><line style="stroke:#A80036;stroke-width:1.5;" x1="1398.5" x2="1023.375" y1="863.8398" y2="863.8398"/><polygon fill="#A80036" points="1033.375,859.8398,1023.375,863.8398,1033.375,867.8398,1029.375,863.8398" style="stroke:#A80036;stroke-width:1.0;"/><line style="stroke:#A80036;stroke-width:1.5;" x1="1598.5" x2="1598.5" y1="198.2344" y2="233.2344"/><polygon fill="#A80036" points="1594.5,223.2344,1598.5,233.2344,1602.5,223.2344,1598.5,227.2344" style="stroke:#A80036;stroke-width:1.0;"/><line style="stroke:#A80036;stroke-width:1.5;" x1="1248.9375" x2="1011.375" y1="142.2656" y2="142.2656"/><line style="stroke:#A80036;stroke-width:1.5;" x1="1011.375" x2="1011.375" y1="142.2656" y2="164.2656"/><polygon fill="#A80036" points="1007.375,154.2656,1011.375,164.2656,1015.375,154.2656,1011.375,158.2656" style="stroke:#A80036;stroke-width:1.0;"/><line style="stroke:#A80036;stroke-width:1.5;" x1="1376.9375" x2="1598.5" y1="142.2656" y2="142.2656"/><line style="stroke:#A80036;stroke-width:1.5;" x1="1598.5" x2="1598.5" y1="142.2656" y2="164.2656"/><polygon fill="#A80036" points="1594.5,154.2656,1598.5,164.2656,1602.5,154.2656,1598.5,158.2656" style="stroke:#A80036;stroke-width:1.0;"/><line style="stroke:#A80036;stroke-width:1.5;" x1="1011.375" x2="1011.375" y1="875.8398" y2="880.8398"/><line style="stroke:#A80036;stroke-width:1.5;" x1="1011.375" x2="1312.9375" y1="880.8398" y2="880.8398"/><line style="stroke:#A80036;stroke-width:1.5;" x1="1312.9375" x2="1312.9375" y1="880.8398" y2="907.8398"/><polygon fill="#A80036" points="1308.9375,897.8398,1312.9375,907.8398,1316.9375,897.8398,1312.9375,901.8398" style="stroke:#A80036;stroke-width:1.0;"/><line style="stroke:#A80036;stroke-width:1.5;" x1="1312.9375" x2="1312.9375" y1="83.9688" y2="130.2656"/><polygon fill="#A80036" points="1308.9375,120.2656,1312.9375,130.2656,1316.9375,120.2656,1312.9375,124.2656" style="stroke:#A80036;stroke-width:1.0;"/><line style="stroke:#A80036;stroke-width:1.5;" x1="1312.9375" x2="1312.9375" y1="941.8086" y2="961.8086"/><polygon fill="#A80036" points="1308.9375,951.8086,1312.9375,961.8086,1316.9375,951.8086,1312.9375,955.8086" style="stroke:#A80036;stroke-width:1.0;"/><!--MD5=[1b6b822aa4c991e1d40ffed3325bc47f]
@startuml
'DevCycle Server SDK Initialization Sequence Diagram
start
:new DevCycleClient(sdkKey, options);
group Constructor/Initialization
    if (Valid Server SDK Key) then (yes)
        if (options.UseLocalBucketing) then (yes)
            fork
            group Initialize Config Manager
                :Initialize Config Manager;
            end group
            fork again
            group Initialize Event Manager
                :Initialize Event Manager;
            end group
            fork again
            if (options.ConfigEventHandler exists) then (yes)
                fork
                group Initial Fetch Thread
                    :Fetch Initial Config;
                    if (Success) then (yes)
                        :Initialize Config;
                    else (no)
                        if (Retryable Error) then (yes)
                            :Retry Fetch;
                        else (no)
                            :return error to EventHandler;
                        endif
                    endif
                    :Send Initialized Event;
                end group
                end fork
            else (no)
                :Fetch Initial Config;
                if (Success) then (yes)
                    :Initialize Config;
                else (no)
                    if (Retryable Error) then (yes)
                        :Retry Fetch;
                    else (no)
                        :Throw error;
                        kill
                    endif
                endif
            endif
            end fork
            if (options.DisableRealtimeUpdates) then (yes)
                :Start Config Polling Thread;
            else (no)
            endif
        else (no)
            if (options.ConfigEventHandler exists) then (yes)
                :Send Initialized Event;
            else (no)
            endif
        endif
    else (no)
        :SDK Key Validation Failed;
        :Throw error;
        kill
    endif
end group
:Return DevCycleClient;
stop

@enduml

@startuml
start
:new DevCycleClient(sdkKey, options);
group Constructor/Initialization
    if (Valid Server SDK Key) then (yes)
        if (options.UseLocalBucketing) then (yes)
            fork
            group Initialize Config Manager
                :Initialize Config Manager;
            end group
            fork again
            group Initialize Event Manager
                :Initialize Event Manager;
            end group
            fork again
            if (options.ConfigEventHandler exists) then (yes)
                fork
                group Initial Fetch Thread
                    :Fetch Initial Config;
                    if (Success) then (yes)
                        :Initialize Config;
                    else (no)
                        if (Retryable Error) then (yes)
                            :Retry Fetch;
                        else (no)
                            :return error to EventHandler;
                        endif
                    endif
                    :Send Initialized Event;
                end group
                end fork
            else (no)
                :Fetch Initial Config;
                if (Success) then (yes)
                    :Initialize Config;
                else (no)
                    if (Retryable Error) then (yes)
                        :Retry Fetch;
                    else (no)
                        :Throw error;
                        kill
                    endif
                endif
            endif
            end fork
            if (options.DisableRealtimeUpdates) then (yes)
                :Start Config Polling Thread;
            else (no)
            endif
        else (no)
            if (options.ConfigEventHandler exists) then (yes)
                :Send Initialized Event;
            else (no)
            endif
        endif
    else (no)
        :SDK Key Validation Failed;
        :Throw error;
        kill
    endif
end group
:Return DevCycleClient;
stop

@enduml

PlantUML version 1.2021.01(Tue Feb 02 07:55:08 GMT 2021)
(GPL source distribution)
Java Runtime: OpenJDK Runtime Environment
JVM: OpenJDK 64-Bit Server VM
Default Encoding: UTF-8
Language: en
Country: US
--></g></svg>