<svg xmlns="http://www.w3.org/2000/svg" viewBox="0 0 20 20">
  <path d="M3.00048 8.42858C3.00714 9.13879 3.03376 10.2567 3.1203 11.5127C3.26008 13.6433 3.53966 15.5372 3.53966 15.5372L7.1275 12.1637C7.1275 12.1637 6.99437 10.4737 7.20737 7.9551C7.20737 7.9551 3.23346 7.48163 3.00048 8.42858Z" />
  <path d="M11.2745 16.9775C12.2064 16.7145 11.9335 12.8609 11.9335 12.8609C9.37074 12.9464 7.67334 12.736 7.67334 12.736L4.07885 16.1029C4.07885 16.1029 5.9826 16.4712 8.12598 16.7145C9.33746 16.8526 10.9816 16.9644 11.2079 16.9775C11.2346 16.9841 11.2612 16.9775 11.2745 16.9775Z" />
  <path d="M3.00055 8.21167L3.00048 8.42858C3.04042 8.2576 3.10705 8.13276 3.25349 7.95521C3.54638 7.58695 4.02564 7.48831 4.21868 7.46201C5.19053 7.33706 6.62832 7.17924 8.07278 7.13978C10.6355 7.06087 12.3263 7.2713 12.3263 7.2713L15.9141 3.89781C15.9141 3.89781 14.0303 3.54271 11.8803 3.29282C10.4758 3.12842 9.23766 3.04293 8.54539 3.00348C8.4988 3.00348 7.99956 2.93772 7.53361 3.37831C7.02106 3.85836 4.45166 6.26517 3.41991 7.23842C2.96726 7.67244 3.00055 8.16564 3.00055 8.21167Z" />
  <path d="M11.461 16.9971C11.3944 16.9905 11.3212 16.9905 11.2413 16.9839C11.421 16.9511 11.5408 16.8919 11.7339 16.7604C12.1199 16.4842 12.2464 16.0238 12.2797 15.8331C12.4528 14.8796 12.6791 13.4724 12.7989 12.0454C13.0053 9.52018 12.8721 7.8433 12.8721 7.8433L16.46 4.46981C16.46 4.46981 16.7262 6.34397 16.8727 8.4746C16.9659 9.86871 16.9925 11.0918 16.9991 11.7758C16.9991 11.8218 17.0391 12.315 16.5731 12.7556C16.0606 13.2356 13.4978 15.6556 12.4661 16.6288C12.0068 17.0563 11.5076 16.9971 11.461 16.9971Z" />
</svg>
