<?xml version="1.0" encoding="UTF-8" standalone="no"?><svg xmlns="http://www.w3.org/2000/svg" xmlns:xlink="http://www.w3.org/1999/xlink" contentScriptType="application/ecmascript" contentStyleType="text/css" height="1390px" preserveAspectRatio="none" style="width:935px;height:1390px;" version="1.1" viewBox="0 0 935 1390" width="935px" zoomAndPan="magnify"><defs><filter height="300%" id="fib9nk6yvhoqi" width="300%" x="-1" y="-1"><feGaussianBlur result="blurOut" stdDeviation="2.0"/><feColorMatrix in="blurOut" result="blurOut2" type="matrix" values="0 0 0 0 0 0 0 0 0 0 0 0 0 0 0 0 0 0 .4 0"/><feOffset dx="4.0" dy="4.0" in="blurOut2" result="blurOut3"/><feBlend in="SourceGraphic" in2="blurOut3" mode="normal"/></filter></defs><g><rect fill="#FFFFFF" filter="url(#fib9nk6yvhoqi)" height="1362.8667" style="stroke:#000000;stroke-width:2.0;" width="907" x="11" y="11"/><path d="M118,11 L118,20.2969 L108,30.2969 L11,30.2969 " fill="none" style="stroke:#000000;stroke-width:2.0;"/><text fill="#000000" font-family="sans-serif" font-size="14" lengthAdjust="spacingAndGlyphs" textLength="97" x="14" y="24.9951">Config Manager</text><rect fill="#FFFFFF" filter="url(#fib9nk6yvhoqi)" height="249.668" style="stroke:#000000;stroke-width:2.0;" width="254" x="340.5" y="40.2969"/><path d="M509.5,40.2969 L509.5,49.5938 L499.5,59.5938 L340.5,59.5938 " fill="none" style="stroke:#000000;stroke-width:2.0;"/><text fill="#000000" font-family="sans-serif" font-size="14" lengthAdjust="spacingAndGlyphs" textLength="159" x="343.5" y="54.292">Constructor/Initialization</text><ellipse cx="461.5" cy="79.5938" fill="#000000" filter="url(#fib9nk6yvhoqi)" rx="10" ry="10" style="stroke:none;stroke-width:1.0;"/><rect fill="#FEFECE" filter="url(#fib9nk6yvhoqi)" height="33.9688" rx="12.5" ry="12.5" style="stroke:#A80036;stroke-width:1.5;" width="202" x="360.5" y="157.9961"/><text fill="#000000" font-family="sans-serif" font-size="12" lengthAdjust="spacingAndGlyphs" textLength="182" x="370.5" y="179.1348">Start Config Consolidation Thread</text><polygon fill="#FEFECE" filter="url(#fib9nk6yvhoqi)" points="391,109.5938,532,109.5938,544,121.5938,532,133.5938,391,133.5938,379,121.5938,391,109.5938" style="stroke:#A80036;stroke-width:1.5;"/><text fill="#000000" font-family="sans-serif" font-size="11" lengthAdjust="spacingAndGlyphs" textLength="17" x="465.5" y="143.8042">yes</text><text fill="#000000" font-family="sans-serif" font-size="11" lengthAdjust="spacingAndGlyphs" textLength="141" x="391" y="125.4019">options.UseRealtimeUpdates</text><text fill="#000000" font-family="sans-serif" font-size="11" lengthAdjust="spacingAndGlyphs" textLength="12" x="544" y="118.9995">no</text><polygon fill="#FEFECE" filter="url(#fib9nk6yvhoqi)" points="461.5,211.9648,473.5,223.9648,461.5,235.9648,449.5,223.9648,461.5,211.9648" style="stroke:#A80036;stroke-width:1.5;"/><ellipse cx="461.5" cy="266.9648" fill="#FFFFFF" filter="url(#fib9nk6yvhoqi)" rx="11" ry="11" style="stroke:#000000;stroke-width:1.0;"/><ellipse cx="461.5" cy="266.9648" fill="#000000" rx="6" ry="6" style="stroke:#7F7F7F;stroke-width:1.0;"/><rect fill="#FFFFFF" filter="url(#fib9nk6yvhoqi)" height="553.3276" style="stroke:#000000;stroke-width:2.0;" width="649" x="45.625" y="299.9648"/><path d="M188.625,299.9648 L188.625,309.2617 L178.625,319.2617 L45.625,319.2617 " fill="none" style="stroke:#000000;stroke-width:2.0;"/><text fill="#000000" font-family="sans-serif" font-size="14" lengthAdjust="spacingAndGlyphs" textLength="133" x="48.625" y="313.96">Config Polling Thread</text><ellipse cx="461.5" cy="339.2617" fill="#000000" filter="url(#fib9nk6yvhoqi)" rx="10" ry="10" style="stroke:none;stroke-width:1.0;"/><polygon fill="#FEFECE" filter="url(#fib9nk6yvhoqi)" points="426,423.2305,497,423.2305,509,435.2305,497,447.2305,426,447.2305,414,435.2305,426,423.2305" style="stroke:#A80036;stroke-width:1.5;"/><text fill="#000000" font-family="sans-serif" font-size="11" lengthAdjust="spacingAndGlyphs" textLength="71" x="426" y="439.0386">Polling Enabled</text><text fill="#000000" font-family="sans-serif" font-size="11" lengthAdjust="spacingAndGlyphs" textLength="17" x="397" y="432.6362">yes</text><text fill="#000000" font-family="sans-serif" font-size="11" lengthAdjust="spacingAndGlyphs" textLength="12" x="509" y="432.6362">no</text><rect fill="#FEFECE" filter="url(#fib9nk6yvhoqi)" height="33.9688" rx="12.5" ry="12.5" style="stroke:#A80036;stroke-width:1.5;" width="86" x="277.375" y="457.2305"/><text fill="#000000" font-family="sans-serif" font-size="12" lengthAdjust="spacingAndGlyphs" textLength="66" x="287.375" y="478.3691">Fetch Config</text><polygon fill="#FEFECE" filter="url(#fib9nk6yvhoqi)" points="301.375,511.1992,339.375,511.1992,351.375,523.1992,339.375,535.1992,301.375,535.1992,289.375,523.1992,301.375,511.1992" style="stroke:#A80036;stroke-width:1.5;"/><text fill="#000000" font-family="sans-serif" font-size="11" lengthAdjust="spacingAndGlyphs" textLength="38" x="301.375" y="527.0073">Success</text><text fill="#000000" font-family="sans-serif" font-size="11" lengthAdjust="spacingAndGlyphs" textLength="17" x="272.375" y="520.605">yes</text><text fill="#000000" font-family="sans-serif" font-size="11" lengthAdjust="spacingAndGlyphs" textLength="12" x="351.375" y="520.605">no</text><rect fill="#FEFECE" filter="url(#fib9nk6yvhoqi)" height="33.9688" rx="12.5" ry="12.5" style="stroke:#A80036;stroke-width:1.5;" width="96" x="155.125" y="545.1992"/><text fill="#000000" font-family="sans-serif" font-size="12" lengthAdjust="spacingAndGlyphs" textLength="76" x="165.125" y="566.3379">Update Config</text><rect fill="#FEFECE" filter="url(#fib9nk6yvhoqi)" height="33.9688" rx="12.5" ry="12.5" style="stroke:#A80036;stroke-width:1.5;" width="255" x="75.625" y="611.6445"/><text fill="#000000" font-family="sans-serif" font-size="12" lengthAdjust="spacingAndGlyphs" textLength="235" x="85.625" y="632.7832">Send Config Updated Event to EventHandler</text><rect fill="#FEFECE" filter="url(#fib9nk6yvhoqi)" height="33.9688" rx="12.5" ry="12.5" style="stroke:#A80036;stroke-width:1.5;" width="80" x="397.625" y="545.1992"/><text fill="#000000" font-family="sans-serif" font-size="12" lengthAdjust="spacingAndGlyphs" textLength="60" x="407.625" y="566.3379">Retry Fetch</text><polygon fill="#FEFECE" filter="url(#fib9nk6yvhoqi)" points="400.625,665.6133,474.625,665.6133,486.625,677.6133,474.625,689.6133,400.625,689.6133,388.625,677.6133,400.625,665.6133" style="stroke:#A80036;stroke-width:1.5;"/><text fill="#000000" font-family="sans-serif" font-size="11" lengthAdjust="spacingAndGlyphs" textLength="12" x="441.625" y="699.8237">no</text><text fill="#000000" font-family="sans-serif" font-size="11" lengthAdjust="spacingAndGlyphs" textLength="74" x="400.625" y="681.4214">Retryable Error</text><text fill="#000000" font-family="sans-serif" font-size="11" lengthAdjust="spacingAndGlyphs" textLength="17" x="486.625" y="675.019">yes</text><rect fill="#FEFECE" filter="url(#fib9nk6yvhoqi)" height="33.9688" rx="12.5" ry="12.5" style="stroke:#A80036;stroke-width:1.5;" width="174" x="350.625" y="721.3237"/><text fill="#000000" font-family="sans-serif" font-size="12" lengthAdjust="spacingAndGlyphs" textLength="154" x="360.625" y="742.4624">Return error to EventHandler</text><rect fill="#FEFECE" filter="url(#fib9nk6yvhoqi)" height="33.9688" rx="12.5" ry="12.5" style="stroke:#A80036;stroke-width:1.5;" width="96" x="554.625" y="457.2305"/><text fill="#000000" font-family="sans-serif" font-size="12" lengthAdjust="spacingAndGlyphs" textLength="76" x="564.625" y="478.3691">Cancel Polling</text><rect fill="#FEFECE" filter="url(#fib9nk6yvhoqi)" height="33.9688" rx="12.5" ry="12.5" style="stroke:#A80036;stroke-width:1.5;" width="100" x="411.5" y="369.2617"/><text fill="#000000" font-family="sans-serif" font-size="12" lengthAdjust="spacingAndGlyphs" textLength="80" x="421.5" y="390.4004">Polling Interval</text><polygon fill="#FEFECE" filter="url(#fib9nk6yvhoqi)" points="426,775.2925,497,775.2925,509,787.2925,497,799.2925,426,799.2925,414,787.2925,426,775.2925" style="stroke:#A80036;stroke-width:1.5;"/><text fill="#000000" font-family="sans-serif" font-size="11" lengthAdjust="spacingAndGlyphs" textLength="71" x="426" y="791.1006">Polling Enabled</text><text fill="#000000" font-family="sans-serif" font-size="11" lengthAdjust="spacingAndGlyphs" textLength="17" x="509" y="784.6982">yes</text><ellipse cx="461.5" cy="830.2925" fill="#FFFFFF" filter="url(#fib9nk6yvhoqi)" rx="11" ry="11" style="stroke:#000000;stroke-width:1.0;"/><ellipse cx="461.5" cy="830.2925" fill="#000000" rx="6" ry="6" style="stroke:#7F7F7F;stroke-width:1.0;"/><rect fill="#FFFFFF" filter="url(#fib9nk6yvhoqi)" height="498.5742" style="stroke:#000000;stroke-width:2.0;" width="887" x="21" y="863.2925"/><path d="M208,863.2925 L208,872.5894 L198,882.5894 L21,882.5894 " fill="none" style="stroke:#000000;stroke-width:2.0;"/><text fill="#000000" font-family="sans-serif" font-size="14" lengthAdjust="spacingAndGlyphs" textLength="177" x="24" y="877.2876">Config Consolidation Thread</text><polygon fill="#FEFECE" filter="url(#fib9nk6yvhoqi)" points="434.5,936.5894,488.5,936.5894,500.5,948.5894,488.5,960.5894,434.5,960.5894,422.5,948.5894,434.5,936.5894" style="stroke:#A80036;stroke-width:1.5;"/><text fill="#000000" font-family="sans-serif" font-size="11" lengthAdjust="spacingAndGlyphs" textLength="54" x="434.5" y="952.3975">Event Type</text><rect fill="#FEFECE" filter="url(#fib9nk6yvhoqi)" height="33.9688" rx="12.5" ry="12.5" style="stroke:#A80036;stroke-width:1.5;" width="133" x="121" y="980.5894"/><text fill="#000000" font-family="sans-serif" font-size="12" lengthAdjust="spacingAndGlyphs" textLength="113" x="131" y="1001.728">New Config Available</text><rect fill="#FEFECE" filter="url(#fib9nk6yvhoqi)" height="33.9688" rx="12.5" ry="12.5" style="stroke:#A80036;stroke-width:1.5;" width="309" x="33" y="1034.5581"/><text fill="#000000" font-family="sans-serif" font-size="12" lengthAdjust="spacingAndGlyphs" textLength="289" x="43" y="1055.6968">Fetch Config with minimum Last-Modified timestamp</text><rect fill="#FEFECE" filter="url(#fib9nk6yvhoqi)" height="33.9688" rx="12.5" ry="12.5" style="stroke:#A80036;stroke-width:1.5;" width="103" x="405.5" y="980.5894"/><text fill="#000000" font-family="sans-serif" font-size="12" lengthAdjust="spacingAndGlyphs" textLength="83" x="415.5" y="1001.728">Config Updated</text><rect fill="#FEFECE" filter="url(#fib9nk6yvhoqi)" height="33.9688" rx="12.5" ry="12.5" style="stroke:#A80036;stroke-width:1.5;" width="84" x="415" y="1082.9604"/><text fill="#000000" font-family="sans-serif" font-size="12" lengthAdjust="spacingAndGlyphs" textLength="64" x="425" y="1104.0991">Disable SSE</text><rect fill="#FEFECE" filter="url(#fib9nk6yvhoqi)" height="33.9688" rx="12.5" ry="12.5" style="stroke:#A80036;stroke-width:1.5;" width="107" x="403.5" y="1151.9292"/><text fill="#000000" font-family="sans-serif" font-size="12" lengthAdjust="spacingAndGlyphs" textLength="87" x="413.5" y="1173.0679">Update SSE URL</text><rect fill="#FEFECE" filter="url(#fib9nk6yvhoqi)" height="33.9688" rx="12.5" ry="12.5" style="stroke:#A80036;stroke-width:1.5;" width="134" x="390" y="1205.8979"/><text fill="#000000" font-family="sans-serif" font-size="12" lengthAdjust="spacingAndGlyphs" textLength="114" x="400" y="1227.0366">Start SSE Connection</text><polygon fill="#FEFECE" filter="url(#fib9nk6yvhoqi)" points="374,1034.5581,540,1034.5581,552,1046.5581,540,1058.5581,374,1058.5581,362,1046.5581,374,1034.5581" style="stroke:#A80036;stroke-width:1.5;"/><text fill="#000000" font-family="sans-serif" font-size="11" lengthAdjust="spacingAndGlyphs" textLength="17" x="461" y="1068.7686">yes</text><text fill="#000000" font-family="sans-serif" font-size="11" lengthAdjust="spacingAndGlyphs" textLength="166" x="374" y="1050.3662">SSE URL is different than existing?</text><text fill="#000000" font-family="sans-serif" font-size="11" lengthAdjust="spacingAndGlyphs" textLength="12" x="552" y="1043.9639">no</text><polygon fill="#FEFECE" filter="url(#fib9nk6yvhoqi)" points="457,1259.8667,469,1271.8667,457,1283.8667,445,1271.8667,457,1259.8667" style="stroke:#A80036;stroke-width:1.5;"/><rect fill="#FEFECE" filter="url(#fib9nk6yvhoqi)" height="33.9688" rx="12.5" ry="12.5" style="stroke:#A80036;stroke-width:1.5;" width="133" x="584" y="980.5894"/><text fill="#000000" font-family="sans-serif" font-size="12" lengthAdjust="spacingAndGlyphs" textLength="113" x="594" y="1001.728">SSE Connection Error</text><rect fill="#FEFECE" filter="url(#fib9nk6yvhoqi)" height="33.9688" rx="12.5" ry="12.5" style="stroke:#A80036;stroke-width:1.5;" width="84" x="608.5" y="1034.5581"/><text fill="#000000" font-family="sans-serif" font-size="12" lengthAdjust="spacingAndGlyphs" textLength="64" x="618.5" y="1055.6968">Disable SSE</text><rect fill="#FEFECE" filter="url(#fib9nk6yvhoqi)" height="33.9688" rx="12.5" ry="12.5" style="stroke:#A80036;stroke-width:1.5;" width="127" x="587" y="1103.5269"/><text fill="#000000" font-family="sans-serif" font-size="12" lengthAdjust="spacingAndGlyphs" textLength="107" x="597" y="1124.6655">Start Polling Thread</text><rect fill="#FEFECE" filter="url(#fib9nk6yvhoqi)" height="33.9688" rx="12.5" ry="12.5" style="stroke:#A80036;stroke-width:1.5;" width="153" x="727" y="980.5894"/><text fill="#000000" font-family="sans-serif" font-size="12" lengthAdjust="spacingAndGlyphs" textLength="133" x="737" y="1001.728">SSE Connection Success</text><rect fill="#FEFECE" filter="url(#fib9nk6yvhoqi)" height="33.9688" rx="12.5" ry="12.5" style="stroke:#A80036;stroke-width:1.5;" width="100" x="753.5" y="1034.5581"/><text fill="#000000" font-family="sans-serif" font-size="12" lengthAdjust="spacingAndGlyphs" textLength="80" x="763.5" y="1055.6968">Disable Polling</text><polygon fill="#FEFECE" filter="url(#fib9nk6yvhoqi)" points="461.5,1303.8667,461.5,1303.8667,473.5,1315.8667,461.5,1327.8667,461.5,1327.8667,449.5,1315.8667,461.5,1303.8667" style="stroke:#A80036;stroke-width:1.5;"/><polygon fill="#FEFECE" filter="url(#fib9nk6yvhoqi)" points="424,892.5894,499,892.5894,511,904.5894,499,916.5894,424,916.5894,412,904.5894,424,892.5894" style="stroke:#A80036;stroke-width:1.5;"/><text fill="#000000" font-family="sans-serif" font-size="11" lengthAdjust="spacingAndGlyphs" textLength="75" x="424" y="908.3975">Event Received</text><line style="stroke:#A80036;stroke-width:1.5;" x1="461.5" x2="461.5" y1="133.5938" y2="157.9961"/><polygon fill="#A80036" points="457.5,147.9961,461.5,157.9961,465.5,147.9961,461.5,151.9961" style="stroke:#A80036;stroke-width:1.0;"/><line style="stroke:#A80036;stroke-width:1.5;" x1="544" x2="572.5" y1="121.5938" y2="121.5938"/><polygon fill="#A80036" points="568.5,164.9805,572.5,174.9805,576.5,164.9805,572.5,168.9805" style="stroke:#A80036;stroke-width:1.5;"/><line style="stroke:#A80036;stroke-width:1.5;" x1="572.5" x2="572.5" y1="121.5938" y2="223.9648"/><line style="stroke:#A80036;stroke-width:1.5;" x1="572.5" x2="473.5" y1="223.9648" y2="223.9648"/><polygon fill="#A80036" points="483.5,219.9648,473.5,223.9648,483.5,227.9648,479.5,223.9648" style="stroke:#A80036;stroke-width:1.0;"/><line style="stroke:#A80036;stroke-width:1.5;" x1="461.5" x2="461.5" y1="191.9648" y2="211.9648"/><polygon fill="#A80036" points="457.5,201.9648,461.5,211.9648,465.5,201.9648,461.5,205.9648" style="stroke:#A80036;stroke-width:1.0;"/><line style="stroke:#A80036;stroke-width:1.5;" x1="461.5" x2="461.5" y1="89.5938" y2="109.5938"/><polygon fill="#A80036" points="457.5,99.5938,461.5,109.5938,465.5,99.5938,461.5,103.5938" style="stroke:#A80036;stroke-width:1.0;"/><line style="stroke:#A80036;stroke-width:1.5;" x1="461.5" x2="461.5" y1="235.9648" y2="255.9648"/><polygon fill="#A80036" points="457.5,245.9648,461.5,255.9648,465.5,245.9648,461.5,249.9648" style="stroke:#A80036;stroke-width:1.0;"/><line style="stroke:#A80036;stroke-width:1.5;" x1="203.125" x2="203.125" y1="579.168" y2="611.6445"/><polygon fill="#A80036" points="199.125,601.6445,203.125,611.6445,207.125,601.6445,203.125,605.6445" style="stroke:#A80036;stroke-width:1.0;"/><line style="stroke:#A80036;stroke-width:1.5;" x1="437.625" x2="437.625" y1="579.168" y2="665.6133"/><polygon fill="#A80036" points="433.625,655.6133,437.625,665.6133,441.625,655.6133,437.625,659.6133" style="stroke:#A80036;stroke-width:1.0;"/><line style="stroke:#A80036;stroke-width:1.5;" x1="486.625" x2="498.625" y1="677.6133" y2="677.6133"/><polygon fill="#A80036" points="494.625,632.1523,498.625,622.1523,502.625,632.1523,498.625,628.1523" style="stroke:#A80036;stroke-width:1.5;"/><line style="stroke:#A80036;stroke-width:1.5;" x1="498.625" x2="498.625" y1="562.1836" y2="677.6133"/><line style="stroke:#A80036;stroke-width:1.5;" x1="498.625" x2="477.625" y1="562.1836" y2="562.1836"/><polygon fill="#A80036" points="487.625,558.1836,477.625,562.1836,487.625,566.1836,483.625,562.1836" style="stroke:#A80036;stroke-width:1.0;"/><line style="stroke:#A80036;stroke-width:1.5;" x1="437.625" x2="437.625" y1="689.6133" y2="721.3237"/><polygon fill="#A80036" points="433.625,711.3237,437.625,721.3237,441.625,711.3237,437.625,715.3237" style="stroke:#A80036;stroke-width:1.0;"/><line style="stroke:#A80036;stroke-width:1.5;" x1="289.375" x2="203.125" y1="523.1992" y2="523.1992"/><line style="stroke:#A80036;stroke-width:1.5;" x1="203.125" x2="203.125" y1="523.1992" y2="545.1992"/><polygon fill="#A80036" points="199.125,535.1992,203.125,545.1992,207.125,535.1992,203.125,539.1992" style="stroke:#A80036;stroke-width:1.0;"/><line style="stroke:#A80036;stroke-width:1.5;" x1="351.375" x2="437.625" y1="523.1992" y2="523.1992"/><line style="stroke:#A80036;stroke-width:1.5;" x1="437.625" x2="437.625" y1="523.1992" y2="545.1992"/><polygon fill="#A80036" points="433.625,535.1992,437.625,545.1992,441.625,535.1992,437.625,539.1992" style="stroke:#A80036;stroke-width:1.0;"/><line style="stroke:#A80036;stroke-width:1.5;" x1="203.125" x2="203.125" y1="645.6133" y2="760.2925"/><line style="stroke:#A80036;stroke-width:1.5;" x1="203.125" x2="461.5" y1="760.2925" y2="760.2925"/><line style="stroke:#A80036;stroke-width:1.5;" x1="461.5" x2="461.5" y1="760.2925" y2="775.2925"/><polygon fill="#A80036" points="457.5,765.2925,461.5,775.2925,465.5,765.2925,461.5,769.2925" style="stroke:#A80036;stroke-width:1.0;"/><line style="stroke:#A80036;stroke-width:1.5;" x1="320.375" x2="320.375" y1="491.1992" y2="511.1992"/><polygon fill="#A80036" points="316.375,501.1992,320.375,511.1992,324.375,501.1992,320.375,505.1992" style="stroke:#A80036;stroke-width:1.0;"/><line style="stroke:#A80036;stroke-width:1.5;" x1="414" x2="320.375" y1="435.2305" y2="435.2305"/><line style="stroke:#A80036;stroke-width:1.5;" x1="320.375" x2="320.375" y1="435.2305" y2="457.2305"/><polygon fill="#A80036" points="316.375,447.2305,320.375,457.2305,324.375,447.2305,320.375,451.2305" style="stroke:#A80036;stroke-width:1.0;"/><line style="stroke:#A80036;stroke-width:1.5;" x1="509" x2="602.625" y1="435.2305" y2="435.2305"/><line style="stroke:#A80036;stroke-width:1.5;" x1="602.625" x2="602.625" y1="435.2305" y2="457.2305"/><polygon fill="#A80036" points="598.625,447.2305,602.625,457.2305,606.625,447.2305,602.625,451.2305" style="stroke:#A80036;stroke-width:1.0;"/><line style="stroke:#A80036;stroke-width:1.5;" x1="461.5" x2="461.5" y1="403.2305" y2="423.2305"/><polygon fill="#A80036" points="457.5,413.2305,461.5,423.2305,465.5,413.2305,461.5,417.2305" style="stroke:#A80036;stroke-width:1.0;"/><line style="stroke:#A80036;stroke-width:1.5;" x1="509" x2="672.625" y1="787.2925" y2="787.2925"/><polygon fill="#A80036" points="668.625,599.168,672.625,589.168,676.625,599.168,672.625,595.168" style="stroke:#A80036;stroke-width:1.5;"/><line style="stroke:#A80036;stroke-width:1.5;" x1="672.625" x2="672.625" y1="386.2461" y2="787.2925"/><line style="stroke:#A80036;stroke-width:1.5;" x1="672.625" x2="511.5" y1="386.2461" y2="386.2461"/><polygon fill="#A80036" points="521.5,382.2461,511.5,386.2461,521.5,390.2461,517.5,386.2461" style="stroke:#A80036;stroke-width:1.0;"/><line style="stroke:#A80036;stroke-width:1.5;" x1="461.5" x2="461.5" y1="349.2617" y2="369.2617"/><polygon fill="#A80036" points="457.5,359.2617,461.5,369.2617,465.5,359.2617,461.5,363.2617" style="stroke:#A80036;stroke-width:1.0;"/><line style="stroke:#A80036;stroke-width:1.5;" x1="461.5" x2="461.5" y1="799.2925" y2="819.2925"/><polygon fill="#A80036" points="457.5,809.2925,461.5,819.2925,465.5,809.2925,461.5,813.2925" style="stroke:#A80036;stroke-width:1.0;"/><line style="stroke:#A80036;stroke-width:1.5;" x1="187.5" x2="187.5" y1="1014.5581" y2="1034.5581"/><polygon fill="#A80036" points="183.5,1024.5581,187.5,1034.5581,191.5,1024.5581,187.5,1028.5581" style="stroke:#A80036;stroke-width:1.0;"/><line style="stroke:#A80036;stroke-width:1.5;" x1="457" x2="457" y1="1116.9292" y2="1151.9292"/><polygon fill="#A80036" points="453,1141.9292,457,1151.9292,461,1141.9292,457,1145.9292" style="stroke:#A80036;stroke-width:1.0;"/><line style="stroke:#A80036;stroke-width:1.5;" x1="457" x2="457" y1="1185.8979" y2="1205.8979"/><polygon fill="#A80036" points="453,1195.8979,457,1205.8979,461,1195.8979,457,1199.8979" style="stroke:#A80036;stroke-width:1.0;"/><line style="stroke:#A80036;stroke-width:1.5;" x1="457" x2="457" y1="1058.5581" y2="1082.9604"/><polygon fill="#A80036" points="453,1072.9604,457,1082.9604,461,1072.9604,457,1076.9604" style="stroke:#A80036;stroke-width:1.0;"/><line style="stroke:#A80036;stroke-width:1.5;" x1="552" x2="564" y1="1046.5581" y2="1046.5581"/><polygon fill="#A80036" points="560,1158.9136,564,1168.9136,568,1158.9136,564,1162.9136" style="stroke:#A80036;stroke-width:1.5;"/><line style="stroke:#A80036;stroke-width:1.5;" x1="564" x2="564" y1="1046.5581" y2="1271.8667"/><line style="stroke:#A80036;stroke-width:1.5;" x1="564" x2="469" y1="1271.8667" y2="1271.8667"/><polygon fill="#A80036" points="479,1267.8667,469,1271.8667,479,1275.8667,475,1271.8667" style="stroke:#A80036;stroke-width:1.0;"/><line style="stroke:#A80036;stroke-width:1.5;" x1="457" x2="457" y1="1239.8667" y2="1259.8667"/><polygon fill="#A80036" points="453,1249.8667,457,1259.8667,461,1249.8667,457,1253.8667" style="stroke:#A80036;stroke-width:1.0;"/><line style="stroke:#A80036;stroke-width:1.5;" x1="457" x2="457" y1="1014.5581" y2="1034.5581"/><polygon fill="#A80036" points="453,1024.5581,457,1034.5581,461,1024.5581,457,1028.5581" style="stroke:#A80036;stroke-width:1.0;"/><line style="stroke:#A80036;stroke-width:1.5;" x1="650.5" x2="650.5" y1="1014.5581" y2="1034.5581"/><polygon fill="#A80036" points="646.5,1024.5581,650.5,1034.5581,654.5,1024.5581,650.5,1028.5581" style="stroke:#A80036;stroke-width:1.0;"/><line style="stroke:#A80036;stroke-width:1.5;" x1="650.5" x2="650.5" y1="1068.5269" y2="1103.5269"/><polygon fill="#A80036" points="646.5,1093.5269,650.5,1103.5269,654.5,1093.5269,650.5,1097.5269" style="stroke:#A80036;stroke-width:1.0;"/><line style="stroke:#A80036;stroke-width:1.5;" x1="803.5" x2="803.5" y1="1014.5581" y2="1034.5581"/><polygon fill="#A80036" points="799.5,1024.5581,803.5,1034.5581,807.5,1024.5581,803.5,1028.5581" style="stroke:#A80036;stroke-width:1.0;"/><line style="stroke:#A80036;stroke-width:1.5;" x1="422.5" x2="187.5" y1="948.5894" y2="948.5894"/><line style="stroke:#A80036;stroke-width:1.5;" x1="187.5" x2="187.5" y1="948.5894" y2="980.5894"/><polygon fill="#A80036" points="183.5,970.5894,187.5,980.5894,191.5,970.5894,187.5,974.5894" style="stroke:#A80036;stroke-width:1.0;"/><line style="stroke:#A80036;stroke-width:1.5;" x1="500.5" x2="803.5" y1="948.5894" y2="948.5894"/><line style="stroke:#A80036;stroke-width:1.5;" x1="803.5" x2="803.5" y1="948.5894" y2="980.5894"/><polygon fill="#A80036" points="799.5,970.5894,803.5,980.5894,807.5,970.5894,803.5,974.5894" style="stroke:#A80036;stroke-width:1.0;"/><line style="stroke:#A80036;stroke-width:1.5;" x1="187.5" x2="187.5" y1="1068.5269" y2="1315.8667"/><line style="stroke:#A80036;stroke-width:1.5;" x1="187.5" x2="449.5" y1="1315.8667" y2="1315.8667"/><polygon fill="#A80036" points="439.5,1311.8667,449.5,1315.8667,439.5,1319.8667,443.5,1315.8667" style="stroke:#A80036;stroke-width:1.0;"/><line style="stroke:#A80036;stroke-width:1.5;" x1="803.5" x2="803.5" y1="1068.5269" y2="1315.8667"/><line style="stroke:#A80036;stroke-width:1.5;" x1="803.5" x2="473.5" y1="1315.8667" y2="1315.8667"/><polygon fill="#A80036" points="483.5,1311.8667,473.5,1315.8667,483.5,1319.8667,479.5,1315.8667" style="stroke:#A80036;stroke-width:1.0;"/><line style="stroke:#A80036;stroke-width:1.5;" x1="461.5" x2="461.5" y1="960.5894" y2="967.256"/><line style="stroke:#A80036;stroke-width:1.5;" x1="461.5" x2="457" y1="967.256" y2="967.256"/><line style="stroke:#A80036;stroke-width:1.5;" x1="457" x2="457" y1="967.256" y2="980.5894"/><polygon fill="#A80036" points="453,970.5894,457,980.5894,461,970.5894,457,974.5894" style="stroke:#A80036;stroke-width:1.0;"/><line style="stroke:#A80036;stroke-width:1.5;" x1="457" x2="457" y1="1283.8667" y2="1288.8667"/><line style="stroke:#A80036;stroke-width:1.5;" x1="457" x2="461.5" y1="1288.8667" y2="1288.8667"/><line style="stroke:#A80036;stroke-width:1.5;" x1="461.5" x2="461.5" y1="1288.8667" y2="1303.8667"/><polygon fill="#A80036" points="457.5,1293.8667,461.5,1303.8667,465.5,1293.8667,461.5,1297.8667" style="stroke:#A80036;stroke-width:1.0;"/><line style="stroke:#A80036;stroke-width:1.5;" x1="650.5" x2="650.5" y1="948.5894" y2="980.5894"/><polygon fill="#A80036" points="646.5,970.5894,650.5,980.5894,654.5,970.5894,650.5,974.5894" style="stroke:#A80036;stroke-width:1.0;"/><line style="stroke:#A80036;stroke-width:1.5;" x1="650.5" x2="650.5" y1="1137.4956" y2="1315.8667"/><polygon fill="#A80036" points="646.5,1305.8667,650.5,1315.8667,654.5,1305.8667,650.5,1309.8667" style="stroke:#A80036;stroke-width:1.0;"/><line style="stroke:#A80036;stroke-width:1.5;" x1="461.5" x2="461.5" y1="916.5894" y2="936.5894"/><polygon fill="#A80036" points="457.5,926.5894,461.5,936.5894,465.5,926.5894,461.5,930.5894" style="stroke:#A80036;stroke-width:1.0;"/><line style="stroke:#A80036;stroke-width:1.5;" x1="461.5" x2="461.5" y1="1327.8667" y2="1337.8667"/><line style="stroke:#A80036;stroke-width:1.5;" x1="461.5" x2="892" y1="1337.8667" y2="1337.8667"/><polygon fill="#A80036" points="888,1177.4292,892,1167.4292,896,1177.4292,892,1173.4292" style="stroke:#A80036;stroke-width:1.5;"/><line style="stroke:#A80036;stroke-width:1.5;" x1="892" x2="892" y1="904.5894" y2="1337.8667"/><line style="stroke:#A80036;stroke-width:1.5;" x1="892" x2="511" y1="904.5894" y2="904.5894"/><polygon fill="#A80036" points="521,900.5894,511,904.5894,521,908.5894,517,904.5894" style="stroke:#A80036;stroke-width:1.0;"/><!--MD5=[7ae98611c5d049287e42be7cf3f21fae]
@startuml

group Config Manager
group Constructor/Initialization
start
    if (options.UseRealtimeUpdates) then (yes)
        :Start Config Consolidation Thread;
    else (no)
    endif
stop
end group

group Config Polling Thread
start
    repeat :Polling Interval;
        if (Polling Enabled) then (yes)
            :Fetch Config;
            if (Success) then (yes)
                :Update Config;
                :Send Config Updated Event to EventHandler;
        else (no)
            repeat :Retry Fetch;
            repeat while (Retryable Error) is (yes) not (no)
            :Return error to EventHandler;
            kill
        endif
        else (no)
        :Cancel Polling;
        kill
        endif
    repeat while (Polling Enabled) is (yes)
stop
end group


group Config Consolidation Thread

    while (Event Received)
    switch (Event Type)
        case ()
            :New Config Available;
            :Fetch Config with minimum Last-Modified timestamp;
        case ()
            :Config Updated;
            if (SSE URL is different than existing?) then (yes)
                :Disable SSE;
                :Update SSE URL;
                :Start SSE Connection;
            else (no)
            endif
        case ()
            :SSE Connection Error;
            :Disable SSE;
            :Start Polling Thread;
        case ()
            :SSE Connection Success;
            :Disable Polling;
    endswitch
  endwhile
  -[hidden]->
  detach
end group
end group
@enduml

PlantUML version 1.2020.23(Sun Dec 13 19:14:58 GMT 2020)
(GPL source distribution)
Java Runtime: OpenJDK Runtime Environment
JVM: OpenJDK 64-Bit Server VM
Default Encoding: UTF-8
Language: en
Country: US
--></g></svg>