<?xml version="1.0" encoding="utf-8"?>
<!-- Generator: Adobe Illustrator 27.9.0, SVG Export Plug-In . SVG Version: 6.00 Build 0)  -->
<svg version="1.1" id="Layer_1" xmlns="http://www.w3.org/2000/svg" xmlns:xlink="http://www.w3.org/1999/xlink" x="0px" y="0px"
	 viewBox="0 0 185 185" style="enable-background:new 0 0 185 185;" xml:space="preserve">
<style type="text/css">
	  /* Default Style (Light Mode) */
    .st1{fill:url(#SVGID_1_);}

    /* Dark Mode */
    @media (prefers-color-scheme: dark) {
        .st1{fill:url(#SVGID_2_);} /* Adjust gradient for dark mode */
    }
</style>
<linearGradient id="SVGID_1_" gradientUnits="userSpaceOnUse" x1="22.6663" y1="799.9461" x2="117.2573" y2="655.0515" gradientTransform="matrix(1 0 0 1 0 -606)">
	<stop  offset="0" style="stop-color:#0EA5E9"/>
	<stop  offset="1" style="stop-color:#1D4ED8"/>
</linearGradient>

<!-- Gradient for Dark Mode (inverted colors for demonstration) -->
<linearGradient id="SVGID_2_" gradientUnits="userSpaceOnUse" x1="22.6663" y1="799.9461" x2="117.2573" y2="655.0515" gradientTransform="matrix(1 0 0 1 0 -606)">
    <stop offset="0" style="stop-color:#FFFFFF"/>
    <stop offset="1" style="stop-color:#FFFFFF"/>
</linearGradient>
<path class="st1" d="M91.5,94.8c-5.3,0-10.1-3-12.5-7.7c-0.3-0.6,0-1.3,0.6-1.6h0l2.7-1.1c0.6-0.2,1.2,0,1.4,0.6c2.3,4.3,7.6,5.9,11.9,3.6
	c1.5-0.8,2.7-2.1,3.6-3.6c0.2-0.6,0.9-0.8,1.4-0.6l2.7,1.1c0.7,0.2,0.9,1,0.7,1.5v0.1C101.7,91.8,96.8,94.8,91.5,94.8z M108.1,29.5
	H94.1v-7.8c4.2-1.4,6.5-6.1,5.1-10.3c-1.4-4.2-6.1-6.5-10.3-5.1s-6.5,6.1-5.1,10.3c0.8,2.4,2.7,4.3,5.1,5.1v7.8H75
	c-13.3,0.1-24.1,10.8-24.1,24.1c0,13.3,10.8,24,24,24H108c13.3,0,24-10.8,24-24.1C132.1,40.3,121.3,29.6,108.1,29.5z M91.5,11.2
	c1.6,0,2.9,1.3,2.9,2.9S93.2,17,91.5,17s-2.9-1.3-2.9-2.9S89.9,11.2,91.5,11.2z M108.1,72.4H88.1c-6.1,0-11.9-3.1-15.4-8.1
	c5.9,1.4,11.9-2.4,13.2-8.4c1.4-5.9-2.4-11.8-8.4-13.2C71.7,41.3,65.7,45,64.3,51c-0.1,0.8-0.2,1.6-0.2,2.5c0,7.3,3.3,14.2,9,18.7
	c-10.4-1-18-10.2-16.9-20.6c1-9.6,9.1-16.9,18.7-17h20c6.1,0,11.9,3.1,15.4,8.1c-0.8-0.1-1.6-0.2-2.5-0.2c-6.1,0-11.1,4.9-11.1,11.1
	s4.9,11.1,11.1,11.1c6.1,0,11.1-4.9,11.1-11.1c0-7.3-3.3-14.2-9-18.7c10.4,1.1,17.9,10.3,16.9,20.7
	C125.8,65.1,117.8,72.4,108.1,72.4z M69.3,53.5c0-3.3,2.6-5.9,5.9-5.9s5.9,2.6,5.9,5.9c0,3.3-2.6,5.9-5.9,5.9S69.3,56.8,69.3,53.5z
	 M113.7,53.5c0,3.3-2.6,5.9-5.9,5.9c-3.3,0-5.9-2.6-5.9-5.9s2.6-5.9,5.9-5.9C111.1,47.7,113.7,50.3,113.7,53.5z"/>
<path class="st1" d="M144.4,102.7H37.7c-9.5,0-17.2,7.4-17.2,16.6v43.2c0,9.2,7.7,16.6,17.2,16.6h106.8c9.5,0,17.2-7.4,17.2-16.6v-43.2
	C161.6,110.1,153.9,102.7,144.4,102.7z M155.5,119.2v43.2c0,5.9-5,10.7-11.2,10.7H37.7c-6.1,0-11.2-4.8-11.2-10.7v-43.2
	c0-5.9,5-10.7,11.2-10.7h106.8C150.5,108.6,155.5,113.4,155.5,119.2z"/>
<g>
	<path class="st1" d="M134.5,156.4c-4.3,0-7.5-1.3-11.1-4.1c-0.4-0.3-0.5-0.6-0.2-1l2.9-4.1c0.2-0.3,0.6-0.5,1-0.2c2.5,1.7,5.1,2.9,7.8,2.9
		s4.7-0.9,4.7-2.8c0-2.1-2.5-2.8-5.5-3.4c-4.2-0.9-10.5-3-10.5-9.8c0-5.8,5-8.7,11.4-8.7c3.7,0,6.7,0.9,10.2,3.3
		c0.5,0.2,0.5,0.6,0.2,1l-2.7,4c-0.2,0.4-0.6,0.5-1.1,0.2c-2.2-1.4-4.6-2.1-7-2.1c-3,0-4.2,1-4.2,2.5c0,1.8,1.7,2.4,5.3,3.2
		c5.8,1.4,10.7,3.3,10.7,9.6C146.5,152.9,141.8,156.4,134.5,156.4z"/>
	<path class="st1" d="M109.1,156.4c-7.4,0-12.3-3.9-12.3-11.2v-8.8c0-7.3,4.9-11.2,12.1-11.2c3.3,0,6.6,1,9,2.7c0.5,0.2,0.5,0.6,0.2,1l-2.7,4
		c-0.3,0.5-0.6,0.5-1.1,0.2c-1.6-1-3.6-1.5-5.4-1.5c-3.6,0-5.5,2-5.5,5.1v8.3c0,3.3,2,5.1,5.5,5.1c2.1,0,4.2-0.6,5.8-1.7
		c0.5-0.3,0.8-0.2,1,0.2l2.7,4c0.2,0.4,0.2,0.7-0.1,0.9C116.3,155.2,113.1,156.4,109.1,156.4z"/>
	<path class="st1" d="M91.4,144.5c0,7.5-4.6,11.9-12.3,11.9c-7.7,0-12.2-4.4-12.2-11.9v-7.3c0-7.5,4.6-11.9,12.2-11.9c7.7,0,12.3,4.4,12.3,11.9
		V144.5z M73.8,144.3c0,3.7,1.8,5.7,5.3,5.7c3.6,0,5.3-2,5.3-5.7v-7.1c0-3.7-1.7-5.6-5.3-5.6s-5.3,2-5.3,5.6V144.3z"/>
	<path class="st1" d="M39.3,155.9c-0.5,0-0.8-0.2-0.8-0.8v-28.6c0-0.5,0.2-0.8,0.8-0.8h10.3c6.8,0,11.9,3,11.9,11.8v6.7
		c0,8.7-5.2,11.7-11.9,11.7C49.7,155.9,39.3,155.9,39.3,155.9z M45.3,149.5h4.4c3.3,0,4.9-1.5,4.9-5v-7.3c0-3.5-1.7-5.1-4.9-5.1
		h-4.4V149.5z"/>
</g>
</svg>
