<svg width="36" height="36" viewBox="0 0 36 36" fill="none" xmlns="http://www.w3.org/2000/svg">
<rect width="36" height="36" rx="6" fill="url(#paint0_linear_13835_370750)"/>
<path d="M18.0587 31.34C16.7537 31.34 15.5491 30.6101 14.9668 29.4658C14.8865 29.3277 14.9668 29.1501 15.1074 29.0712H15.1274L15.79 28.8148C15.9305 28.7556 16.0911 28.8148 16.1514 28.9529C16.7135 29.9985 18.0386 30.393 19.0827 29.8209C19.4641 29.6236 19.7653 29.308 19.9661 28.9529C20.0263 28.8148 20.1869 28.7556 20.3275 28.8148L20.99 29.0712C21.1506 29.1304 21.2109 29.308 21.1506 29.4461V29.4658C20.5684 30.6101 19.3637 31.34 18.0587 31.34ZM22.1545 15.4586H18.7012L21.589 16.7212C22.633 16.3661 22.3413 17.0258 22 15.9999C21.6386 14.974 22.044 15.6645 21 15.9999C19.956 16.3353 21 15.9999 20 15.9999C20 14.4999 13 15.9999 15.5 15.9999L17.4163 15.4586H13.963C10.6703 15.4783 8 18.0825 8 21.3179C8 24.5534 10.6703 27.1576 13.9429 27.1576H22.1344C25.4271 27.1576 28.0773 24.5337 28.0773 21.2982C28.0974 18.0825 25.4271 15.4783 22.1545 15.4586ZM22.1545 25.8949H17.2155C15.6896 25.8949 14.2641 25.1453 13.4008 23.9221C14.8664 24.2575 16.3321 23.35 16.6734 21.8901C17.0147 20.4499 16.0911 19.0097 14.6054 18.6743C13.1398 18.3389 11.6741 19.2464 11.3328 20.7063C11.2927 20.9036 11.2726 21.1009 11.2726 21.2982C11.2726 23.0738 12.0958 24.7507 13.5012 25.8555C10.9313 25.6187 9.0641 23.3697 9.3251 20.8444C9.56603 18.5165 11.5738 16.7409 13.9429 16.7212H18.8819C20.4078 16.7212 21.8333 17.4709 22.6966 18.694C22.4958 18.6546 22.295 18.6349 22.0943 18.6349C20.5885 18.6349 19.3637 19.8383 19.3637 21.3179C19.3637 22.7976 20.5885 24.001 22.0943 24.001C23.6001 24.001 24.8248 22.7976 24.8248 21.3179C24.8248 19.5424 24.0016 17.8654 22.5962 16.7606C25.1661 17.0171 27.0333 19.2662 26.7723 21.7914C26.5313 24.1194 24.5437 25.8949 22.1545 25.8949ZM12.5575 21.3179C12.5575 20.5288 13.2 19.8975 14.0031 19.8975C14.8062 19.8975 15.4487 20.5288 15.4487 21.3179C15.4487 22.1071 14.8062 22.7384 14.0031 22.7384C13.2 22.7384 12.5575 22.1071 12.5575 21.3179ZM23.5398 21.3179C23.5398 22.1071 22.8973 22.7384 22.0943 22.7384C21.2912 22.7384 20.6487 22.1071 20.6487 21.3179C20.6487 20.5288 21.2912 19.8975 22.0943 19.8975C22.8973 19.8975 23.5398 20.5288 23.5398 21.3179Z" fill="white"/>
<path d="M18.2758 3.4565C18.0997 3.38104 17.9004 3.38104 17.7243 3.4565L12.8243 5.5565C12.5669 5.66681 12.4 5.91988 12.4 6.1999C12.4 6.47992 12.5669 6.733 12.8243 6.8433L14.6753 7.63659C14.7426 7.56033 14.827 7.49821 14.9243 7.45651L17.7243 6.25651C18.0796 6.10422 18.4911 6.26883 18.6434 6.62417C18.7957 6.97951 18.6311 7.39102 18.2758 7.54331L16.3667 8.36148L17.7243 8.9433C17.9004 9.01877 18.0997 9.01877 18.2758 8.9433L23.1758 6.8433C23.4331 6.733 23.6 6.47992 23.6 6.1999C23.6 5.91988 23.4331 5.66681 23.1758 5.5565L18.2758 3.4565Z" fill="white"/>
<path d="M13.3171 8.57761L14.5 9.0846V11.9558C14.2601 11.9013 14.015 11.8606 13.7655 11.8345C13.4367 11.8 13.1768 11.5401 13.1423 11.2113C13.1143 10.9444 13.1 10.6736 13.1 10.3998C13.1 9.77222 13.1752 9.16194 13.3171 8.57761Z" fill="white"/>
<path d="M17.51 13.6007C17.039 13.1389 16.4962 12.7508 15.9 12.4545V9.6846L17.1728 10.2301C17.701 10.4565 18.299 10.4565 18.8273 10.2301L22.683 8.57761C22.8248 9.16194 22.9 9.77222 22.9 10.3998C22.9 10.6736 22.8857 10.9444 22.8577 11.2113C22.8232 11.5401 22.5634 11.8 22.2345 11.8345C20.7835 11.9866 19.4787 12.6315 18.4901 13.6007C18.2179 13.8675 17.7822 13.8675 17.51 13.6007Z" fill="white"/>
<path d="M15.2 14.5999C15.5866 14.5999 15.9 14.2865 15.9 13.8999V12.4545C15.46 12.2358 14.9908 12.0671 14.5 11.9558V13.8999C14.5 14.2865 14.8134 14.5999 15.2 14.5999Z" fill="white"/>
<defs>
<linearGradient id="paint0_linear_13835_370750" x1="36" y1="4.38359" x2="-2.14577e-06" y2="4.38359" gradientUnits="userSpaceOnUse">
<stop stop-color="#071746"/>
<stop offset="1" stop-color="#111827"/>
</linearGradient>
</defs>
</svg>
