<?xml version="1.0" encoding="utf-8"?>
<!-- Generator: Adobe Illustrator 25.4.1, SVG Export Plug-In . SVG Version: 6.00 Build 0)  -->
<svg version="1.1" id="Layer_1" xmlns="http://www.w3.org/2000/svg" xmlns:xlink="http://www.w3.org/1999/xlink" x="0px" y="0px"
	 viewBox="0 0 200 185" style="enable-background:new 0 0 200 185;" xml:space="preserve">
<style type="text/css">
	  /* Default Style (Light Mode) */
    .st1{fill:url(#SVGID_1_);}

    /* Dark Mode */
    @media (prefers-color-scheme: dark) {
        .st1{fill:url(#SVGID_2_);} /* Adjust gradient for dark mode */
    }
</style>
<linearGradient id="SVGID_1_" gradientUnits="userSpaceOnUse" x1="22.6663" y1="799.9461" x2="117.2573" y2="655.0515" gradientTransform="matrix(1 0 0 1 0 -606)">
	<stop  offset="0" style="stop-color:#0EA5E9"/>
	<stop  offset="1" style="stop-color:#1D4ED8"/>
</linearGradient>

<!-- Gradient for Dark Mode (inverted colors for demonstration) -->
<linearGradient id="SVGID_2_" gradientUnits="userSpaceOnUse" x1="22.6663" y1="799.9461" x2="117.2573" y2="655.0515" gradientTransform="matrix(1 0 0 1 0 -606)">
    <stop offset="0" style="stop-color:#FFFFFF"/>
    <stop offset="1" style="stop-color:#FFFFFF"/>
</linearGradient>
<path class="st1" d="M84.7,185c-11,0-21.1-6.2-26-16c-0.7-1.2,0-2.7,1.2-3.4H60l5.6-2.2c1.2-0.5,2.5,0,3,1.2
	c4.7,8.9,15.9,12.3,24.7,7.4c3.2-1.7,5.7-4.4,7.4-7.4c0.5-1.2,1.9-1.7,3-1.2l5.6,2.2c1.4,0.5,1.9,2,1.4,3.2v0.2
	C105.8,178.8,95.7,185,84.7,185z M119.1,49.1h-29V32.9c8.8-3,13.5-12.7,10.6-21.4C97.7,2.7,88-2,79.3,0.8S65.7,13.5,68.6,22.3
	c1.7,4.9,5.6,8.9,10.6,10.6v16.2h-29C22.5,49.3,0,71.6,0,99.2c0,27.7,22.5,50,50,50h69c27.7,0,50-22.5,50-50.1
	C169.2,71.6,146.7,49.3,119.1,49.1z M84.7,11c3.4,0,6.1,2.7,6.1,6.1s-2.7,6.1-6.1,6.1s-6.1-2.7-6.1-6.1S81.3,11,84.7,11z
	 M119.1,138.4H77.6c-12.8,0-24.8-6.4-32.1-16.9c12.3,2.9,24.7-4.9,27.5-17.4c2.9-12.3-4.9-24.6-17.4-27.5
	C43.3,73.8,30.9,81.5,28.1,94c-0.3,1.7-0.5,3.4-0.5,5.1c0,15.2,6.9,29.5,18.8,39C24.7,136,9,116.8,11.2,95.2
	c2-19.9,18.9-35.1,38.9-35.3h41.6c12.8,0,24.8,6.4,32.1,16.9c-1.7-0.3-3.4-0.5-5.1-0.5c-12.7,0-23,10.3-23,23s10.3,23,23,23
	s23-10.3,23-23c0-15.2-6.9-29.5-18.8-39c21.6,2.2,37.3,21.4,35.2,43C156,123.2,139.3,138.4,119.1,138.4z M38.4,99.2
	c0-6.8,5.4-12.2,12.2-12.2s12.2,5.4,12.2,12.2c0,6.8-5.4,12.2-12.2,12.2S38.4,106,38.4,99.2z M130.8,99.2c0,6.8-5.4,12.2-12.2,12.2
	s-12.2-5.4-12.2-12.2c0-6.8,5.4-12.2,12.2-12.2S130.8,92.5,130.8,99.2z"/>


</svg>
