<svg width="32" height="32" viewBox="0 0 32 32" fill="none" xmlns="http://www.w3.org/2000/svg">
<g clip-path="url(#clip0_1035_27588)">
<rect width="32" height="32" rx="8" fill="#1D49F4"/>
<path d="M20.6845 10.0669H16.7288V9.30635C17.5953 9.00454 18.2177 8.18359 18.2177 7.21535C18.2177 5.99117 17.2243 5 16 5C14.7757 5 13.7823 5.99238 13.7823 7.21535C13.7823 8.18359 14.4047 9.00454 15.2712 9.30635V10.0669H11.3155C7.2813 10.0669 4 13.3447 4 17.3746C4 21.4045 7.2813 24.6822 11.3155 24.6822H20.6845C24.7175 24.6822 28 21.4045 28 17.3746C28 13.3447 24.7187 10.0669 20.6845 10.0669ZM16 6.45598C16.4194 6.45598 16.7602 6.79643 16.7602 7.21535C16.7602 7.63428 16.4194 7.97473 16 7.97473C15.5806 7.97473 15.2398 7.63428 15.2398 7.21535C15.2398 6.79643 15.5806 6.45598 16 6.45598ZM20.6845 23.225H11.3155C8.08621 23.225 5.45876 20.6004 5.45876 17.3746C5.45876 14.1487 8.08621 11.5241 11.3155 11.5241H20.6845C23.9138 11.5241 26.5412 14.1487 26.5412 17.3746C26.5412 20.6004 23.9138 23.225 20.6845 23.225Z" fill="white"/>
<path d="M10.8322 13.5328C8.83442 13.5328 7.21492 15.1505 7.21492 17.1462C7.21492 19.1418 8.83442 20.7596 10.8322 20.7596C12.83 20.7596 14.4495 19.1418 14.4495 17.1462C14.4495 15.1505 12.83 13.5328 10.8322 13.5328ZM10.8322 19.3024C9.64175 19.3024 8.67367 18.3353 8.67367 17.1462C8.67367 15.957 9.64175 14.99 10.8322 14.99C12.0227 14.99 12.9907 15.957 12.9907 17.1462C12.9907 18.3353 12.0227 19.3024 10.8322 19.3024Z" fill="white"/>
<path d="M21.168 13.5329C19.1702 13.5329 17.5508 15.1507 17.5508 17.1463C17.5508 19.1419 19.1702 20.7597 21.168 20.7597C23.1658 20.7597 24.7853 19.1419 24.7853 17.1463C24.7853 15.1507 23.1658 13.5329 21.168 13.5329ZM21.168 19.3025C19.9776 19.3025 19.0095 18.3355 19.0095 17.1463C19.0095 15.9571 19.9776 14.9901 21.168 14.9901C22.3585 14.9901 23.3266 15.9571 23.3266 17.1463C23.3266 18.3355 22.3585 19.3025 21.168 19.3025Z" fill="white"/>
<path d="M17.088 20.7755C16.8342 21.0097 16.4643 21.1292 15.9882 21.1292C15.512 21.1292 15.1555 21.0145 14.9016 20.7887C14.6019 20.5207 14.1402 20.5473 13.8731 20.8479C13.6048 21.1485 13.6314 21.6085 13.9324 21.8753C14.2962 22.1988 14.9476 22.5852 15.9882 22.5852C17.0288 22.5852 17.7116 22.1831 18.0778 21.8451C18.3739 21.5723 18.392 21.1111 18.1177 20.8165C17.8433 20.5219 17.3829 20.5038 17.088 20.7767V20.7755Z" fill="white"/>
</g>
<defs>
<clipPath id="clip0_1035_27588">
<rect width="32" height="32" fill="white"/>
</clipPath>
</defs>
</svg>
