<svg width="60" height="60" viewBox="0 0 60 60" fill="none" xmlns="http://www.w3.org/2000/svg">
<rect width="60" height="60" rx="6" fill="url(#paint0_linear_13835_370746)"/>
<path d="M30.0459 54.76C27.0559 54.76 24.2959 53.1139 22.9619 50.5334C22.7779 50.222 22.9619 49.8216 23.2839 49.6436H23.3299L24.8479 49.0652C25.1699 48.9318 25.5379 49.0652 25.6759 49.3767C26.9639 51.7347 29.9999 52.6245 32.3919 51.3342C33.2659 50.8893 33.9558 50.1775 34.4158 49.3767C34.5538 49.0652 34.9218 48.9318 35.2438 49.0652L36.7618 49.6436C37.1298 49.7771 37.2678 50.1775 37.1298 50.4889V50.5334C35.7958 53.1139 33.0359 54.76 30.0459 54.76ZM39.4298 18.9453H31.5179V14.6742C33.9098 13.8734 35.1978 11.3374 34.4158 9.02394C33.5879 6.71044 30.9659 5.46471 28.5739 6.22105C26.1819 6.97738 24.8939 9.55782 25.6759 11.8713C26.1359 13.1615 27.1939 14.2293 28.5739 14.6742V18.9453H20.6619C13.118 18.9898 7 24.8625 7 32.1589C7 39.4553 13.118 45.3281 20.6159 45.3281H39.3838C46.9278 45.3281 52.9997 39.4108 52.9997 32.1144C53.0457 24.8625 46.9278 18.9898 39.4298 18.9453ZM30.0459 8.89047C30.9659 8.89047 31.7019 9.60231 31.7019 10.4921C31.7019 11.3819 30.9659 12.0938 30.0459 12.0938C29.1259 12.0938 28.3899 11.3819 28.3899 10.4921C28.3899 9.60231 29.1259 8.89047 30.0459 8.89047ZM39.4298 42.4807H28.1139C24.6179 42.4807 21.3519 40.79 19.3739 38.0316C22.7319 38.788 26.0899 36.7414 26.8719 33.4491C27.6539 30.2013 25.5379 26.9535 22.1339 26.1972C18.7759 25.4409 15.418 27.4874 14.636 30.7797C14.544 31.2246 14.498 31.6695 14.498 32.1144C14.498 36.1186 16.3839 39.9002 19.6039 42.3917C13.716 41.8578 9.43799 36.7859 10.036 31.0911C10.588 25.8413 15.188 21.8372 20.6159 21.7927H31.9319C35.4278 21.7927 38.6938 23.4833 40.6718 26.2417C40.2118 26.1527 39.7518 26.1082 39.2918 26.1082C35.8418 26.1082 33.0359 28.8221 33.0359 32.1589C33.0359 35.4957 35.8418 38.2096 39.2918 38.2096C42.7418 38.2096 45.5478 35.4957 45.5478 32.1589C45.5478 28.1548 43.6618 24.3731 40.4418 21.8816C46.3298 22.46 50.6078 27.5319 50.0098 33.2267C49.4578 38.4765 44.9038 42.4807 39.4298 42.4807ZM17.4419 32.1589C17.4419 30.3793 18.9139 28.9556 20.7539 28.9556C22.5939 28.9556 24.0659 30.3793 24.0659 32.1589C24.0659 33.9385 22.5939 35.3622 20.7539 35.3622C18.9139 35.3622 17.4419 33.9385 17.4419 32.1589ZM42.6038 32.1589C42.6038 33.9385 41.1318 35.3622 39.2918 35.3622C37.4518 35.3622 35.9798 33.9385 35.9798 32.1589C35.9798 30.3793 37.4518 28.9556 39.2918 28.9556C41.1318 28.9556 42.6038 30.3793 42.6038 32.1589Z" fill="white"/>
<defs>
<linearGradient id="paint0_linear_13835_370746" x1="60" y1="7.30599" x2="-3.57628e-06" y2="7.30599" gradientUnits="userSpaceOnUse">
<stop stop-color="#0EA5E9"/>
<stop offset="1" stop-color="#1D4ED8"/>
</linearGradient>
</defs>
</svg>
