<?xml version="1.0" encoding="utf-8"?>
<!-- Generator: Adobe Illustrator 28.3.0, SVG Export Plug-In . SVG Version: 6.00 Build 0)  -->
<svg version="1.1" id="Layer_1" xmlns="http://www.w3.org/2000/svg" xmlns:xlink="http://www.w3.org/1999/xlink" x="0px" y="0px"
	 viewBox="0 0 1073.4 196" style="enable-background:new 0 0 1073.4 196;" xml:space="preserve">
<style type="text/css">
	.st0{fill:#131F64;}
	.st1{fill:#2E4AEF;}
</style>
<path class="st0" d="M1043.7,40.6H860.1c-16.3,0-29.6,12.8-29.6,28.6v74.4c0,15.8,13.3,28.6,29.6,28.6h183.7
	c16.3,0,29.6-12.8,29.6-28.6V69.2C1073.3,53.4,1060,40.6,1043.7,40.6z M1062.8,69.1v74.4c0,10.2-8.6,18.4-19.2,18.4H860.1
	c-10.6,0-19.2-8.2-19.2-18.4V69.1c0-10.2,8.6-18.4,19.2-18.4h183.7C1054.2,50.8,1062.8,59,1062.8,69.1z"/>
<g>
	<path class="st0" d="M1026.6,133c-7.4,0-12.9-2.2-19-7c-0.7-0.5-0.8-1-0.3-1.7l5-7c0.4-0.5,1-0.8,1.7-0.3c4.3,3,8.7,5,13.4,5
		c4.7,0,8.1-1.6,8.1-4.8c0-3.7-4.3-4.8-9.4-5.9c-7.3-1.6-18.1-5.1-18.1-16.8c0-10,8.6-15,19.6-15c6.4,0,11.5,1.6,17.5,5.6
		c0.8,0.4,0.9,1,0.4,1.7l-4.6,6.9c-0.4,0.7-1,0.8-1.8,0.4c-3.8-2.3-8-3.7-12-3.7c-5.1,0-7.2,1.7-7.2,4.3c0,3.1,3,4,9.1,5.5
		c10,2.5,18.4,5.7,18.4,16.4C1047.3,127,1039.2,133,1026.6,133z"/>
	<path class="st0" d="M983,133.1c-12.8,0-21.1-6.8-21.1-19.3V98.7c0-12.5,8.5-19.2,20.9-19.2c5.7,0,11.3,1.7,15.5,4.6
		c0.8,0.4,0.8,1,0.4,1.7l-4.6,6.9c-0.5,0.8-1,0.8-1.8,0.4c-2.7-1.7-6.1-2.6-9.3-2.6c-6.1,0-9.4,3.5-9.4,8.7v14.2
		c0,5.6,3.5,8.7,9.4,8.7c3.7,0,7.2-1,10-3c0.8-0.5,1.3-0.4,1.7,0.3l4.6,6.9c0.4,0.7,0.4,1.2-0.1,1.6
		C995.3,131,989.8,133.1,983,133.1z"/>
	<path class="st0" d="M952.6,112.5c0,12.9-7.8,20.5-21.1,20.5c-13.2,0-21-7.6-21-20.5V100c0-12.9,7.8-20.5,21-20.5
		c13.3,0,21.1,7.6,21.1,20.5V112.5z M922.3,112.3c0,6.4,3.1,9.8,9.1,9.8c6.1,0,9.1-3.4,9.1-9.8v-12.1c0-6.4-3-9.7-9.1-9.7
		s-9.1,3.4-9.1,9.7V112.3z"/>
	<path class="st0" d="M863,132.2c-0.9,0-1.3-0.4-1.3-1.3V81.7c0-0.9,0.4-1.3,1.3-1.3h17.7c11.6,0,20.5,5.2,20.5,20.2v11.5
		c0,15-8.9,20.1-20.5,20.1C880.7,132.2,863,132.2,863,132.2z M873.3,121.3h7.6c5.6,0,8.3-2.6,8.3-8.6v-12.5c0-6-2.9-8.7-8.3-8.7
		h-7.6V121.3z"/>
</g>
<g>
	<g id="Layer_2-2_00000038405714872416900810000006713126986950369187_">
		<g>
			<g>
				<path class="st1" d="M138.1,45.9h-32.7v-6.3c7.2-2.5,12.3-9.3,12.3-17.3c0-10.1-8.2-18.3-18.3-18.3s-18.3,8.2-18.3,18.3
					c0,8,5.2,14.8,12.3,17.3v6.3H60.5C27.1,45.9,0,73,0,106.4s27.1,60.5,60.5,60.5H138c33.4,0,60.5-27.1,60.5-60.5
					S171.4,45.9,138.1,45.9L138.1,45.9z M99.3,16c3.5,0,6.3,2.8,6.3,6.3s-2.8,6.3-6.3,6.3S93,25.7,93,22.2S95.8,16,99.3,16z
					 M138.1,154.8H60.5c-26.7,0-48.5-21.7-48.5-48.5s21.7-48.5,48.5-48.5H138c26.7,0,48.5,21.7,48.5,48.5S164.8,154.8,138.1,154.8
					L138.1,154.8z"/>
				<path class="st1" d="M56.5,74.6C40,74.6,26.6,88,26.6,104.5s13.4,29.9,29.9,29.9s29.9-13.4,29.9-29.9S73.1,74.6,56.5,74.6z
					 M56.5,122.4c-9.8,0-17.9-8-17.9-17.9s8-17.9,17.9-17.9s17.9,8,17.9,17.9S66.4,122.4,56.5,122.4z"/>
				<path class="st1" d="M142.1,74.6c-16.5,0-29.9,13.4-29.9,29.9s13.4,29.9,29.9,29.9S172,121,172,104.5S158.6,74.6,142.1,74.6
					L142.1,74.6z M142.1,122.4c-9.9,0-17.9-8-17.9-17.9s8-17.9,17.9-17.9s17.9,8,17.9,17.9S151.9,122.4,142.1,122.4z"/>
				<path class="st1" d="M108.3,134.6c-2.1,1.9-5.2,2.9-9.1,2.9s-6.9-0.9-9-2.8c-2.5-2.2-6.3-2-8.5,0.5c-2.2,2.5-2,6.3,0.5,8.5
					c3,2.7,8.4,5.9,17,5.9s14.3-3.3,17.3-6.1c2.4-2.3,2.6-6.1,0.3-8.5S110.7,132.3,108.3,134.6L108.3,134.6z"/>
			</g>
			<g>
				<path class="st0" d="M226.1,152V60.3h35.3c6.9,0,13.3,1.2,19.1,3.5c5.9,2.3,11,5.6,15.3,9.8s7.8,9.1,10.3,14.7
					c2.5,5.6,3.7,11.6,3.7,18.1s-1.2,12.6-3.7,18.1c-2.5,5.5-5.9,10.3-10.3,14.5s-9.5,7.4-15.4,9.7c-5.9,2.3-12.2,3.5-19.1,3.5
					H226.1L226.1,152z M245.1,135.1h16c4.1,0,7.9-0.7,11.5-2.2s6.6-3.5,9.3-6.1c2.7-2.6,4.7-5.7,6.2-9.2s2.2-7.3,2.2-11.4
					s-0.7-7.9-2.2-11.5c-1.5-3.5-3.5-6.6-6.2-9.2c-2.6-2.6-5.7-4.7-9.2-6.2c-3.5-1.5-7.4-2.2-11.5-2.2h-16V135.1L245.1,135.1z"/>
				<path class="st0" d="M353.3,153.3c-6.8,0-13-1.6-18.5-4.7s-9.9-7.4-13.2-12.7s-4.9-11.3-4.9-18s1.5-12.6,4.6-18
					c3.1-5.3,7.3-9.6,12.6-12.7c5.3-3.2,11.3-4.7,17.8-4.7s12.4,1.6,17.4,4.8c5.1,3.2,9.1,7.6,12,13.1c2.9,5.5,4.4,11.8,4.4,18.7
					v4.7h-50.6c0.8,2.7,2.1,5.2,3.9,7.3c1.8,2.2,4,3.9,6.7,5.1s5.5,1.8,8.6,1.8s5.9-0.5,8.5-1.4c2.6-1,4.8-2.3,6.6-4.1l11.8,10.8
					c-4.2,3.4-8.5,5.9-12.9,7.5S358.8,153.3,353.3,153.3L353.3,153.3z M334.8,111.1H368c-0.6-2.7-1.7-5.1-3.3-7.1
					c-1.6-2.1-3.5-3.7-5.8-4.8c-2.2-1.2-4.7-1.8-7.4-1.8s-5.3,0.6-7.6,1.7c-2.3,1.1-4.2,2.7-5.7,4.8
					C336.6,105.9,335.5,108.3,334.8,111.1L334.8,111.1z"/>
				<path class="st0" d="M413.3,152l-29.2-68.3h19.5l18.7,45.5l18.6-45.5h19.1L430.7,152H413.3L413.3,152z"/>
				<path class="st0" d="M513.9,153.3c-6.8,0-13.2-1.2-19.1-3.6c-5.9-2.4-11.1-5.7-15.5-10c-4.4-4.3-7.9-9.3-10.4-15
					c-2.5-5.7-3.7-11.9-3.7-18.5s1.2-12.9,3.7-18.7c2.5-5.7,6-10.7,10.4-15c4.5-4.3,9.6-7.6,15.5-10c5.9-2.4,12.3-3.6,19.1-3.6
					c5.1,0,10,0.7,14.7,2.1c4.7,1.4,9.1,3.4,13.2,5.9c4.1,2.5,7.5,5.6,10.4,9.2l-12.8,12.7c-3.3-4.1-7.1-7.2-11.5-9.3
					c-4.3-2.1-9-3.2-14-3.2c-4.1,0-8,0.8-11.5,2.3c-3.6,1.5-6.7,3.6-9.3,6.3c-2.6,2.7-4.7,5.8-6.2,9.4c-1.5,3.6-2.2,7.6-2.2,11.9
					s0.7,8.1,2.2,11.7c1.5,3.6,3.6,6.8,6.3,9.4c2.7,2.7,5.9,4.7,9.5,6.2c3.6,1.5,7.6,2.2,11.9,2.2c4.8,0,9.3-1,13.5-3
					s7.9-4.9,11.1-8.7l12.5,12.3c-2.9,3.5-6.3,6.5-10.3,9c-4,2.5-8.4,4.5-13,5.8S518.9,153.3,513.9,153.3L513.9,153.3z"/>
				<path class="st0" d="M569.1,180.2c-1.6,0-3.1-0.1-4.5-0.2c-1.4-0.1-2.6-0.3-3.6-0.5v-15.5c1.8,0.4,3.8,0.5,6.3,0.5
					c6.5,0,11.1-3.1,13.6-9.3l1-2.6l-26.6-68.9h19.8l17,46.5l19.3-46.5h19.4l-31.5,73.8c-2.4,5.5-4.9,9.9-7.7,13.2
					c-2.8,3.3-6,5.7-9.6,7.2C578.4,179.5,574.1,180.2,569.1,180.2L569.1,180.2z"/>
				<path class="st0" d="M665.2,153.3c-6.7,0-12.8-1.6-18.2-4.6c-5.4-3.1-9.7-7.3-12.8-12.7c-3.2-5.4-4.7-11.4-4.7-18
					s1.6-12.8,4.7-18.1c3.2-5.3,7.4-9.6,12.8-12.7c5.4-3.2,11.5-4.7,18.2-4.7c5.4,0,10.6,1.1,15.5,3.2s9.2,5.1,12.8,9l-11,11.7
					c-2.5-2.8-5.2-4.9-7.9-6.2c-2.8-1.3-5.8-2-9-2c-3.5,0-6.6,0.9-9.4,2.6s-4.9,4.1-6.5,7.1c-1.6,3-2.4,6.4-2.4,10.2s0.8,7,2.4,10
					c1.6,3,3.9,5.4,6.8,7.1s6.1,2.6,9.6,2.6c3.1,0,5.9-0.6,8.6-1.9c2.7-1.3,5.2-3.2,7.7-5.7l10.8,11.3c-3.5,3.8-7.7,6.7-12.6,8.9
					S670.5,153.4,665.2,153.3L665.2,153.3z"/>
				<path class="st0" d="M700.5,152V60.3l18-3V152L700.5,152L700.5,152z"/>
				<path class="st0" d="M761.9,153.3c-6.8,0-13-1.6-18.5-4.7s-9.9-7.4-13.2-12.7s-4.8-11.3-4.8-18s1.5-12.6,4.7-18
					c3.1-5.3,7.3-9.6,12.7-12.7c5.3-3.2,11.3-4.7,17.8-4.7s12.4,1.6,17.4,4.8c5.1,3.2,9.1,7.6,12,13.1c2.9,5.5,4.4,11.8,4.4,18.7
					v4.7h-50.6c0.8,2.7,2.1,5.2,3.9,7.3c1.8,2.2,4,3.9,6.7,5.1s5.5,1.8,8.6,1.8s5.9-0.5,8.5-1.4c2.6-1,4.8-2.3,6.6-4.1l11.8,10.8
					c-4.2,3.4-8.5,5.9-12.9,7.5S767.4,153.3,761.9,153.3L761.9,153.3z M743.5,111.1h33.2c-0.6-2.7-1.7-5.1-3.3-7.1
					c-1.6-2.1-3.5-3.7-5.8-4.8c-2.2-1.2-4.7-1.8-7.4-1.8s-5.3,0.6-7.6,1.7c-2.3,1.1-4.2,2.7-5.7,4.8
					C745.3,105.9,744.2,108.3,743.5,111.1L743.5,111.1z"/>
			</g>
		</g>
	</g>
</g>
</svg>
