<?xml version="1.0" encoding="utf-8"?>
<!-- Generator: Adobe Illustrator 27.9.0, SVG Export Plug-In . SVG Version: 6.00 Build 0)  -->
<svg version="1.1" id="Layer_1" xmlns="http://www.w3.org/2000/svg" xmlns:xlink="http://www.w3.org/1999/xlink" x="0px" y="0px"
	 viewBox="0 0 185 185" style="enable-background:new 0 0 185 185;" xml:space="preserve">
<style type="text/css">
	  /* Default Style (Light Mode) */
    .st1{fill:url(#SVGID_1_);}

    /* Dark Mode */
    @media (prefers-color-scheme: dark) {
        .st1{fill:url(#SVGID_2_);} /* Adjust gradient for dark mode */
    }
</style>
<linearGradient id="SVGID_1_" gradientUnits="userSpaceOnUse" x1="22.6663" y1="799.9461" x2="117.2573" y2="655.0515" gradientTransform="matrix(1 0 0 1 0 -606)">
	<stop  offset="0" style="stop-color:#0EA5E9"/>
	<stop  offset="1" style="stop-color:#1D4ED8"/>
</linearGradient>

<!-- Gradient for Dark Mode (inverted colors for demonstration) -->
<linearGradient id="SVGID_2_" gradientUnits="userSpaceOnUse" x1="22.6663" y1="799.9461" x2="117.2573" y2="655.0515" gradientTransform="matrix(1 0 0 1 0 -606)">
    <stop offset="0" style="stop-color:#FFFFFF"/>
    <stop offset="1" style="stop-color:#FFFFFF"/>
</linearGradient>

<path class="st1" d="M117.5,165.6l-5.6-2.2c-1.1-0.5-2.5,0-3,1.2c-1.7,3-4.2,5.7-7.4,7.4c-8.8,4.9-20,1.5-24.7-7.4c-0.5-1.2-1.8-1.7-3-1.2
	l-5.6,2.2h-0.1c-1.2,0.7-1.9,2.2-1.2,3.4c4.9,9.8,15,16,26,16s21.1-6.2,26-16v-0.2C119.4,167.6,118.9,166.1,117.5,165.6z"/>
<path class="st1" d="M53.7,121.5c12.3,2.9,24.7-4.9,27.5-17.4c2.9-12.3-4.9-24.6-17.4-27.5C51.5,73.8,39.1,81.5,36.3,94
	c-0.3,1.7-0.5,3.4-0.5,5.1c0,15.2,6.9,29.5,18.8,39c-21.7-2.1-37.4-21.3-35.2-42.9c2-19.9,18.9-35.1,38.9-35.3h41.6
	c12.8,0,24.8,6.4,32.1,16.9c-1.7-0.3-3.4-0.5-5.1-0.5c-13.2,0-23.8,11.1-23,24.5c0.7,11.5,10,20.8,21.5,21.5
	c13.4,0.8,24.5-9.8,24.5-23c0-15.2-6.9-29.5-18.8-39c21.6,2.2,37.3,21.4,35.2,43c-0.5,5-2,9.8-4.2,14.1c-0.7,1.3,0.3,2.9,1.8,2.9
	l7.4,0c0.8,0,1.5-0.5,1.8-1.2c2.7-6.1,4.1-12.9,4.1-20c0.2-27.5-22.3-49.8-49.9-50h-29V32.9c8.8-3,13.5-12.7,10.6-21.4
	C105.9,2.7,96.2-2,87.5,0.8c-8.7,2.8-13.6,12.7-10.7,21.5c1.7,4.9,5.6,8.9,10.6,10.6v16.2h-29C30.7,49.3,8.2,71.6,8.2,99.2
	c0,27.7,22.5,50,50,50h67c1.1,0,2-0.9,2-2v-6.8c0-1.1-0.9-2-2-2H85.8C73,138.4,61,132,53.7,121.5z M46.6,99.2
	C46.6,92.4,52,87,58.8,87C65.5,87,71,92.5,71,99.2c0,6.8-5.4,12.2-12.2,12.2C52.1,111.4,46.6,105.9,46.6,99.2z M139,99.2
	c0,6.9-5.6,12.4-12.6,12.2c-6.3-0.2-11.5-5.4-11.8-11.8c-0.2-7,5.2-12.6,12.2-12.6C133.6,87,139,92.5,139,99.2z M86.8,17.9
	c-0.5-4,2.8-7.3,6.8-6.8c2.7,0.3,4.9,2.6,5.3,5.3c0.5,4-2.8,7.3-6.8,6.8C89.4,22.8,87.2,20.6,86.8,17.9z"/>
<g>
	<path class="st1" d="M144.3,159.2c-1.1,0-2-0.9-2-2v-0.5c0-2.2,0.3-4.2,1-5.9s2-3.5,3.8-5.4c1.7-1.9,2.8-3.4,3.3-4.5s0.7-2.4,0.7-4.1
		c0-1.5-0.4-2.8-1.1-3.7s-1.8-1.4-3.3-1.4c-2,0-4,0.5-6.1,1.6c-1,0.5-2.3,0.1-2.8-0.9l-1.4-3c-0.6-1.3-0.3-2.5,0.6-3
		c3.3-1.8,6.8-2.8,10.6-2.8c3.9,0,6.9,1.1,9.2,3.2s3.4,5.1,3.4,8.9c0,2.7-0.4,4.9-1.2,6.8s-2.4,4.1-4.8,6.7c-1.6,1.7-2.6,3-3,4
		s-0.7,2.2-0.7,3.8v0.1c0,1.1-0.9,2-2,2H144.3z M140.7,170.9c0-1.9,0.5-3.3,1.5-4.3s2.4-1.5,4.3-1.5c1.9,0,3.4,0.5,4.4,1.5
		s1.5,2.4,1.5,4.2c0,1.8-0.5,3.2-1.5,4.2s-2.4,1.5-4.3,1.5s-3.3-0.5-4.3-1.5C141.2,174.2,140.7,172.8,140.7,170.9z"/>
</g>
</svg>
